{"glyphs":{"0":{"ha":772,"x_min":51,"x_max":721,"o":"m 386 -17 q 140 85 229 -17 q 51 476 51 186 q 140 868 51 767 q 386 969 229 969 q 631 868 542 969 q 721 476 721 767 q 631 85 721 186 q 386 -17 542 -17 m 386 85 q 554 184 514 85 q 594 463 594 283 l 594 476 q 554 765 594 661 q 386 868 514 868 q 218 769 258 868 q 178 490 178 669 l 178 476 q 218 188 178 292 q 386 85 258 85 z "},"1":{"ha":772,"x_min":129,"x_max":726,"o":"m 131 0 l 131 101 l 376 101 l 376 779 l 129 779 l 129 851 q 285 886 192 858 q 451 953 379 914 l 499 953 l 499 101 l 726 101 l 726 0 l 131 0 z "},"2":{"ha":772,"x_min":54,"x_max":708,"o":"m 54 0 l 54 40 q 109 206 54 133 q 244 338 164 278 q 402 454 324 397 q 529 575 481 511 q 576 703 576 638 q 541 810 576 756 q 393 864 506 864 q 237 810 282 864 q 192 682 192 756 l 192 625 l 69 625 q 67 640 69 625 q 65 681 65 656 q 165 901 65 833 q 400 969 265 969 q 553 941 485 969 q 663 851 622 913 q 703 692 703 789 q 649 529 703 601 q 516 396 594 457 q 358 279 438 335 q 229 165 279 224 q 197 117 210 144 l 708 117 l 708 0 l 54 0 z "},"3":{"ha":772,"x_min":49,"x_max":722,"o":"m 390 -17 q 137 61 225 -17 q 49 269 49 139 l 49 281 l 172 281 l 172 265 q 379 85 172 85 q 536 127 476 85 q 596 264 596 169 q 527 399 596 365 q 374 433 458 433 l 274 433 l 274 535 l 378 535 q 515 576 456 535 q 575 701 575 617 q 518 829 575 790 q 386 868 461 868 q 248 826 303 868 q 193 696 193 785 l 193 683 l 69 683 l 69 708 q 158 899 69 828 q 385 969 246 969 q 614 903 526 969 q 701 708 701 836 q 656 574 701 624 q 543 494 611 525 l 543 489 q 671 408 619 467 q 722 256 722 350 q 629 56 722 128 q 390 -17 536 -17 z "},"4":{"ha":772,"x_min":35,"x_max":726,"o":"m 478 0 l 478 235 l 35 235 l 35 338 q 185 640 121 486 q 290 969 250 794 l 422 969 q 340 710 393 842 q 235 476 288 578 q 154 336 183 375 l 478 336 l 478 649 q 508 734 496 694 q 535 828 519 774 l 600 828 l 600 336 l 726 336 l 726 235 l 600 235 l 600 0 l 478 0 z "},"5":{"ha":772,"x_min":50,"x_max":714,"o":"m 383 -17 q 141 67 232 -17 q 50 296 50 150 l 175 296 q 235 140 175 197 q 383 83 294 83 q 530 140 472 83 q 588 311 588 196 q 534 463 588 410 q 394 517 481 517 q 278 486 331 517 q 196 407 225 456 l 83 425 l 122 953 l 664 953 l 664 836 l 224 836 l 201 546 q 286 596 233 572 q 419 619 339 619 q 628 544 542 619 q 714 311 714 468 q 625 69 714 154 q 383 -17 536 -17 z "},"6":{"ha":772,"x_min":53,"x_max":719,"o":"m 403 -17 q 146 83 239 -17 q 53 449 53 183 q 142 855 53 740 q 399 969 231 969 q 619 885 551 969 q 688 674 688 800 l 563 674 q 392 868 563 868 q 222 771 264 868 q 178 508 181 674 q 282 585 219 558 q 417 613 344 613 q 645 521 571 613 q 719 297 719 429 q 629 68 719 153 q 403 -17 539 -17 m 393 85 q 544 149 496 85 q 593 303 593 214 q 544 451 593 390 q 393 513 496 513 q 241 449 290 513 q 192 297 192 386 q 241 147 192 210 q 393 85 290 85 z "},"7":{"ha":772,"x_min":51,"x_max":726,"o":"m 200 0 q 255 318 200 164 q 390 604 310 472 q 547 836 469 736 l 51 836 l 51 953 l 726 953 l 726 879 q 549 648 639 781 q 397 367 458 515 q 335 71 335 218 q 335 38 335 51 q 336 0 335 25 l 200 0 z "},"8":{"ha":772,"x_min":53,"x_max":718,"o":"m 385 -17 q 131 65 208 -17 q 53 261 53 147 q 90 398 53 339 q 210 489 126 457 q 111 580 144 524 q 78 704 78 636 q 156 892 78 814 q 385 969 233 969 q 614 892 536 969 q 692 704 692 814 q 560 489 692 558 q 681 398 644 457 q 718 261 718 339 q 640 65 718 147 q 385 -17 561 -17 m 385 85 q 539 133 486 85 q 592 261 592 181 q 539 389 592 342 q 385 436 486 436 q 231 389 283 436 q 179 261 179 342 q 231 133 179 181 q 385 85 283 85 m 385 538 q 519 581 469 538 q 569 703 569 625 q 519 824 569 781 q 385 868 469 868 q 250 824 300 868 q 200 703 200 781 q 250 581 200 625 q 385 538 300 538 z "},"9":{"ha":772,"x_min":53,"x_max":719,"o":"m 374 -17 q 153 68 221 -17 q 85 279 85 153 l 210 279 q 381 85 210 85 q 550 182 508 85 q 594 444 592 279 q 494 367 554 394 q 363 340 433 340 q 129 432 206 340 q 53 656 53 524 q 143 885 53 800 q 369 969 233 969 q 626 869 533 969 q 719 504 719 769 q 631 98 719 213 q 374 -17 542 -17 m 379 440 q 531 503 482 440 q 581 656 581 567 q 531 806 581 743 q 379 868 482 868 q 228 803 276 868 q 179 650 179 739 q 228 501 179 563 q 379 440 276 440 z "},"A":{"ha":926,"x_min":10,"x_max":917,"o":"m 10 0 l 379 953 l 547 953 l 917 0 l 776 0 l 681 254 l 239 254 l 146 0 l 10 0 m 282 369 l 638 369 l 526 667 q 506 724 517 694 q 483 782 494 753 q 463 839 472 811 l 456 839 q 435 783 444 811 q 414 726 425 754 q 393 669 403 697 l 282 369 z "},"Á":{"ha":926,"x_min":10,"x_max":917,"o":"m 10 0 l 379 953 l 547 953 l 917 0 l 776 0 l 681 254 l 239 254 l 146 0 l 10 0 m 282 369 l 638 369 l 526 667 q 506 724 517 694 q 483 782 494 753 q 463 839 472 811 l 456 839 q 435 783 444 811 q 414 726 425 754 q 393 669 403 697 l 282 369 m 411 1022 l 531 1206 l 664 1206 l 665 1201 l 515 1022 l 411 1022 z "},"Ă":{"ha":926,"x_min":10,"x_max":917,"o":"m 10 0 l 379 953 l 547 953 l 917 0 l 776 0 l 681 254 l 239 254 l 146 0 l 10 0 m 282 369 l 638 369 l 526 667 q 506 724 517 694 q 483 782 494 753 q 463 839 472 811 l 456 839 q 435 783 444 811 q 414 726 425 754 q 393 669 403 697 l 282 369 m 463 1043 q 303 1096 346 1043 q 261 1206 261 1149 l 346 1206 q 374 1157 351 1182 q 463 1132 396 1132 q 553 1157 529 1132 q 581 1206 578 1182 l 665 1206 q 622 1096 665 1149 q 463 1043 579 1043 z "},"Ắ":{"ha":926,"x_min":10,"x_max":917,"o":"m 10 0 l 379 953 l 547 953 l 917 0 l 776 0 l 681 254 l 239 254 l 146 0 l 10 0 m 282 369 l 638 369 l 526 667 q 506 724 517 694 q 483 782 494 753 q 463 839 472 811 l 456 839 q 435 783 444 811 q 414 726 425 754 q 393 669 403 697 l 282 369 m 463 1043 q 303 1096 346 1043 q 261 1206 261 1149 l 346 1206 q 374 1157 351 1182 q 463 1132 396 1132 q 553 1157 529 1132 q 581 1206 578 1182 l 665 1206 q 622 1096 665 1149 q 463 1043 579 1043 m 411 1206 l 531 1389 l 664 1389 l 665 1385 l 515 1206 l 411 1206 z "},"Ặ":{"ha":926,"x_min":10,"x_max":917,"o":"m 10 0 l 379 953 l 547 953 l 917 0 l 776 0 l 681 254 l 239 254 l 146 0 l 10 0 m 282 369 l 638 369 l 526 667 q 506 724 517 694 q 483 782 494 753 q 463 839 472 811 l 456 839 q 435 783 444 811 q 414 726 425 754 q 393 669 403 697 l 282 369 m 463 1043 q 303 1096 346 1043 q 261 1206 261 1149 l 346 1206 q 374 1157 351 1182 q 463 1132 396 1132 q 553 1157 529 1132 q 581 1206 578 1182 l 665 1206 q 622 1096 665 1149 q 463 1043 579 1043 z "},"Ằ":{"ha":926,"x_min":10,"x_max":917,"o":"m 10 0 l 379 953 l 547 953 l 917 0 l 776 0 l 681 254 l 239 254 l 146 0 l 10 0 m 282 369 l 638 369 l 526 667 q 506 724 517 694 q 483 782 494 753 q 463 839 472 811 l 456 839 q 435 783 444 811 q 414 726 425 754 q 393 669 403 697 l 282 369 m 463 1043 q 303 1096 346 1043 q 261 1206 261 1149 l 346 1206 q 374 1157 351 1182 q 463 1132 396 1132 q 553 1157 529 1132 q 581 1206 578 1182 l 665 1206 q 622 1096 665 1149 q 463 1043 579 1043 m 407 1206 l 257 1385 l 258 1389 l 392 1389 l 511 1206 l 407 1206 z "},"Ẳ":{"ha":926,"x_min":10,"x_max":917,"o":"m 10 0 l 379 953 l 547 953 l 917 0 l 776 0 l 681 254 l 239 254 l 146 0 l 10 0 m 282 369 l 638 369 l 526 667 q 506 724 517 694 q 483 782 494 753 q 463 839 472 811 l 456 839 q 435 783 444 811 q 414 726 425 754 q 393 669 403 697 l 282 369 m 463 1043 q 303 1096 346 1043 q 261 1206 261 1149 l 346 1206 q 374 1157 351 1182 q 463 1132 396 1132 q 553 1157 529 1132 q 581 1206 578 1182 l 665 1206 q 622 1096 665 1149 q 463 1043 579 1043 m 425 1206 l 425 1290 l 443 1290 q 483 1315 483 1290 q 440 1340 483 1340 l 357 1340 l 357 1394 q 457 1406 404 1406 q 540 1390 497 1406 q 583 1322 583 1374 q 558 1266 583 1285 q 503 1244 533 1247 l 503 1206 l 425 1206 z "},"Ẵ":{"ha":926,"x_min":10,"x_max":917,"o":"m 10 0 l 379 953 l 547 953 l 917 0 l 776 0 l 681 254 l 239 254 l 146 0 l 10 0 m 282 369 l 638 369 l 526 667 q 506 724 517 694 q 483 782 494 753 q 463 839 472 811 l 456 839 q 435 783 444 811 q 414 726 425 754 q 393 669 403 697 l 282 369 m 463 1043 q 303 1096 346 1043 q 261 1206 261 1149 l 346 1206 q 374 1157 351 1182 q 463 1132 396 1132 q 553 1157 529 1132 q 581 1206 578 1182 l 665 1206 q 622 1096 665 1149 q 463 1043 579 1043 m 239 1283 q 267 1385 239 1342 q 357 1428 294 1428 q 464 1406 415 1428 q 564 1385 513 1385 q 603 1428 599 1385 l 693 1428 q 665 1326 693 1369 q 575 1283 638 1283 q 469 1305 517 1283 q 368 1326 421 1326 q 329 1283 333 1326 l 239 1283 z "},"Ǎ":{"ha":926,"x_min":10,"x_max":917,"o":"m 10 0 l 379 953 l 547 953 l 917 0 l 776 0 l 681 254 l 239 254 l 146 0 l 10 0 m 282 369 l 638 369 l 526 667 q 506 724 517 694 q 483 782 494 753 q 463 839 472 811 l 456 839 q 435 783 444 811 q 414 726 425 754 q 393 669 403 697 l 282 369 m 406 1018 l 258 1206 l 383 1206 l 464 1096 l 543 1206 l 668 1206 l 522 1018 l 406 1018 z "},"Â":{"ha":926,"x_min":10,"x_max":917,"o":"m 10 0 l 379 953 l 547 953 l 917 0 l 776 0 l 681 254 l 239 254 l 146 0 l 10 0 m 282 369 l 638 369 l 526 667 q 506 724 517 694 q 483 782 494 753 q 463 839 472 811 l 456 839 q 435 783 444 811 q 414 726 425 754 q 393 669 403 697 l 282 369 m 258 1018 l 406 1206 l 522 1206 l 668 1018 l 543 1018 l 464 1128 l 383 1018 l 258 1018 z "},"Ấ":{"ha":926,"x_min":10,"x_max":917,"o":"m 10 0 l 379 953 l 547 953 l 917 0 l 776 0 l 681 254 l 239 254 l 146 0 l 10 0 m 282 369 l 638 369 l 526 667 q 506 724 517 694 q 483 782 494 753 q 463 839 472 811 l 456 839 q 435 783 444 811 q 414 726 425 754 q 393 669 403 697 l 282 369 m 258 1018 l 406 1206 l 522 1206 l 668 1018 l 543 1018 l 464 1128 l 383 1018 l 258 1018 m 594 1154 l 714 1338 l 847 1338 l 849 1333 l 699 1154 l 594 1154 z "},"Ậ":{"ha":926,"x_min":10,"x_max":917,"o":"m 10 0 l 379 953 l 547 953 l 917 0 l 776 0 l 681 254 l 239 254 l 146 0 l 10 0 m 282 369 l 638 369 l 526 667 q 506 724 517 694 q 483 782 494 753 q 463 839 472 811 l 456 839 q 435 783 444 811 q 414 726 425 754 q 393 669 403 697 l 282 369 m 258 1018 l 406 1206 l 522 1206 l 668 1018 l 543 1018 l 464 1128 l 383 1018 l 258 1018 z "},"Ầ":{"ha":926,"x_min":10,"x_max":917,"o":"m 10 0 l 379 953 l 547 953 l 917 0 l 776 0 l 681 254 l 239 254 l 146 0 l 10 0 m 282 369 l 638 369 l 526 667 q 506 724 517 694 q 483 782 494 753 q 463 839 472 811 l 456 839 q 435 783 444 811 q 414 726 425 754 q 393 669 403 697 l 282 369 m 258 1018 l 406 1206 l 522 1206 l 668 1018 l 543 1018 l 464 1128 l 383 1018 l 258 1018 m 650 1154 l 500 1333 l 501 1338 l 635 1338 l 754 1154 l 650 1154 z "},"Ẩ":{"ha":926,"x_min":10,"x_max":917,"o":"m 10 0 l 379 953 l 547 953 l 917 0 l 776 0 l 681 254 l 239 254 l 146 0 l 10 0 m 282 369 l 638 369 l 526 667 q 506 724 517 694 q 483 782 494 753 q 463 839 472 811 l 456 839 q 435 783 444 811 q 414 726 425 754 q 393 669 403 697 l 282 369 m 258 1018 l 406 1206 l 522 1206 l 668 1018 l 543 1018 l 464 1128 l 383 1018 l 258 1018 m 608 1154 l 608 1239 l 626 1239 q 667 1264 667 1239 q 624 1289 667 1289 l 540 1289 l 540 1343 q 640 1354 588 1354 q 724 1338 681 1354 q 767 1271 767 1322 q 742 1215 767 1233 q 686 1193 717 1196 l 686 1154 l 608 1154 z "},"Ẫ":{"ha":926,"x_min":10,"x_max":917,"o":"m 10 0 l 379 953 l 547 953 l 917 0 l 776 0 l 681 254 l 239 254 l 146 0 l 10 0 m 282 369 l 638 369 l 526 667 q 506 724 517 694 q 483 782 494 753 q 463 839 472 811 l 456 839 q 435 783 444 811 q 414 726 425 754 q 393 669 403 697 l 282 369 m 258 1018 l 406 1206 l 522 1206 l 668 1018 l 543 1018 l 464 1128 l 383 1018 l 258 1018 m 239 1283 q 267 1385 239 1342 q 357 1428 294 1428 q 464 1406 415 1428 q 564 1385 513 1385 q 603 1428 599 1385 l 693 1428 q 665 1326 693 1369 q 575 1283 638 1283 q 469 1305 517 1283 q 368 1326 421 1326 q 329 1283 333 1326 l 239 1283 z "},"Ȁ":{"ha":926,"x_min":10,"x_max":917,"o":"m 10 0 l 379 953 l 547 953 l 917 0 l 776 0 l 681 254 l 239 254 l 146 0 l 10 0 m 282 369 l 638 369 l 526 667 q 506 724 517 694 q 483 782 494 753 q 463 839 472 811 l 456 839 q 435 783 444 811 q 414 726 425 754 q 393 669 403 697 l 282 369 m 528 1022 l 411 1201 l 413 1206 l 547 1206 l 633 1022 l 528 1022 m 335 1022 l 218 1201 l 219 1206 l 354 1206 l 440 1022 l 335 1022 z "},"Ä":{"ha":926,"x_min":10,"x_max":917,"o":"m 10 0 l 379 953 l 547 953 l 917 0 l 776 0 l 681 254 l 239 254 l 146 0 l 10 0 m 282 369 l 638 369 l 526 667 q 506 724 517 694 q 483 782 494 753 q 463 839 472 811 l 456 839 q 435 783 444 811 q 414 726 425 754 q 393 669 403 697 l 282 369 m 533 1074 l 533 1206 l 654 1206 l 654 1074 l 533 1074 m 274 1074 l 274 1206 l 394 1206 l 394 1074 l 274 1074 z "},"Ạ":{"ha":926,"x_min":10,"x_max":917,"o":"m 10 0 l 379 953 l 547 953 l 917 0 l 776 0 l 681 254 l 239 254 l 146 0 l 10 0 m 282 369 l 638 369 l 526 667 q 506 724 517 694 q 483 782 494 753 q 463 839 472 811 l 456 839 q 435 783 444 811 q 414 726 425 754 q 393 669 403 697 l 282 369 z "},"À":{"ha":926,"x_min":10,"x_max":917,"o":"m 10 0 l 379 953 l 547 953 l 917 0 l 776 0 l 681 254 l 239 254 l 146 0 l 10 0 m 282 369 l 638 369 l 526 667 q 506 724 517 694 q 483 782 494 753 q 463 839 472 811 l 456 839 q 435 783 444 811 q 414 726 425 754 q 393 669 403 697 l 282 369 m 411 1022 l 261 1201 l 263 1206 l 396 1206 l 515 1022 l 411 1022 z "},"Ả":{"ha":926,"x_min":10,"x_max":917,"o":"m 10 0 l 379 953 l 547 953 l 917 0 l 776 0 l 681 254 l 239 254 l 146 0 l 10 0 m 282 369 l 638 369 l 526 667 q 506 724 517 694 q 483 782 494 753 q 463 839 472 811 l 456 839 q 435 783 444 811 q 414 726 425 754 q 393 669 403 697 l 282 369 m 425 1022 l 425 1107 l 443 1107 q 483 1132 483 1107 q 440 1157 483 1157 l 357 1157 l 357 1211 q 457 1222 404 1222 q 540 1206 497 1222 q 583 1139 583 1190 q 558 1083 583 1101 q 503 1061 533 1064 l 503 1022 l 425 1022 z "},"Ȃ":{"ha":926,"x_min":10,"x_max":917,"o":"m 10 0 l 379 953 l 547 953 l 917 0 l 776 0 l 681 254 l 239 254 l 146 0 l 10 0 m 282 369 l 638 369 l 526 667 q 506 724 517 694 q 483 782 494 753 q 463 839 472 811 l 456 839 q 435 783 444 811 q 414 726 425 754 q 393 669 403 697 l 282 369 m 261 1043 q 303 1153 261 1100 q 463 1206 346 1206 q 622 1153 579 1206 q 665 1043 665 1100 l 581 1043 q 553 1091 578 1065 q 463 1117 529 1117 q 374 1091 396 1117 q 346 1043 351 1065 l 261 1043 z "},"Ā":{"ha":926,"x_min":10,"x_max":917,"o":"m 10 0 l 379 953 l 547 953 l 917 0 l 776 0 l 681 254 l 239 254 l 146 0 l 10 0 m 282 369 l 638 369 l 526 667 q 506 724 517 694 q 483 782 494 753 q 463 839 472 811 l 456 839 q 435 783 444 811 q 414 726 425 754 q 393 669 403 697 l 282 369 m 251 1072 l 251 1172 l 675 1172 l 675 1072 l 251 1072 z "},"Ą":{"ha":926,"x_min":10,"x_max":917,"o":"m 829 -253 q 744 -226 786 -253 q 701 -128 701 -200 q 724 -53 701 -83 q 776 0 746 -24 l 681 254 l 239 254 l 146 0 l 10 0 l 379 953 l 547 953 l 917 0 l 867 0 q 826 -44 844 -18 q 808 -100 808 -69 q 872 -162 808 -162 l 917 -162 l 917 -233 q 829 -253 874 -253 m 282 369 l 638 369 l 526 667 q 506 724 517 694 q 483 782 494 753 q 463 839 472 811 l 456 839 q 435 783 444 811 q 414 726 425 754 q 393 669 403 697 l 282 369 z "},"Å":{"ha":926,"x_min":10,"x_max":917,"o":"m 10 0 l 379 953 l 547 953 l 917 0 l 776 0 l 681 254 l 239 254 l 146 0 l 10 0 m 282 369 l 638 369 l 526 667 q 506 724 517 694 q 483 782 494 753 q 463 839 472 811 l 456 839 q 435 783 444 811 q 414 726 425 754 q 393 669 403 697 l 282 369 m 464 988 q 366 1026 401 988 q 331 1121 331 1065 q 366 1215 331 1176 q 464 1254 401 1254 q 562 1215 526 1254 q 597 1121 597 1176 q 562 1026 597 1065 q 464 988 526 988 m 464 1050 q 515 1071 496 1050 q 535 1121 535 1092 q 515 1171 535 1150 q 464 1192 496 1192 q 413 1171 432 1192 q 393 1121 393 1150 q 413 1071 393 1092 q 464 1050 432 1050 z "},"Ǻ":{"ha":926,"x_min":10,"x_max":917,"o":"m 10 0 l 371 932 q 329 1032 329 969 q 365 1126 329 1088 q 463 1165 400 1165 q 560 1126 525 1165 q 596 1032 596 1088 q 556 932 596 968 l 917 0 l 776 0 l 681 254 l 239 254 l 146 0 l 10 0 m 282 369 l 638 369 l 526 667 q 506 724 517 694 q 483 782 494 753 q 463 839 472 811 l 456 839 q 435 783 444 811 q 414 726 425 754 q 393 669 403 697 l 282 369 m 463 961 q 514 982 494 961 q 533 1032 533 1003 q 514 1082 533 1061 q 463 1103 494 1103 q 411 1082 431 1103 q 392 1032 392 1061 q 411 982 392 1003 q 463 961 431 961 m 411 1196 l 531 1379 l 664 1379 l 665 1375 l 515 1196 l 411 1196 z "},"Ã":{"ha":926,"x_min":10,"x_max":917,"o":"m 10 0 l 379 953 l 547 953 l 917 0 l 776 0 l 681 254 l 239 254 l 146 0 l 10 0 m 282 369 l 638 369 l 526 667 q 506 724 517 694 q 483 782 494 753 q 463 839 472 811 l 456 839 q 435 783 444 811 q 414 726 425 754 q 393 669 403 697 l 282 369 m 236 1061 q 264 1163 236 1119 q 354 1206 292 1206 q 461 1184 413 1206 q 561 1163 510 1163 q 600 1206 596 1163 l 690 1206 q 663 1104 690 1147 q 572 1061 635 1061 q 466 1083 514 1061 q 365 1104 418 1104 q 326 1061 331 1104 l 236 1061 z "},"Æ":{"ha":1389,"x_min":-1,"x_max":1314,"o":"m -1 0 l 479 953 l 1306 953 l 1306 838 l 688 838 l 769 544 l 1244 544 l 1244 429 l 803 429 l 890 115 l 1314 115 l 1314 0 l 786 0 l 715 254 l 256 254 l 131 0 l -1 0 m 313 369 l 683 369 l 553 838 l 546 838 l 313 369 z "},"Ǽ":{"ha":1389,"x_min":-1,"x_max":1314,"o":"m -1 0 l 479 953 l 1306 953 l 1306 838 l 688 838 l 769 544 l 1244 544 l 1244 429 l 803 429 l 890 115 l 1314 115 l 1314 0 l 786 0 l 715 254 l 256 254 l 131 0 l -1 0 m 313 369 l 683 369 l 553 838 l 546 838 l 313 369 m 642 1022 l 761 1206 l 894 1206 l 896 1201 l 746 1022 l 642 1022 z "},"B":{"ha":926,"x_min":110,"x_max":861,"o":"m 110 0 l 110 953 l 569 953 q 762 889 689 953 q 835 719 835 825 q 790 580 835 638 q 676 500 744 522 l 676 494 q 808 417 756 475 q 861 253 861 358 q 778 60 861 119 q 569 0 694 0 l 110 0 m 242 115 l 567 115 q 683 150 639 115 q 726 269 726 185 q 683 390 726 350 q 557 431 640 431 l 242 431 l 242 115 m 242 546 l 543 546 q 657 587 614 546 q 700 693 700 628 q 660 803 700 768 q 554 838 619 838 l 242 838 l 242 546 z "},"C":{"ha":1003,"x_min":65,"x_max":939,"o":"m 529 -17 q 183 106 300 -17 q 65 476 65 228 q 183 847 65 725 q 529 969 300 969 q 824 880 708 969 q 939 608 939 790 l 804 608 q 730 795 804 733 q 529 857 656 857 q 283 769 364 857 q 201 479 203 682 l 201 476 q 282 184 201 272 q 529 96 363 96 q 733 157 657 96 q 810 342 810 218 l 939 342 q 824 70 939 157 q 529 -17 708 -17 z "},"Ć":{"ha":1003,"x_min":65,"x_max":939,"o":"m 529 -17 q 183 106 300 -17 q 65 476 65 228 q 183 847 65 725 q 529 969 300 969 q 824 880 708 969 q 939 608 939 790 l 804 608 q 730 795 804 733 q 529 857 656 857 q 283 769 364 857 q 201 479 203 682 l 201 476 q 282 184 201 272 q 529 96 363 96 q 733 157 657 96 q 810 342 810 218 l 939 342 q 824 70 939 157 q 529 -17 708 -17 m 449 1022 l 568 1206 l 701 1206 l 703 1201 l 553 1022 l 449 1022 z "},"Č":{"ha":1003,"x_min":65,"x_max":939,"o":"m 529 -17 q 183 106 300 -17 q 65 476 65 228 q 183 847 65 725 q 529 969 300 969 q 824 880 708 969 q 939 608 939 790 l 804 608 q 730 795 804 733 q 529 857 656 857 q 283 769 364 857 q 201 479 203 682 l 201 476 q 282 184 201 272 q 529 96 363 96 q 733 157 657 96 q 810 342 810 218 l 939 342 q 824 70 939 157 q 529 -17 708 -17 m 443 1018 l 296 1206 l 421 1206 l 501 1096 l 581 1206 l 706 1206 l 560 1018 l 443 1018 z "},"Ç":{"ha":1003,"x_min":65,"x_max":939,"o":"m 567 6 l 558 -50 q 648 -72 610 -53 q 686 -140 686 -92 q 628 -231 686 -210 q 522 -253 571 -253 q 390 -242 450 -253 l 390 -174 l 529 -174 q 586 -140 586 -174 q 532 -107 586 -107 l 461 -107 l 482 7 l 567 6 m 529 -17 q 183 106 300 -17 q 65 476 65 228 q 183 847 65 725 q 529 969 300 969 q 824 880 708 969 q 939 608 939 790 l 804 608 q 730 795 804 733 q 529 857 656 857 q 283 769 364 857 q 201 479 203 682 l 201 476 q 282 184 201 272 q 529 96 363 96 q 733 157 657 96 q 810 342 810 218 l 939 342 q 824 70 939 157 q 529 -17 708 -17 z "},"Ĉ":{"ha":1003,"x_min":65,"x_max":939,"o":"m 529 -17 q 183 106 300 -17 q 65 476 65 228 q 183 847 65 725 q 529 969 300 969 q 824 880 708 969 q 939 608 939 790 l 804 608 q 730 795 804 733 q 529 857 656 857 q 283 769 364 857 q 201 479 203 682 l 201 476 q 282 184 201 272 q 529 96 363 96 q 733 157 657 96 q 810 342 810 218 l 939 342 q 824 70 939 157 q 529 -17 708 -17 m 296 1018 l 443 1206 l 560 1206 l 706 1018 l 581 1018 l 501 1128 l 421 1018 l 296 1018 z "},"Ċ":{"ha":1003,"x_min":65,"x_max":939,"o":"m 529 -17 q 183 106 300 -17 q 65 476 65 228 q 183 847 65 725 q 529 969 300 969 q 824 880 708 969 q 939 608 939 790 l 804 608 q 730 795 804 733 q 529 857 656 857 q 283 769 364 857 q 201 479 203 682 l 201 476 q 282 184 201 272 q 529 96 363 96 q 733 157 657 96 q 810 342 810 218 l 939 342 q 824 70 939 157 q 529 -17 708 -17 m 440 1074 l 440 1206 l 561 1206 l 561 1074 l 440 1074 z "},"D":{"ha":1003,"x_min":110,"x_max":939,"o":"m 110 0 l 110 953 l 463 953 q 813 839 686 953 q 939 476 939 725 q 813 114 939 228 q 463 0 686 0 l 110 0 m 242 115 l 463 115 q 710 195 619 115 q 803 474 801 275 l 803 476 q 712 758 803 678 q 463 838 621 838 l 242 838 l 242 115 z "},"Ǳ":{"ha":1851,"x_min":110,"x_max":1821,"o":"m 110 0 l 110 953 l 463 953 q 813 839 686 953 q 939 476 939 725 q 813 114 939 228 q 463 0 686 0 l 110 0 m 242 115 l 463 115 q 710 195 619 115 q 803 474 801 275 l 803 476 q 712 758 803 678 q 463 838 621 838 l 242 838 l 242 115 m 1035 0 l 1035 68 l 1607 838 l 1071 838 l 1071 953 l 1808 953 l 1808 885 l 1235 115 l 1821 115 l 1821 0 l 1035 0 z "},"Ǆ":{"ha":1851,"x_min":110,"x_max":1821,"o":"m 110 0 l 110 953 l 463 953 q 813 839 686 953 q 939 476 939 725 q 813 114 939 228 q 463 0 686 0 l 110 0 m 242 115 l 463 115 q 710 195 619 115 q 803 474 801 275 l 803 476 q 712 758 803 678 q 463 838 621 838 l 242 838 l 242 115 z "},"Ð":{"ha":1003,"x_min":7,"x_max":939,"o":"m 7 450 l 7 538 l 482 538 l 482 450 l 7 450 m 110 0 l 110 953 l 463 953 q 813 839 686 953 q 939 476 939 725 q 813 114 939 228 q 463 0 686 0 l 110 0 m 242 115 l 463 115 q 710 195 619 115 q 803 474 801 275 l 803 476 q 712 758 803 678 q 463 838 621 838 l 242 838 l 242 115 z "},"Ď":{"ha":1003,"x_min":110,"x_max":939,"o":"m 110 0 l 110 953 l 463 953 q 813 839 686 953 q 939 476 939 725 q 813 114 939 228 q 463 0 686 0 l 110 0 m 242 115 l 463 115 q 710 195 619 115 q 803 474 801 275 l 803 476 q 712 758 803 678 q 463 838 621 838 l 242 838 l 242 115 m 443 1018 l 296 1206 l 421 1206 l 501 1096 l 581 1206 l 706 1206 l 560 1018 l 443 1018 z "},"Đ":{"ha":1003,"x_min":7,"x_max":939,"o":"m 7 450 l 7 538 l 482 538 l 482 450 l 7 450 m 110 0 l 110 953 l 463 953 q 813 839 686 953 q 939 476 939 725 q 813 114 939 228 q 463 0 686 0 l 110 0 m 242 115 l 463 115 q 710 195 619 115 q 803 474 801 275 l 803 476 q 712 758 803 678 q 463 838 621 838 l 242 838 l 242 115 z "},"Ḍ":{"ha":1003,"x_min":110,"x_max":939,"o":"m 110 0 l 110 953 l 463 953 q 813 839 686 953 q 939 476 939 725 q 813 114 939 228 q 463 0 686 0 l 110 0 m 242 115 l 463 115 q 710 195 619 115 q 803 474 801 275 l 803 476 q 712 758 803 678 q 463 838 621 838 l 242 838 l 242 115 z "},"ǲ":{"ha":1697,"x_min":110,"x_max":1663,"o":"m 110 0 l 110 953 l 463 953 q 813 839 686 953 q 939 476 939 725 q 813 114 939 228 q 463 0 686 0 l 110 0 m 242 115 l 463 115 q 710 195 619 115 q 803 474 801 275 l 803 476 q 712 758 803 678 q 463 838 621 838 l 242 838 l 242 115 m 1036 0 l 1036 65 l 1460 629 l 1065 629 l 1065 731 l 1639 731 l 1639 667 l 1214 101 l 1663 101 l 1663 0 l 1036 0 z "},"ǅ":{"ha":1697,"x_min":110,"x_max":1663,"o":"m 110 0 l 110 953 l 463 953 q 813 839 686 953 q 939 476 939 725 q 813 114 939 228 q 463 0 686 0 l 110 0 m 242 115 l 463 115 q 710 195 619 115 q 803 474 801 275 l 803 476 q 712 758 803 678 q 463 838 621 838 l 242 838 l 242 115 z "},"E":{"ha":926,"x_min":110,"x_max":851,"o":"m 110 0 l 110 953 l 843 953 l 843 838 l 242 838 l 242 544 l 782 544 l 782 429 l 242 429 l 242 115 l 851 115 l 851 0 l 110 0 z "},"É":{"ha":926,"x_min":110,"x_max":851,"o":"m 110 0 l 110 953 l 843 953 l 843 838 l 242 838 l 242 544 l 782 544 l 782 429 l 242 429 l 242 115 l 851 115 l 851 0 l 110 0 m 411 1022 l 531 1206 l 664 1206 l 665 1201 l 515 1022 l 411 1022 z "},"Ĕ":{"ha":926,"x_min":110,"x_max":851,"o":"m 110 0 l 110 953 l 843 953 l 843 838 l 242 838 l 242 544 l 782 544 l 782 429 l 242 429 l 242 115 l 851 115 l 851 0 l 110 0 m 463 1043 q 303 1096 346 1043 q 261 1206 261 1149 l 346 1206 q 374 1157 351 1182 q 463 1132 396 1132 q 553 1157 529 1132 q 581 1206 578 1182 l 665 1206 q 622 1096 665 1149 q 463 1043 579 1043 z "},"Ě":{"ha":926,"x_min":110,"x_max":851,"o":"m 110 0 l 110 953 l 843 953 l 843 838 l 242 838 l 242 544 l 782 544 l 782 429 l 242 429 l 242 115 l 851 115 l 851 0 l 110 0 m 406 1018 l 258 1206 l 383 1206 l 464 1096 l 543 1206 l 668 1206 l 522 1018 l 406 1018 z "},"Ê":{"ha":926,"x_min":110,"x_max":851,"o":"m 110 0 l 110 953 l 843 953 l 843 838 l 242 838 l 242 544 l 782 544 l 782 429 l 242 429 l 242 115 l 851 115 l 851 0 l 110 0 m 258 1018 l 406 1206 l 522 1206 l 668 1018 l 543 1018 l 464 1128 l 383 1018 l 258 1018 z "},"Ế":{"ha":926,"x_min":110,"x_max":851,"o":"m 110 0 l 110 953 l 843 953 l 843 838 l 242 838 l 242 544 l 782 544 l 782 429 l 242 429 l 242 115 l 851 115 l 851 0 l 110 0 m 258 1018 l 406 1206 l 522 1206 l 668 1018 l 543 1018 l 464 1128 l 383 1018 l 258 1018 m 594 1154 l 714 1338 l 847 1338 l 849 1333 l 699 1154 l 594 1154 z "},"Ệ":{"ha":926,"x_min":110,"x_max":851,"o":"m 110 0 l 110 953 l 843 953 l 843 838 l 242 838 l 242 544 l 782 544 l 782 429 l 242 429 l 242 115 l 851 115 l 851 0 l 110 0 m 258 1018 l 406 1206 l 522 1206 l 668 1018 l 543 1018 l 464 1128 l 383 1018 l 258 1018 z "},"Ề":{"ha":926,"x_min":110,"x_max":851,"o":"m 110 0 l 110 953 l 843 953 l 843 838 l 242 838 l 242 544 l 782 544 l 782 429 l 242 429 l 242 115 l 851 115 l 851 0 l 110 0 m 258 1018 l 406 1206 l 522 1206 l 668 1018 l 543 1018 l 464 1128 l 383 1018 l 258 1018 m 650 1154 l 500 1333 l 501 1338 l 635 1338 l 754 1154 l 650 1154 z "},"Ể":{"ha":926,"x_min":110,"x_max":851,"o":"m 110 0 l 110 953 l 843 953 l 843 838 l 242 838 l 242 544 l 782 544 l 782 429 l 242 429 l 242 115 l 851 115 l 851 0 l 110 0 m 258 1018 l 406 1206 l 522 1206 l 668 1018 l 543 1018 l 464 1128 l 383 1018 l 258 1018 m 608 1154 l 608 1239 l 626 1239 q 667 1264 667 1239 q 624 1289 667 1289 l 540 1289 l 540 1343 q 640 1354 588 1354 q 724 1338 681 1354 q 767 1271 767 1322 q 742 1215 767 1233 q 686 1193 717 1196 l 686 1154 l 608 1154 z "},"Ễ":{"ha":926,"x_min":110,"x_max":851,"o":"m 110 0 l 110 953 l 843 953 l 843 838 l 242 838 l 242 544 l 782 544 l 782 429 l 242 429 l 242 115 l 851 115 l 851 0 l 110 0 m 258 1018 l 406 1206 l 522 1206 l 668 1018 l 543 1018 l 464 1128 l 383 1018 l 258 1018 m 239 1283 q 267 1385 239 1342 q 357 1428 294 1428 q 464 1406 415 1428 q 564 1385 513 1385 q 603 1428 599 1385 l 693 1428 q 665 1326 693 1369 q 575 1283 638 1283 q 469 1305 517 1283 q 368 1326 421 1326 q 329 1283 333 1326 l 239 1283 z "},"Ȅ":{"ha":926,"x_min":110,"x_max":851,"o":"m 110 0 l 110 953 l 843 953 l 843 838 l 242 838 l 242 544 l 782 544 l 782 429 l 242 429 l 242 115 l 851 115 l 851 0 l 110 0 m 528 1022 l 411 1201 l 413 1206 l 547 1206 l 633 1022 l 528 1022 m 335 1022 l 218 1201 l 219 1206 l 354 1206 l 440 1022 l 335 1022 z "},"Ë":{"ha":926,"x_min":110,"x_max":851,"o":"m 110 0 l 110 953 l 843 953 l 843 838 l 242 838 l 242 544 l 782 544 l 782 429 l 242 429 l 242 115 l 851 115 l 851 0 l 110 0 m 533 1074 l 533 1206 l 654 1206 l 654 1074 l 533 1074 m 274 1074 l 274 1206 l 394 1206 l 394 1074 l 274 1074 z "},"Ė":{"ha":926,"x_min":110,"x_max":851,"o":"m 110 0 l 110 953 l 843 953 l 843 838 l 242 838 l 242 544 l 782 544 l 782 429 l 242 429 l 242 115 l 851 115 l 851 0 l 110 0 m 403 1074 l 403 1206 l 524 1206 l 524 1074 l 403 1074 z "},"Ẹ":{"ha":926,"x_min":110,"x_max":851,"o":"m 110 0 l 110 953 l 843 953 l 843 838 l 242 838 l 242 544 l 782 544 l 782 429 l 242 429 l 242 115 l 851 115 l 851 0 l 110 0 z "},"È":{"ha":926,"x_min":110,"x_max":851,"o":"m 110 0 l 110 953 l 843 953 l 843 838 l 242 838 l 242 544 l 782 544 l 782 429 l 242 429 l 242 115 l 851 115 l 851 0 l 110 0 m 411 1022 l 261 1201 l 263 1206 l 396 1206 l 515 1022 l 411 1022 z "},"Ẻ":{"ha":926,"x_min":110,"x_max":851,"o":"m 110 0 l 110 953 l 843 953 l 843 838 l 242 838 l 242 544 l 782 544 l 782 429 l 242 429 l 242 115 l 851 115 l 851 0 l 110 0 m 425 1022 l 425 1107 l 443 1107 q 483 1132 483 1107 q 440 1157 483 1157 l 357 1157 l 357 1211 q 457 1222 404 1222 q 540 1206 497 1222 q 583 1139 583 1190 q 558 1083 583 1101 q 503 1061 533 1064 l 503 1022 l 425 1022 z "},"Ȇ":{"ha":926,"x_min":110,"x_max":851,"o":"m 110 0 l 110 953 l 843 953 l 843 838 l 242 838 l 242 544 l 782 544 l 782 429 l 242 429 l 242 115 l 851 115 l 851 0 l 110 0 m 261 1043 q 303 1153 261 1100 q 463 1206 346 1206 q 622 1153 579 1206 q 665 1043 665 1100 l 581 1043 q 553 1091 578 1065 q 463 1117 529 1117 q 374 1091 396 1117 q 346 1043 351 1065 l 261 1043 z "},"Ē":{"ha":926,"x_min":110,"x_max":851,"o":"m 110 0 l 110 953 l 843 953 l 843 838 l 242 838 l 242 544 l 782 544 l 782 429 l 242 429 l 242 115 l 851 115 l 851 0 l 110 0 m 251 1072 l 251 1172 l 675 1172 l 675 1072 l 251 1072 z "},"Ę":{"ha":926,"x_min":110,"x_max":851,"o":"m 761 -253 q 674 -227 722 -253 q 625 -131 625 -201 q 647 -54 625 -86 q 713 0 669 -22 l 110 0 l 110 953 l 843 953 l 843 838 l 242 838 l 242 544 l 782 544 l 782 429 l 242 429 l 242 115 l 851 115 l 851 0 q 761 -32 789 0 q 733 -92 733 -64 q 750 -141 733 -119 q 807 -162 767 -162 l 851 -162 l 851 -233 q 761 -253 804 -253 z "},"Ẽ":{"ha":926,"x_min":110,"x_max":851,"o":"m 110 0 l 110 953 l 843 953 l 843 838 l 242 838 l 242 544 l 782 544 l 782 429 l 242 429 l 242 115 l 851 115 l 851 0 l 110 0 m 236 1061 q 264 1163 236 1119 q 354 1206 292 1206 q 461 1184 413 1206 q 561 1163 510 1163 q 600 1206 596 1163 l 690 1206 q 663 1104 690 1147 q 572 1061 635 1061 q 466 1083 514 1061 q 365 1104 418 1104 q 326 1061 331 1104 l 236 1061 z "},"F":{"ha":849,"x_min":110,"x_max":785,"o":"m 110 0 l 110 953 l 785 953 l 785 838 l 242 838 l 242 535 l 735 535 l 735 419 l 242 419 l 242 0 l 110 0 z "},"G":{"ha":1081,"x_min":65,"x_max":982,"o":"m 538 -17 q 185 106 306 -17 q 65 476 65 228 q 187 847 65 725 q 546 969 308 969 q 858 885 735 969 q 982 628 982 800 l 847 628 q 764 802 847 747 q 546 857 681 857 q 290 770 376 857 q 203 476 203 683 l 203 474 q 289 181 204 267 q 538 96 374 96 q 774 163 699 96 q 850 367 850 231 l 850 436 l 906 381 l 514 381 l 514 496 l 982 496 l 982 0 l 879 0 l 869 106 q 726 13 813 42 q 538 -17 640 -17 z "},"Ǵ":{"ha":1081,"x_min":65,"x_max":982,"o":"m 538 -17 q 185 106 306 -17 q 65 476 65 228 q 187 847 65 725 q 546 969 308 969 q 858 885 735 969 q 982 628 982 800 l 847 628 q 764 802 847 747 q 546 857 681 857 q 290 770 376 857 q 203 476 203 683 l 203 474 q 289 181 204 267 q 538 96 374 96 q 774 163 699 96 q 850 367 850 231 l 850 436 l 906 381 l 514 381 l 514 496 l 982 496 l 982 0 l 879 0 l 869 106 q 726 13 813 42 q 538 -17 640 -17 m 488 1022 l 607 1206 l 740 1206 l 742 1201 l 592 1022 l 488 1022 z "},"Ğ":{"ha":1081,"x_min":65,"x_max":982,"o":"m 538 -17 q 185 106 306 -17 q 65 476 65 228 q 187 847 65 725 q 546 969 308 969 q 858 885 735 969 q 982 628 982 800 l 847 628 q 764 802 847 747 q 546 857 681 857 q 290 770 376 857 q 203 476 203 683 l 203 474 q 289 181 204 267 q 538 96 374 96 q 774 163 699 96 q 850 367 850 231 l 850 436 l 906 381 l 514 381 l 514 496 l 982 496 l 982 0 l 879 0 l 869 106 q 726 13 813 42 q 538 -17 640 -17 m 539 1043 q 380 1096 422 1043 q 338 1206 338 1149 l 422 1206 q 450 1157 428 1182 q 539 1132 472 1132 q 630 1157 606 1132 q 657 1206 654 1182 l 742 1206 q 699 1096 742 1149 q 539 1043 656 1043 z "},"Ǧ":{"ha":1081,"x_min":65,"x_max":982,"o":"m 538 -17 q 185 106 306 -17 q 65 476 65 228 q 187 847 65 725 q 546 969 308 969 q 858 885 735 969 q 982 628 982 800 l 847 628 q 764 802 847 747 q 546 857 681 857 q 290 770 376 857 q 203 476 203 683 l 203 474 q 289 181 204 267 q 538 96 374 96 q 774 163 699 96 q 850 367 850 231 l 850 436 l 906 381 l 514 381 l 514 496 l 982 496 l 982 0 l 879 0 l 869 106 q 726 13 813 42 q 538 -17 640 -17 m 482 1018 l 335 1206 l 460 1206 l 540 1096 l 619 1206 l 744 1206 l 599 1018 l 482 1018 z "},"Ĝ":{"ha":1081,"x_min":65,"x_max":982,"o":"m 538 -17 q 185 106 306 -17 q 65 476 65 228 q 187 847 65 725 q 546 969 308 969 q 858 885 735 969 q 982 628 982 800 l 847 628 q 764 802 847 747 q 546 857 681 857 q 290 770 376 857 q 203 476 203 683 l 203 474 q 289 181 204 267 q 538 96 374 96 q 774 163 699 96 q 850 367 850 231 l 850 436 l 906 381 l 514 381 l 514 496 l 982 496 l 982 0 l 879 0 l 869 106 q 726 13 813 42 q 538 -17 640 -17 m 335 1018 l 482 1206 l 599 1206 l 744 1018 l 619 1018 l 540 1128 l 460 1018 l 335 1018 z "},"Ģ":{"ha":1081,"x_min":65,"x_max":982,"o":"m 538 -17 q 185 106 306 -17 q 65 476 65 228 q 187 847 65 725 q 546 969 308 969 q 858 885 735 969 q 982 628 982 800 l 847 628 q 764 802 847 747 q 546 857 681 857 q 290 770 376 857 q 203 476 203 683 l 203 474 q 289 181 204 267 q 538 96 374 96 q 774 163 699 96 q 850 367 850 231 l 850 436 l 906 381 l 514 381 l 514 496 l 982 496 l 982 0 l 879 0 l 869 106 q 726 13 813 42 q 538 -17 640 -17 m 479 -319 l 531 -207 l 479 -207 l 479 -81 l 601 -81 l 601 -197 l 542 -319 l 479 -319 z "},"Ġ":{"ha":1081,"x_min":65,"x_max":982,"o":"m 538 -17 q 185 106 306 -17 q 65 476 65 228 q 187 847 65 725 q 546 969 308 969 q 858 885 735 969 q 982 628 982 800 l 847 628 q 764 802 847 747 q 546 857 681 857 q 290 770 376 857 q 203 476 203 683 l 203 474 q 289 181 204 267 q 538 96 374 96 q 774 163 699 96 q 850 367 850 231 l 850 436 l 906 381 l 514 381 l 514 496 l 982 496 l 982 0 l 879 0 l 869 106 q 726 13 813 42 q 538 -17 640 -17 m 479 1074 l 479 1206 l 600 1206 l 600 1074 l 479 1074 z "},"H":{"ha":1003,"x_min":110,"x_max":893,"o":"m 110 0 l 110 953 l 242 953 l 242 544 l 761 544 l 761 953 l 893 953 l 893 0 l 761 0 l 761 429 l 242 429 l 242 0 l 110 0 z "},"Ħ":{"ha":1003,"x_min":13,"x_max":990,"o":"m 110 0 l 110 731 l 13 731 l 13 831 l 110 831 l 110 953 l 242 953 l 242 831 l 761 831 l 761 953 l 893 953 l 893 831 l 990 831 l 990 731 l 893 731 l 893 0 l 761 0 l 761 429 l 242 429 l 242 0 l 110 0 m 242 544 l 761 544 l 761 731 l 242 731 l 242 544 z "},"Ĥ":{"ha":1003,"x_min":110,"x_max":893,"o":"m 110 0 l 110 953 l 242 953 l 242 544 l 761 544 l 761 953 l 893 953 l 893 0 l 761 0 l 761 429 l 242 429 l 242 0 l 110 0 m 296 1018 l 443 1206 l 560 1206 l 706 1018 l 581 1018 l 501 1128 l 421 1018 l 296 1018 z "},"Ḥ":{"ha":1003,"x_min":110,"x_max":893,"o":"m 110 0 l 110 953 l 242 953 l 242 544 l 761 544 l 761 953 l 893 953 l 893 0 l 761 0 l 761 429 l 242 429 l 242 0 l 110 0 z "},"I":{"ha":386,"x_min":128,"x_max":260,"o":"m 128 0 l 128 953 l 260 953 l 260 0 l 128 0 z "},"Ĳ":{"ha":1081,"x_min":128,"x_max":972,"o":"m 128 0 l 128 953 l 260 953 l 260 0 l 128 0 m 699 -17 q 498 52 569 -17 q 426 254 426 121 l 426 289 l 558 289 l 558 247 q 699 96 558 96 q 840 269 840 96 l 840 953 l 972 953 l 972 276 q 901 56 972 128 q 699 -17 829 -17 z "},"Í":{"ha":386,"x_min":128,"x_max":394,"o":"m 128 0 l 128 953 l 260 953 l 260 0 l 128 0 m 140 1022 l 260 1206 l 393 1206 l 394 1201 l 244 1022 l 140 1022 z "},"Ĭ":{"ha":386,"x_min":-10,"x_max":394,"o":"m 128 0 l 128 953 l 260 953 l 260 0 l 128 0 m 192 1043 q 33 1096 75 1043 q -10 1206 -10 1149 l 75 1206 q 103 1157 81 1182 q 192 1132 125 1132 q 283 1157 258 1132 q 310 1206 307 1182 l 394 1206 q 351 1096 394 1149 q 192 1043 308 1043 z "},"Ǐ":{"ha":386,"x_min":-12,"x_max":397,"o":"m 128 0 l 128 953 l 260 953 l 260 0 l 128 0 m 135 1018 l -12 1206 l 113 1206 l 193 1096 l 272 1206 l 397 1206 l 251 1018 l 135 1018 z "},"Î":{"ha":386,"x_min":-12,"x_max":397,"o":"m 128 0 l 128 953 l 260 953 l 260 0 l 128 0 m -12 1018 l 135 1206 l 251 1206 l 397 1018 l 272 1018 l 193 1128 l 113 1018 l -12 1018 z "},"Ȉ":{"ha":386,"x_min":-53,"x_max":363,"o":"m 128 0 l 128 953 l 260 953 l 260 0 l 128 0 m 257 1022 l 140 1201 l 142 1206 l 276 1206 l 363 1022 l 257 1022 m 64 1022 l -53 1201 l -51 1206 l 83 1206 l 169 1022 l 64 1022 z "},"Ï":{"ha":386,"x_min":3,"x_max":383,"o":"m 128 0 l 128 953 l 260 953 l 260 0 l 128 0 m 263 1074 l 263 1206 l 383 1206 l 383 1074 l 263 1074 m 3 1074 l 3 1206 l 124 1206 l 124 1074 l 3 1074 z "},"İ":{"ha":386,"x_min":128,"x_max":260,"o":"m 128 0 l 128 953 l 260 953 l 260 0 l 128 0 m 132 1074 l 132 1206 l 253 1206 l 253 1074 l 132 1074 z "},"Ị":{"ha":386,"x_min":128,"x_max":260,"o":"m 128 0 l 128 953 l 260 953 l 260 0 l 128 0 z "},"Ì":{"ha":386,"x_min":-10,"x_max":260,"o":"m 128 0 l 128 953 l 260 953 l 260 0 l 128 0 m 140 1022 l -10 1201 l -8 1206 l 125 1206 l 244 1022 l 140 1022 z "},"Ỉ":{"ha":386,"x_min":86,"x_max":313,"o":"m 128 0 l 128 953 l 260 953 l 260 0 l 128 0 m 154 1022 l 154 1107 l 172 1107 q 213 1132 213 1107 q 169 1157 213 1157 l 86 1157 l 86 1211 q 186 1222 133 1222 q 269 1206 226 1222 q 313 1139 313 1190 q 288 1083 313 1101 q 232 1061 263 1064 l 232 1022 l 154 1022 z "},"Ȋ":{"ha":386,"x_min":-10,"x_max":394,"o":"m 128 0 l 128 953 l 260 953 l 260 0 l 128 0 m -10 1043 q 33 1153 -10 1100 q 192 1206 75 1206 q 351 1153 308 1206 q 394 1043 394 1100 l 310 1043 q 283 1091 307 1065 q 192 1117 258 1117 q 103 1091 125 1117 q 75 1043 81 1065 l -10 1043 z "},"Ī":{"ha":386,"x_min":-19,"x_max":404,"o":"m 128 0 l 128 953 l 260 953 l 260 0 l 128 0 m -19 1072 l -19 1172 l 404 1172 l 404 1072 l -19 1072 z "},"Į":{"ha":386,"x_min":57,"x_max":283,"o":"m 128 0 l 128 953 l 260 953 l 260 0 l 128 0 z "},"Ĩ":{"ha":386,"x_min":-35,"x_max":419,"o":"m 128 0 l 128 953 l 260 953 l 260 0 l 128 0 m -35 1061 q -7 1163 -35 1119 q 83 1206 21 1206 q 190 1184 142 1206 q 290 1163 239 1163 q 329 1206 325 1163 l 419 1206 q 392 1104 419 1147 q 301 1061 364 1061 q 195 1083 243 1061 q 94 1104 147 1104 q 56 1061 60 1104 l -35 1061 z "},"J":{"ha":694,"x_min":40,"x_max":586,"o":"m 313 -17 q 112 52 183 -17 q 40 254 40 121 l 40 289 l 172 289 l 172 247 q 313 96 172 96 q 454 269 454 96 l 454 953 l 586 953 l 586 276 q 515 56 586 128 q 313 -17 443 -17 z "},"Ĵ":{"ha":694,"x_min":40,"x_max":725,"o":"m 313 -17 q 112 52 183 -17 q 40 254 40 121 l 40 289 l 172 289 l 172 247 q 313 96 172 96 q 454 269 454 96 l 454 953 l 586 953 l 586 276 q 515 56 586 128 q 313 -17 443 -17 m 315 1018 l 463 1206 l 579 1206 l 725 1018 l 600 1018 l 521 1128 l 440 1018 l 315 1018 z "},"K":{"ha":926,"x_min":110,"x_max":922,"o":"m 110 0 l 110 953 l 242 953 l 242 428 l 746 953 l 910 953 l 547 572 l 922 0 l 765 0 l 456 478 l 242 278 l 242 0 l 110 0 z "},"Ķ":{"ha":926,"x_min":110,"x_max":922,"o":"m 110 0 l 110 953 l 242 953 l 242 428 l 746 953 l 910 953 l 547 572 l 922 0 l 765 0 l 456 478 l 242 278 l 242 0 l 110 0 m 403 -319 l 454 -207 l 403 -207 l 403 -81 l 525 -81 l 525 -197 l 465 -319 l 403 -319 z "},"L":{"ha":772,"x_min":110,"x_max":731,"o":"m 110 0 l 110 953 l 242 953 l 242 115 l 731 115 l 731 0 l 110 0 z "},"Ǉ":{"ha":1467,"x_min":110,"x_max":1358,"o":"m 110 0 l 110 953 l 242 953 l 242 115 l 731 115 l 731 0 l 110 0 m 1085 -17 q 884 52 956 -17 q 813 254 813 121 l 813 289 l 944 289 l 944 247 q 1085 96 944 96 q 1226 269 1226 96 l 1226 953 l 1358 953 l 1358 276 q 1287 56 1358 128 q 1085 -17 1215 -17 z "},"Ĺ":{"ha":772,"x_min":110,"x_max":731,"o":"m 110 0 l 110 953 l 242 953 l 242 115 l 731 115 l 731 0 l 110 0 m 124 1022 l 243 1206 l 376 1206 l 378 1201 l 228 1022 l 124 1022 z "},"Ľ":{"ha":772,"x_min":110,"x_max":731,"o":"m 444 681 l 492 826 l 444 826 l 444 953 l 563 953 l 563 836 l 506 681 l 444 681 m 110 0 l 110 953 l 242 953 l 242 115 l 731 115 l 731 0 l 110 0 z "},"Ļ":{"ha":772,"x_min":110,"x_max":731,"o":"m 110 0 l 110 953 l 242 953 l 242 115 l 731 115 l 731 0 l 110 0 m 360 -319 l 411 -207 l 360 -207 l 360 -81 l 482 -81 l 482 -197 l 422 -319 l 360 -319 z "},"Ŀ":{"ha":772,"x_min":110,"x_max":731,"o":"m 110 0 l 110 953 l 242 953 l 242 115 l 731 115 l 731 0 l 110 0 m 488 581 l 488 731 l 626 731 l 626 581 l 488 581 z "},"ǈ":{"ha":1081,"x_min":110,"x_max":988,"o":"m 110 0 l 110 953 l 242 953 l 242 115 l 731 115 l 731 0 l 110 0 m 835 -253 q 783 -247 810 -253 q 739 -236 757 -242 l 739 -157 l 800 -157 q 865 -90 865 -157 l 865 731 l 988 731 l 988 -85 q 956 -200 988 -147 q 835 -253 924 -253 m 865 868 l 865 1004 l 988 1004 l 988 868 l 865 868 z "},"Ł":{"ha":772,"x_min":7,"x_max":731,"o":"m 110 0 l 110 368 l 7 300 l 7 413 l 110 481 l 110 953 l 242 953 l 242 568 l 474 722 l 474 608 l 242 454 l 242 115 l 731 115 l 731 0 l 110 0 z "},"M":{"ha":1157,"x_min":110,"x_max":1047,"o":"m 110 0 l 110 953 l 306 953 l 533 303 q 554 240 544 274 q 570 183 564 207 q 576 160 576 160 l 582 160 q 589 185 582 160 q 605 244 596 211 q 624 303 614 278 l 853 953 l 1047 953 l 1047 0 l 915 0 l 915 629 q 916 685 915 642 q 917 767 917 728 q 918 807 918 807 l 908 807 q 901 774 908 807 q 885 715 894 742 l 626 0 l 517 0 l 263 715 q 247 773 254 739 q 239 807 239 807 l 231 807 q 231 771 231 807 q 233 692 232 735 q 233 629 233 649 l 233 0 l 110 0 z "},"N":{"ha":1003,"x_min":110,"x_max":893,"o":"m 110 0 l 110 953 l 228 953 l 731 289 q 747 267 739 278 q 764 244 756 256 l 769 246 q 769 278 769 263 q 769 311 769 294 l 769 953 l 893 953 l 893 0 l 781 0 l 275 672 q 257 697 265 685 q 239 721 249 708 l 233 719 q 233 687 233 703 q 233 654 233 671 l 233 0 l 110 0 z "},"Ǌ":{"ha":1697,"x_min":110,"x_max":1589,"o":"m 110 0 l 110 953 l 228 953 l 731 289 q 747 267 739 278 q 764 244 756 256 l 769 246 q 769 278 769 263 q 769 311 769 294 l 769 953 l 893 953 l 893 0 l 781 0 l 275 672 q 257 697 265 685 q 239 721 249 708 l 233 719 q 233 687 233 703 q 233 654 233 671 l 233 0 l 110 0 m 1315 -17 q 1115 52 1186 -17 q 1043 254 1043 121 l 1043 289 l 1175 289 l 1175 247 q 1315 96 1175 96 q 1457 269 1457 96 l 1457 953 l 1589 953 l 1589 276 q 1517 56 1589 128 q 1315 -17 1446 -17 z "},"Ń":{"ha":1003,"x_min":110,"x_max":893,"o":"m 110 0 l 110 953 l 228 953 l 731 289 q 747 267 739 278 q 764 244 756 256 l 769 246 q 769 278 769 263 q 769 311 769 294 l 769 953 l 893 953 l 893 0 l 781 0 l 275 672 q 257 697 265 685 q 239 721 249 708 l 233 719 q 233 687 233 703 q 233 654 233 671 l 233 0 l 110 0 m 449 1022 l 568 1206 l 701 1206 l 703 1201 l 553 1022 l 449 1022 z "},"Ň":{"ha":1003,"x_min":110,"x_max":893,"o":"m 110 0 l 110 953 l 228 953 l 731 289 q 747 267 739 278 q 764 244 756 256 l 769 246 q 769 278 769 263 q 769 311 769 294 l 769 953 l 893 953 l 893 0 l 781 0 l 275 672 q 257 697 265 685 q 239 721 249 708 l 233 719 q 233 687 233 703 q 233 654 233 671 l 233 0 l 110 0 m 443 1018 l 296 1206 l 421 1206 l 501 1096 l 581 1206 l 706 1206 l 560 1018 l 443 1018 z "},"Ņ":{"ha":1003,"x_min":110,"x_max":893,"o":"m 110 0 l 110 953 l 228 953 l 731 289 q 747 267 739 278 q 764 244 756 256 l 769 246 q 769 278 769 263 q 769 311 769 294 l 769 953 l 893 953 l 893 0 l 781 0 l 275 672 q 257 697 265 685 q 239 721 249 708 l 233 719 q 233 687 233 703 q 233 654 233 671 l 233 0 l 110 0 m 440 -319 l 492 -207 l 440 -207 l 440 -81 l 563 -81 l 563 -197 l 503 -319 l 440 -319 z "},"Ṅ":{"ha":1003,"x_min":110,"x_max":893,"o":"m 110 0 l 110 953 l 228 953 l 731 289 q 747 267 739 278 q 764 244 756 256 l 769 246 q 769 278 769 263 q 769 311 769 294 l 769 953 l 893 953 l 893 0 l 781 0 l 275 672 q 257 697 265 685 q 239 721 249 708 l 233 719 q 233 687 233 703 q 233 654 233 671 l 233 0 l 110 0 m 440 1074 l 440 1206 l 561 1206 l 561 1074 l 440 1074 z "},"Ŋ":{"ha":1003,"x_min":110,"x_max":893,"o":"m 740 -253 q 689 -247 715 -253 q 644 -236 663 -242 l 644 -157 l 704 -157 q 769 -90 769 -157 l 769 0 l 278 674 q 258 697 267 685 q 239 719 250 708 l 233 718 q 235 685 235 701 q 236 653 236 669 l 233 0 l 110 0 l 110 953 l 228 953 l 731 289 q 747 267 739 278 q 764 244 756 256 l 769 246 q 769 278 769 263 q 769 311 769 294 l 769 953 l 893 953 l 893 -85 q 861 -200 893 -147 q 740 -253 829 -253 z "},"Ɲ":{"ha":1003,"x_min":-15,"x_max":893,"o":"m 81 -253 q 29 -247 56 -253 q -15 -236 3 -242 l -15 -157 l 44 -157 q 110 -90 110 -157 l 110 953 l 228 953 l 731 289 q 747 267 739 278 q 764 244 756 256 l 769 246 q 769 278 769 263 q 769 311 769 294 l 769 953 l 893 953 l 893 0 l 781 0 l 294 647 q 267 685 281 667 q 239 721 253 703 l 233 719 q 233 669 233 694 q 233 619 233 644 l 233 -85 q 201 -200 233 -147 q 81 -253 169 -253 z "},"ǋ":{"ha":1311,"x_min":110,"x_max":1218,"o":"m 110 0 l 110 953 l 228 953 l 731 289 q 747 267 739 278 q 764 244 756 256 l 769 246 q 769 278 769 263 q 769 311 769 294 l 769 953 l 893 953 l 893 0 l 781 0 l 275 672 q 257 697 265 685 q 239 721 249 708 l 233 719 q 233 687 233 703 q 233 654 233 671 l 233 0 l 110 0 m 1065 -253 q 1014 -247 1040 -253 q 969 -236 988 -242 l 969 -157 l 1031 -157 q 1096 -90 1096 -157 l 1096 731 l 1218 731 l 1218 -85 q 1186 -200 1218 -147 q 1065 -253 1154 -253 m 1096 868 l 1096 1004 l 1218 1004 l 1218 868 l 1096 868 z "},"Ñ":{"ha":1003,"x_min":110,"x_max":893,"o":"m 110 0 l 110 953 l 228 953 l 731 289 q 747 267 739 278 q 764 244 756 256 l 769 246 q 769 278 769 263 q 769 311 769 294 l 769 953 l 893 953 l 893 0 l 781 0 l 275 672 q 257 697 265 685 q 239 721 249 708 l 233 719 q 233 687 233 703 q 233 654 233 671 l 233 0 l 110 0 m 274 1061 q 301 1163 274 1119 q 392 1206 329 1206 q 499 1184 450 1206 q 599 1163 547 1163 q 638 1206 633 1163 l 728 1206 q 700 1104 728 1147 q 610 1061 672 1061 q 503 1083 551 1061 q 403 1104 456 1104 q 364 1061 368 1104 l 274 1061 z "},"O":{"ha":1081,"x_min":65,"x_max":1017,"o":"m 540 -17 q 191 106 317 -17 q 65 476 65 228 q 191 847 65 725 q 540 969 317 969 q 890 847 764 969 q 1017 476 1017 725 q 890 106 1017 228 q 540 -17 764 -17 m 540 96 q 790 182 699 96 q 881 471 881 268 l 881 476 q 788 770 879 683 q 540 857 697 857 q 293 770 383 857 q 201 476 203 683 l 201 471 q 292 182 201 268 q 540 96 383 96 z "},"Ó":{"ha":1081,"x_min":65,"x_max":1017,"o":"m 540 -17 q 191 106 317 -17 q 65 476 65 228 q 191 847 65 725 q 540 969 317 969 q 890 847 764 969 q 1017 476 1017 725 q 890 106 1017 228 q 540 -17 764 -17 m 540 96 q 790 182 699 96 q 881 471 881 268 l 881 476 q 788 770 879 683 q 540 857 697 857 q 293 770 383 857 q 201 476 203 683 l 201 471 q 292 182 201 268 q 540 96 383 96 m 488 1022 l 607 1206 l 740 1206 l 742 1201 l 592 1022 l 488 1022 z "},"Ŏ":{"ha":1081,"x_min":65,"x_max":1017,"o":"m 540 -17 q 191 106 317 -17 q 65 476 65 228 q 191 847 65 725 q 540 969 317 969 q 890 847 764 969 q 1017 476 1017 725 q 890 106 1017 228 q 540 -17 764 -17 m 540 96 q 790 182 699 96 q 881 471 881 268 l 881 476 q 788 770 879 683 q 540 857 697 857 q 293 770 383 857 q 201 476 203 683 l 201 471 q 292 182 201 268 q 540 96 383 96 m 539 1043 q 380 1096 422 1043 q 338 1206 338 1149 l 422 1206 q 450 1157 428 1182 q 539 1132 472 1132 q 630 1157 606 1132 q 657 1206 654 1182 l 742 1206 q 699 1096 742 1149 q 539 1043 656 1043 z "},"Ǒ":{"ha":1081,"x_min":65,"x_max":1017,"o":"m 540 -17 q 191 106 317 -17 q 65 476 65 228 q 191 847 65 725 q 540 969 317 969 q 890 847 764 969 q 1017 476 1017 725 q 890 106 1017 228 q 540 -17 764 -17 m 540 96 q 790 182 699 96 q 881 471 881 268 l 881 476 q 788 770 879 683 q 540 857 697 857 q 293 770 383 857 q 201 476 203 683 l 201 471 q 292 182 201 268 q 540 96 383 96 m 482 1018 l 335 1206 l 460 1206 l 540 1096 l 619 1206 l 744 1206 l 599 1018 l 482 1018 z "},"Ô":{"ha":1081,"x_min":65,"x_max":1017,"o":"m 540 -17 q 191 106 317 -17 q 65 476 65 228 q 191 847 65 725 q 540 969 317 969 q 890 847 764 969 q 1017 476 1017 725 q 890 106 1017 228 q 540 -17 764 -17 m 540 96 q 790 182 699 96 q 881 471 881 268 l 881 476 q 788 770 879 683 q 540 857 697 857 q 293 770 383 857 q 201 476 203 683 l 201 471 q 292 182 201 268 q 540 96 383 96 m 335 1018 l 482 1206 l 599 1206 l 744 1018 l 619 1018 l 540 1128 l 460 1018 l 335 1018 z "},"Ố":{"ha":1081,"x_min":65,"x_max":1017,"o":"m 540 -17 q 191 106 317 -17 q 65 476 65 228 q 191 847 65 725 q 540 969 317 969 q 890 847 764 969 q 1017 476 1017 725 q 890 106 1017 228 q 540 -17 764 -17 m 540 96 q 790 182 699 96 q 881 471 881 268 l 881 476 q 788 770 879 683 q 540 857 697 857 q 293 770 383 857 q 201 476 203 683 l 201 471 q 292 182 201 268 q 540 96 383 96 m 335 1018 l 482 1206 l 599 1206 l 744 1018 l 619 1018 l 540 1128 l 460 1018 l 335 1018 m 671 1154 l 790 1338 l 924 1338 l 925 1333 l 775 1154 l 671 1154 z "},"Ộ":{"ha":1081,"x_min":65,"x_max":1017,"o":"m 540 -17 q 191 106 317 -17 q 65 476 65 228 q 191 847 65 725 q 540 969 317 969 q 890 847 764 969 q 1017 476 1017 725 q 890 106 1017 228 q 540 -17 764 -17 m 540 96 q 790 182 699 96 q 881 471 881 268 l 881 476 q 788 770 879 683 q 540 857 697 857 q 293 770 383 857 q 201 476 203 683 l 201 471 q 292 182 201 268 q 540 96 383 96 m 335 1018 l 482 1206 l 599 1206 l 744 1018 l 619 1018 l 540 1128 l 460 1018 l 335 1018 z "},"Ồ":{"ha":1081,"x_min":65,"x_max":1017,"o":"m 540 -17 q 191 106 317 -17 q 65 476 65 228 q 191 847 65 725 q 540 969 317 969 q 890 847 764 969 q 1017 476 1017 725 q 890 106 1017 228 q 540 -17 764 -17 m 540 96 q 790 182 699 96 q 881 471 881 268 l 881 476 q 788 770 879 683 q 540 857 697 857 q 293 770 383 857 q 201 476 203 683 l 201 471 q 292 182 201 268 q 540 96 383 96 m 335 1018 l 482 1206 l 599 1206 l 744 1018 l 619 1018 l 540 1128 l 460 1018 l 335 1018 m 726 1154 l 576 1333 l 578 1338 l 711 1338 l 831 1154 l 726 1154 z "},"Ổ":{"ha":1081,"x_min":65,"x_max":1017,"o":"m 540 -17 q 191 106 317 -17 q 65 476 65 228 q 191 847 65 725 q 540 969 317 969 q 890 847 764 969 q 1017 476 1017 725 q 890 106 1017 228 q 540 -17 764 -17 m 540 96 q 790 182 699 96 q 881 471 881 268 l 881 476 q 788 770 879 683 q 540 857 697 857 q 293 770 383 857 q 201 476 203 683 l 201 471 q 292 182 201 268 q 540 96 383 96 m 335 1018 l 482 1206 l 599 1206 l 744 1018 l 619 1018 l 540 1128 l 460 1018 l 335 1018 m 685 1154 l 685 1239 l 703 1239 q 743 1264 743 1239 q 700 1289 743 1289 l 617 1289 l 617 1343 q 717 1354 664 1354 q 800 1338 757 1354 q 843 1271 843 1322 q 818 1215 843 1233 q 763 1193 793 1196 l 763 1154 l 685 1154 z "},"Ỗ":{"ha":1081,"x_min":65,"x_max":1017,"o":"m 540 -17 q 191 106 317 -17 q 65 476 65 228 q 191 847 65 725 q 540 969 317 969 q 890 847 764 969 q 1017 476 1017 725 q 890 106 1017 228 q 540 -17 764 -17 m 540 96 q 790 182 699 96 q 881 471 881 268 l 881 476 q 788 770 879 683 q 540 857 697 857 q 293 770 383 857 q 201 476 203 683 l 201 471 q 292 182 201 268 q 540 96 383 96 m 335 1018 l 482 1206 l 599 1206 l 744 1018 l 619 1018 l 540 1128 l 460 1018 l 335 1018 m 315 1283 q 343 1385 315 1342 q 433 1428 371 1428 q 540 1406 492 1428 q 640 1385 589 1385 q 679 1428 675 1385 l 769 1428 q 742 1326 769 1369 q 651 1283 714 1283 q 545 1305 593 1283 q 444 1326 497 1326 q 406 1283 410 1326 l 315 1283 z "},"Ȍ":{"ha":1081,"x_min":65,"x_max":1017,"o":"m 540 -17 q 191 106 317 -17 q 65 476 65 228 q 191 847 65 725 q 540 969 317 969 q 890 847 764 969 q 1017 476 1017 725 q 890 106 1017 228 q 540 -17 764 -17 m 540 96 q 790 182 699 96 q 881 471 881 268 l 881 476 q 788 770 879 683 q 540 857 697 857 q 293 770 383 857 q 201 476 203 683 l 201 471 q 292 182 201 268 q 540 96 383 96 m 604 1022 l 488 1201 l 489 1206 l 624 1206 l 710 1022 l 604 1022 m 411 1022 l 294 1201 l 296 1206 l 431 1206 l 517 1022 l 411 1022 z "},"Ö":{"ha":1081,"x_min":65,"x_max":1017,"o":"m 540 -17 q 191 106 317 -17 q 65 476 65 228 q 191 847 65 725 q 540 969 317 969 q 890 847 764 969 q 1017 476 1017 725 q 890 106 1017 228 q 540 -17 764 -17 m 540 96 q 790 182 699 96 q 881 471 881 268 l 881 476 q 788 770 879 683 q 540 857 697 857 q 293 770 383 857 q 201 476 203 683 l 201 471 q 292 182 201 268 q 540 96 383 96 m 610 1074 l 610 1206 l 731 1206 l 731 1074 l 610 1074 m 350 1074 l 350 1206 l 471 1206 l 471 1074 l 350 1074 z "},"Ọ":{"ha":1081,"x_min":65,"x_max":1017,"o":"m 540 -17 q 191 106 317 -17 q 65 476 65 228 q 191 847 65 725 q 540 969 317 969 q 890 847 764 969 q 1017 476 1017 725 q 890 106 1017 228 q 540 -17 764 -17 m 540 96 q 790 182 699 96 q 881 471 881 268 l 881 476 q 788 770 879 683 q 540 857 697 857 q 293 770 383 857 q 201 476 203 683 l 201 471 q 292 182 201 268 q 540 96 383 96 z "},"Ò":{"ha":1081,"x_min":65,"x_max":1017,"o":"m 540 -17 q 191 106 317 -17 q 65 476 65 228 q 191 847 65 725 q 540 969 317 969 q 890 847 764 969 q 1017 476 1017 725 q 890 106 1017 228 q 540 -17 764 -17 m 540 96 q 790 182 699 96 q 881 471 881 268 l 881 476 q 788 770 879 683 q 540 857 697 857 q 293 770 383 857 q 201 476 203 683 l 201 471 q 292 182 201 268 q 540 96 383 96 m 488 1022 l 338 1201 l 339 1206 l 472 1206 l 592 1022 l 488 1022 z "},"Ỏ":{"ha":1081,"x_min":65,"x_max":1017,"o":"m 540 -17 q 191 106 317 -17 q 65 476 65 228 q 191 847 65 725 q 540 969 317 969 q 890 847 764 969 q 1017 476 1017 725 q 890 106 1017 228 q 540 -17 764 -17 m 540 96 q 790 182 699 96 q 881 471 881 268 l 881 476 q 788 770 879 683 q 540 857 697 857 q 293 770 383 857 q 201 476 203 683 l 201 471 q 292 182 201 268 q 540 96 383 96 m 501 1022 l 501 1107 l 519 1107 q 560 1132 560 1107 q 517 1157 560 1157 l 433 1157 l 433 1211 q 533 1222 481 1222 q 617 1206 574 1222 q 660 1139 660 1190 q 635 1083 660 1101 q 579 1061 610 1064 l 579 1022 l 501 1022 z "},"Ơ":{"ha":1081,"x_min":65,"x_max":1081,"o":"m 540 -17 q 191 106 317 -17 q 65 476 65 228 q 191 847 65 725 q 540 969 317 969 q 890 847 764 969 q 1017 476 1017 725 q 890 106 1017 228 q 540 -17 764 -17 m 540 96 q 790 182 699 96 q 881 471 881 268 l 881 476 q 788 770 879 683 q 540 857 697 857 q 293 770 383 857 q 201 476 203 683 l 201 471 q 292 182 201 268 q 540 96 383 96 m 800 799 l 800 876 q 994 1056 994 900 l 1081 1075 q 1010 887 1081 958 q 800 799 939 815 m 914 1000 l 914 1150 l 1081 1150 l 1081 1075 l 1024 1000 l 914 1000 z "},"Ớ":{"ha":1081,"x_min":65,"x_max":1081,"o":"m 540 -17 q 191 106 317 -17 q 65 476 65 228 q 191 847 65 725 q 540 969 317 969 q 890 847 764 969 q 1017 476 1017 725 q 890 106 1017 228 q 540 -17 764 -17 m 540 96 q 790 182 699 96 q 881 471 881 268 l 881 476 q 788 770 879 683 q 540 857 697 857 q 293 770 383 857 q 201 476 203 683 l 201 471 q 292 182 201 268 q 540 96 383 96 m 800 799 l 800 876 q 994 1056 994 900 l 1081 1075 q 1010 887 1081 958 q 800 799 939 815 m 914 1000 l 914 1150 l 1081 1150 l 1081 1075 l 1024 1000 l 914 1000 m 488 1022 l 607 1206 l 740 1206 l 742 1201 l 592 1022 l 488 1022 z "},"Ợ":{"ha":1081,"x_min":65,"x_max":1081,"o":"m 540 -17 q 191 106 317 -17 q 65 476 65 228 q 191 847 65 725 q 540 969 317 969 q 890 847 764 969 q 1017 476 1017 725 q 890 106 1017 228 q 540 -17 764 -17 m 540 96 q 790 182 699 96 q 881 471 881 268 l 881 476 q 788 770 879 683 q 540 857 697 857 q 293 770 383 857 q 201 476 203 683 l 201 471 q 292 182 201 268 q 540 96 383 96 m 800 799 l 800 876 q 994 1056 994 900 l 1081 1075 q 1010 887 1081 958 q 800 799 939 815 m 914 1000 l 914 1150 l 1081 1150 l 1081 1075 l 1024 1000 l 914 1000 z "},"Ờ":{"ha":1081,"x_min":65,"x_max":1081,"o":"m 540 -17 q 191 106 317 -17 q 65 476 65 228 q 191 847 65 725 q 540 969 317 969 q 890 847 764 969 q 1017 476 1017 725 q 890 106 1017 228 q 540 -17 764 -17 m 540 96 q 790 182 699 96 q 881 471 881 268 l 881 476 q 788 770 879 683 q 540 857 697 857 q 293 770 383 857 q 201 476 203 683 l 201 471 q 292 182 201 268 q 540 96 383 96 m 800 799 l 800 876 q 994 1056 994 900 l 1081 1075 q 1010 887 1081 958 q 800 799 939 815 m 914 1000 l 914 1150 l 1081 1150 l 1081 1075 l 1024 1000 l 914 1000 m 488 1022 l 338 1201 l 339 1206 l 472 1206 l 592 1022 l 488 1022 z "},"Ở":{"ha":1081,"x_min":65,"x_max":1081,"o":"m 540 -17 q 191 106 317 -17 q 65 476 65 228 q 191 847 65 725 q 540 969 317 969 q 890 847 764 969 q 1017 476 1017 725 q 890 106 1017 228 q 540 -17 764 -17 m 540 96 q 790 182 699 96 q 881 471 881 268 l 881 476 q 788 770 879 683 q 540 857 697 857 q 293 770 383 857 q 201 476 203 683 l 201 471 q 292 182 201 268 q 540 96 383 96 m 800 799 l 800 876 q 994 1056 994 900 l 1081 1075 q 1010 887 1081 958 q 800 799 939 815 m 914 1000 l 914 1150 l 1081 1150 l 1081 1075 l 1024 1000 l 914 1000 m 501 1022 l 501 1107 l 519 1107 q 560 1132 560 1107 q 517 1157 560 1157 l 433 1157 l 433 1211 q 533 1222 481 1222 q 617 1206 574 1222 q 660 1139 660 1190 q 635 1083 660 1101 q 579 1061 610 1064 l 579 1022 l 501 1022 z "},"Ỡ":{"ha":1081,"x_min":65,"x_max":1081,"o":"m 540 -17 q 191 106 317 -17 q 65 476 65 228 q 191 847 65 725 q 540 969 317 969 q 890 847 764 969 q 1017 476 1017 725 q 890 106 1017 228 q 540 -17 764 -17 m 540 96 q 790 182 699 96 q 881 471 881 268 l 881 476 q 788 770 879 683 q 540 857 697 857 q 293 770 383 857 q 201 476 203 683 l 201 471 q 292 182 201 268 q 540 96 383 96 m 800 799 l 800 876 q 994 1056 994 900 l 1081 1075 q 1010 887 1081 958 q 800 799 939 815 m 914 1000 l 914 1150 l 1081 1150 l 1081 1075 l 1024 1000 l 914 1000 m 313 1061 q 340 1163 313 1119 q 431 1206 368 1206 q 538 1184 489 1206 q 638 1163 586 1163 q 676 1206 672 1163 l 767 1206 q 739 1104 767 1147 q 649 1061 711 1061 q 542 1083 590 1061 q 442 1104 494 1104 q 403 1061 407 1104 l 313 1061 z "},"Ő":{"ha":1081,"x_min":65,"x_max":1017,"o":"m 540 -17 q 191 106 317 -17 q 65 476 65 228 q 191 847 65 725 q 540 969 317 969 q 890 847 764 969 q 1017 476 1017 725 q 890 106 1017 228 q 540 -17 764 -17 m 540 96 q 790 182 699 96 q 881 471 881 268 l 881 476 q 788 770 879 683 q 540 857 697 857 q 293 770 383 857 q 201 476 203 683 l 201 471 q 292 182 201 268 q 540 96 383 96 m 583 1022 l 669 1206 l 804 1206 l 806 1201 l 689 1022 l 583 1022 m 390 1022 l 476 1206 l 611 1206 l 613 1201 l 496 1022 l 390 1022 z "},"Ȏ":{"ha":1081,"x_min":65,"x_max":1017,"o":"m 540 -17 q 191 106 317 -17 q 65 476 65 228 q 191 847 65 725 q 540 969 317 969 q 890 847 764 969 q 1017 476 1017 725 q 890 106 1017 228 q 540 -17 764 -17 m 540 96 q 790 182 699 96 q 881 471 881 268 l 881 476 q 788 770 879 683 q 540 857 697 857 q 293 770 383 857 q 201 476 203 683 l 201 471 q 292 182 201 268 q 540 96 383 96 m 338 1043 q 380 1153 338 1100 q 539 1206 422 1206 q 699 1153 656 1206 q 742 1043 742 1100 l 657 1043 q 630 1091 654 1065 q 539 1117 606 1117 q 450 1091 472 1117 q 422 1043 428 1065 l 338 1043 z "},"Ō":{"ha":1081,"x_min":65,"x_max":1017,"o":"m 540 -17 q 191 106 317 -17 q 65 476 65 228 q 191 847 65 725 q 540 969 317 969 q 890 847 764 969 q 1017 476 1017 725 q 890 106 1017 228 q 540 -17 764 -17 m 540 96 q 790 182 699 96 q 881 471 881 268 l 881 476 q 788 770 879 683 q 540 857 697 857 q 293 770 383 857 q 201 476 203 683 l 201 471 q 292 182 201 268 q 540 96 383 96 m 328 1072 l 328 1172 l 751 1172 l 751 1072 l 328 1072 z "},"Ǫ":{"ha":1081,"x_min":65,"x_max":1017,"o":"m 540 -17 q 191 106 317 -17 q 65 476 65 228 q 191 847 65 725 q 540 969 317 969 q 890 847 764 969 q 1017 476 1017 725 q 890 106 1017 228 q 540 -17 764 -17 m 540 96 q 790 182 699 96 q 881 471 881 268 l 881 476 q 788 770 879 683 q 540 857 697 857 q 293 770 383 857 q 201 476 203 683 l 201 471 q 292 182 201 268 q 540 96 383 96 m 715 -253 q 620 -226 667 -253 q 574 -128 574 -200 q 597 -44 574 -76 q 651 17 621 -11 l 735 17 l 735 11 q 701 -30 719 -3 q 682 -86 682 -57 q 699 -139 682 -115 q 756 -162 715 -162 l 800 -162 l 800 -233 q 715 -253 754 -253 z "},"Ø":{"ha":1081,"x_min":65,"x_max":1017,"o":"m 65 -68 l 196 101 q 65 476 65 228 q 191 847 65 725 q 540 969 317 969 q 813 906 703 969 l 900 1021 l 1017 1021 l 886 850 q 1017 476 1017 724 q 890 106 1017 228 q 540 -17 764 -17 q 269 44 378 -17 l 183 -68 l 65 -68 m 274 204 l 739 810 q 540 857 658 857 q 292 771 383 857 q 201 482 201 685 l 201 476 q 274 204 201 297 m 540 96 q 790 182 699 96 q 881 471 881 268 l 881 476 q 862 635 881 568 q 808 747 843 701 l 344 142 q 540 96 421 96 z "},"Ǿ":{"ha":1081,"x_min":65,"x_max":1017,"o":"m 65 -68 l 196 101 q 65 476 65 228 q 191 847 65 725 q 540 969 317 969 q 813 906 703 969 l 900 1021 l 1017 1021 l 886 850 q 1017 476 1017 724 q 890 106 1017 228 q 540 -17 764 -17 q 269 44 378 -17 l 183 -68 l 65 -68 m 274 204 l 739 810 q 540 857 658 857 q 292 771 383 857 q 201 482 201 685 l 201 476 q 274 204 201 297 m 540 96 q 790 182 699 96 q 881 471 881 268 l 881 476 q 862 635 881 568 q 808 747 843 701 l 344 142 q 540 96 421 96 m 488 1022 l 607 1206 l 740 1206 l 742 1201 l 592 1022 l 488 1022 z "},"Õ":{"ha":1081,"x_min":65,"x_max":1017,"o":"m 540 -17 q 191 106 317 -17 q 65 476 65 228 q 191 847 65 725 q 540 969 317 969 q 890 847 764 969 q 1017 476 1017 725 q 890 106 1017 228 q 540 -17 764 -17 m 540 96 q 790 182 699 96 q 881 471 881 268 l 881 476 q 788 770 879 683 q 540 857 697 857 q 293 770 383 857 q 201 476 203 683 l 201 471 q 292 182 201 268 q 540 96 383 96 m 313 1061 q 340 1163 313 1119 q 431 1206 368 1206 q 538 1184 489 1206 q 638 1163 586 1163 q 676 1206 672 1163 l 767 1206 q 739 1104 767 1147 q 649 1061 711 1061 q 542 1083 590 1061 q 442 1104 494 1104 q 403 1061 407 1104 l 313 1061 z "},"Œ":{"ha":1389,"x_min":65,"x_max":1314,"o":"m 446 -17 q 166 106 267 -17 q 65 476 65 228 q 166 847 65 725 q 446 969 267 969 q 704 847 610 969 l 704 953 l 1304 953 l 1304 842 l 836 842 l 836 543 l 1228 543 l 1228 432 l 836 432 l 836 111 l 1314 111 l 1314 0 l 704 0 l 704 106 q 446 -17 611 -17 m 464 96 q 640 181 575 96 q 704 476 704 267 q 640 772 704 686 q 464 857 575 857 q 269 772 336 857 q 201 476 201 686 q 269 181 201 267 q 464 96 336 96 z "},"P":{"ha":926,"x_min":110,"x_max":869,"o":"m 110 0 l 110 953 l 574 953 q 795 872 721 953 q 869 663 869 790 q 790 447 869 529 q 574 365 710 365 l 242 365 l 242 0 l 110 0 m 242 481 l 567 481 q 690 528 644 481 q 736 661 736 576 q 567 838 736 838 l 242 838 l 242 481 z "},"Þ":{"ha":926,"x_min":110,"x_max":869,"o":"m 110 0 l 110 953 l 242 953 l 242 788 l 574 788 q 795 706 721 788 q 869 497 869 625 q 790 282 869 364 q 574 200 710 200 l 242 200 l 242 0 l 110 0 m 242 315 l 567 315 q 690 363 644 315 q 736 496 736 411 q 567 672 736 672 l 242 672 l 242 315 z "},"Q":{"ha":1081,"x_min":65,"x_max":1017,"o":"m 776 -181 l 606 -14 q 574 -16 590 -15 q 540 -17 557 -17 q 191 106 317 -17 q 65 476 65 228 q 191 847 65 725 q 540 969 317 969 q 890 847 764 969 q 1017 476 1017 725 q 949 182 1017 296 q 757 19 881 68 l 963 -181 l 776 -181 m 540 96 q 790 182 699 96 q 881 471 881 268 l 881 476 q 788 770 879 683 q 540 857 697 857 q 293 770 383 857 q 201 476 203 683 l 201 471 q 292 182 201 268 q 540 96 383 96 z "},"R":{"ha":1003,"x_min":110,"x_max":946,"o":"m 110 0 l 110 953 l 606 953 q 827 877 753 953 q 901 682 901 801 q 726 413 901 476 l 946 0 l 799 0 l 592 393 l 242 393 l 242 0 l 110 0 m 242 508 l 599 508 q 722 554 675 508 q 768 681 768 600 q 599 838 768 838 l 242 838 l 242 508 z "},"Ŕ":{"ha":1003,"x_min":110,"x_max":946,"o":"m 110 0 l 110 953 l 606 953 q 827 877 753 953 q 901 682 901 801 q 726 413 901 476 l 946 0 l 799 0 l 592 393 l 242 393 l 242 0 l 110 0 m 242 508 l 599 508 q 722 554 675 508 q 768 681 768 600 q 599 838 768 838 l 242 838 l 242 508 m 449 1022 l 568 1206 l 701 1206 l 703 1201 l 553 1022 l 449 1022 z "},"Ř":{"ha":1003,"x_min":110,"x_max":946,"o":"m 110 0 l 110 953 l 606 953 q 827 877 753 953 q 901 682 901 801 q 726 413 901 476 l 946 0 l 799 0 l 592 393 l 242 393 l 242 0 l 110 0 m 242 508 l 599 508 q 722 554 675 508 q 768 681 768 600 q 599 838 768 838 l 242 838 l 242 508 m 443 1018 l 296 1206 l 421 1206 l 501 1096 l 581 1206 l 706 1206 l 560 1018 l 443 1018 z "},"Ŗ":{"ha":1003,"x_min":110,"x_max":946,"o":"m 110 0 l 110 953 l 606 953 q 827 877 753 953 q 901 682 901 801 q 726 413 901 476 l 946 0 l 799 0 l 592 393 l 242 393 l 242 0 l 110 0 m 242 508 l 599 508 q 722 554 675 508 q 768 681 768 600 q 599 838 768 838 l 242 838 l 242 508 m 440 -319 l 492 -207 l 440 -207 l 440 -81 l 563 -81 l 563 -197 l 503 -319 l 440 -319 z "},"Ȑ":{"ha":1003,"x_min":110,"x_max":946,"o":"m 110 0 l 110 953 l 606 953 q 827 877 753 953 q 901 682 901 801 q 726 413 901 476 l 946 0 l 799 0 l 592 393 l 242 393 l 242 0 l 110 0 m 242 508 l 599 508 q 722 554 675 508 q 768 681 768 600 q 599 838 768 838 l 242 838 l 242 508 m 565 1022 l 449 1201 l 450 1206 l 585 1206 l 671 1022 l 565 1022 m 372 1022 l 256 1201 l 257 1206 l 392 1206 l 478 1022 l 372 1022 z "},"Ṛ":{"ha":1003,"x_min":110,"x_max":946,"o":"m 110 0 l 110 953 l 606 953 q 827 877 753 953 q 901 682 901 801 q 726 413 901 476 l 946 0 l 799 0 l 592 393 l 242 393 l 242 0 l 110 0 m 242 508 l 599 508 q 722 554 675 508 q 768 681 768 600 q 599 838 768 838 l 242 838 l 242 508 z "},"Ȓ":{"ha":1003,"x_min":110,"x_max":946,"o":"m 110 0 l 110 953 l 606 953 q 827 877 753 953 q 901 682 901 801 q 726 413 901 476 l 946 0 l 799 0 l 592 393 l 242 393 l 242 0 l 110 0 m 242 508 l 599 508 q 722 554 675 508 q 768 681 768 600 q 599 838 768 838 l 242 838 l 242 508 m 299 1043 q 341 1153 299 1100 q 500 1206 383 1206 q 660 1153 617 1206 q 703 1043 703 1100 l 618 1043 q 591 1091 615 1065 q 500 1117 567 1117 q 411 1091 433 1117 q 383 1043 389 1065 l 299 1043 z "},"S":{"ha":926,"x_min":68,"x_max":856,"o":"m 461 -17 q 185 48 301 -17 q 68 269 68 113 q 69 285 68 276 q 69 297 69 294 l 200 297 q 199 285 200 296 q 197 268 197 275 q 269 138 197 181 q 454 96 342 96 q 654 137 585 96 q 724 254 724 178 q 660 364 724 328 q 502 422 596 400 q 314 473 408 444 q 156 556 219 501 q 92 714 92 611 q 201 907 92 844 q 463 969 310 969 q 721 907 614 969 q 828 701 828 844 l 828 685 l 699 685 l 699 706 q 633 817 699 778 q 467 857 567 857 q 293 824 361 857 q 225 724 225 792 q 289 621 225 656 q 447 565 353 586 q 634 515 540 543 q 792 431 728 486 q 856 275 856 376 q 743 49 856 114 q 461 -17 631 -17 z "},"Ś":{"ha":926,"x_min":68,"x_max":856,"o":"m 461 -17 q 185 48 301 -17 q 68 269 68 113 q 69 285 68 276 q 69 297 69 294 l 200 297 q 199 285 200 296 q 197 268 197 275 q 269 138 197 181 q 454 96 342 96 q 654 137 585 96 q 724 254 724 178 q 660 364 724 328 q 502 422 596 400 q 314 473 408 444 q 156 556 219 501 q 92 714 92 611 q 201 907 92 844 q 463 969 310 969 q 721 907 614 969 q 828 701 828 844 l 828 685 l 699 685 l 699 706 q 633 817 699 778 q 467 857 567 857 q 293 824 361 857 q 225 724 225 792 q 289 621 225 656 q 447 565 353 586 q 634 515 540 543 q 792 431 728 486 q 856 275 856 376 q 743 49 856 114 q 461 -17 631 -17 m 411 1022 l 531 1206 l 664 1206 l 665 1201 l 515 1022 l 411 1022 z "},"Ꞌ":{"ha":238,"x_min":64,"x_max":203,"o":"m 64 289 l 64 953 l 203 953 l 203 815 l 131 289 l 64 289 z "},"Š":{"ha":926,"x_min":68,"x_max":856,"o":"m 461 -17 q 185 48 301 -17 q 68 269 68 113 q 69 285 68 276 q 69 297 69 294 l 200 297 q 199 285 200 296 q 197 268 197 275 q 269 138 197 181 q 454 96 342 96 q 654 137 585 96 q 724 254 724 178 q 660 364 724 328 q 502 422 596 400 q 314 473 408 444 q 156 556 219 501 q 92 714 92 611 q 201 907 92 844 q 463 969 310 969 q 721 907 614 969 q 828 701 828 844 l 828 685 l 699 685 l 699 706 q 633 817 699 778 q 467 857 567 857 q 293 824 361 857 q 225 724 225 792 q 289 621 225 656 q 447 565 353 586 q 634 515 540 543 q 792 431 728 486 q 856 275 856 376 q 743 49 856 114 q 461 -17 631 -17 m 406 1018 l 258 1206 l 383 1206 l 464 1096 l 543 1206 l 668 1206 l 522 1018 l 406 1018 z "},"Ş":{"ha":926,"x_min":68,"x_max":856,"o":"m 468 -253 q 336 -242 396 -253 l 336 -174 l 475 -174 q 532 -140 532 -174 q 478 -107 532 -107 l 407 -107 l 424 -15 q 172 57 276 -8 q 68 269 68 122 q 69 285 68 276 q 69 297 69 294 l 200 297 q 199 285 200 296 q 197 268 197 275 q 269 138 197 181 q 454 96 342 96 q 654 137 585 96 q 724 254 724 178 q 660 364 724 328 q 502 422 596 400 q 314 473 408 444 q 156 556 219 501 q 92 714 92 611 q 201 907 92 844 q 463 969 310 969 q 721 907 614 969 q 828 701 828 844 l 828 685 l 699 685 l 699 706 q 633 817 699 778 q 467 857 567 857 q 293 824 361 857 q 225 724 225 792 q 289 621 225 656 q 447 565 353 586 q 634 515 540 543 q 792 431 728 486 q 856 275 856 376 q 758 60 856 126 q 510 -15 661 -7 l 504 -50 q 594 -72 556 -53 q 632 -140 632 -92 q 574 -231 632 -210 q 468 -253 517 -253 z "},"Ŝ":{"ha":926,"x_min":68,"x_max":856,"o":"m 461 -17 q 185 48 301 -17 q 68 269 68 113 q 69 285 68 276 q 69 297 69 294 l 200 297 q 199 285 200 296 q 197 268 197 275 q 269 138 197 181 q 454 96 342 96 q 654 137 585 96 q 724 254 724 178 q 660 364 724 328 q 502 422 596 400 q 314 473 408 444 q 156 556 219 501 q 92 714 92 611 q 201 907 92 844 q 463 969 310 969 q 721 907 614 969 q 828 701 828 844 l 828 685 l 699 685 l 699 706 q 633 817 699 778 q 467 857 567 857 q 293 824 361 857 q 225 724 225 792 q 289 621 225 656 q 447 565 353 586 q 634 515 540 543 q 792 431 728 486 q 856 275 856 376 q 743 49 856 114 q 461 -17 631 -17 m 258 1018 l 406 1206 l 522 1206 l 668 1018 l 543 1018 l 464 1128 l 383 1018 l 258 1018 z "},"Ș":{"ha":926,"x_min":68,"x_max":856,"o":"m 461 -17 q 185 48 301 -17 q 68 269 68 113 q 69 285 68 276 q 69 297 69 294 l 200 297 q 199 285 200 296 q 197 268 197 275 q 269 138 197 181 q 454 96 342 96 q 654 137 585 96 q 724 254 724 178 q 660 364 724 328 q 502 422 596 400 q 314 473 408 444 q 156 556 219 501 q 92 714 92 611 q 201 907 92 844 q 463 969 310 969 q 721 907 614 969 q 828 701 828 844 l 828 685 l 699 685 l 699 706 q 633 817 699 778 q 467 857 567 857 q 293 824 361 857 q 225 724 225 792 q 289 621 225 656 q 447 565 353 586 q 634 515 540 543 q 792 431 728 486 q 856 275 856 376 q 743 49 856 114 q 461 -17 631 -17 m 403 -319 l 454 -207 l 403 -207 l 403 -81 l 525 -81 l 525 -197 l 465 -319 l 403 -319 z "},"Ṣ":{"ha":926,"x_min":68,"x_max":856,"o":"m 461 -17 q 185 48 301 -17 q 68 269 68 113 q 69 285 68 276 q 69 297 69 294 l 200 297 q 199 285 200 296 q 197 268 197 275 q 269 138 197 181 q 454 96 342 96 q 654 137 585 96 q 724 254 724 178 q 660 364 724 328 q 502 422 596 400 q 314 473 408 444 q 156 556 219 501 q 92 714 92 611 q 201 907 92 844 q 463 969 310 969 q 721 907 614 969 q 828 701 828 844 l 828 685 l 699 685 l 699 706 q 633 817 699 778 q 467 857 567 857 q 293 824 361 857 q 225 724 225 792 q 289 621 225 656 q 447 565 353 586 q 634 515 540 543 q 792 431 728 486 q 856 275 856 376 q 743 49 856 114 q 461 -17 631 -17 z "},"ẞ":{"ha":1067,"x_min":110,"x_max":985,"o":"m 110 0 l 110 585 q 229 873 110 776 q 544 969 349 969 q 831 896 724 969 q 938 699 938 822 q 901 566 938 624 q 811 488 864 508 l 811 482 q 938 404 892 461 q 985 260 985 347 q 910 75 985 150 q 703 0 835 0 l 394 0 l 394 115 l 685 115 q 808 163 767 115 q 850 267 850 210 q 799 372 850 331 q 657 414 749 414 l 394 414 l 394 529 l 653 529 q 760 572 718 529 q 803 686 803 615 q 744 810 803 764 q 557 857 686 857 q 325 788 408 857 q 242 575 242 719 l 242 0 l 110 0 z "},"Ə":{"ha":1053,"x_min":65,"x_max":983,"o":"m 517 -17 q 183 86 300 -17 q 65 429 65 189 l 65 515 l 847 515 q 751 774 836 690 q 501 857 667 857 q 284 806 376 857 q 192 631 192 754 l 65 631 q 191 885 65 800 q 515 969 317 969 q 866 848 749 969 q 983 469 983 726 q 869 101 983 218 q 517 -17 754 -17 m 528 96 q 751 165 675 96 q 843 393 826 233 l 201 393 q 291 164 201 232 q 528 96 381 96 z "},"T":{"ha":849,"x_min":31,"x_max":818,"o":"m 358 0 l 358 838 l 31 838 l 31 953 l 818 953 l 818 838 l 490 838 l 490 0 l 358 0 z "},"Ŧ":{"ha":849,"x_min":31,"x_max":818,"o":"m 358 0 l 358 529 l 213 529 l 213 629 l 358 629 l 358 838 l 31 838 l 31 953 l 818 953 l 818 838 l 490 838 l 490 629 l 636 629 l 636 529 l 490 529 l 490 0 l 358 0 z "},"Ť":{"ha":849,"x_min":31,"x_max":818,"o":"m 358 0 l 358 838 l 31 838 l 31 953 l 818 953 l 818 838 l 490 838 l 490 0 l 358 0 m 367 1018 l 219 1206 l 344 1206 l 425 1096 l 504 1206 l 629 1206 l 483 1018 l 367 1018 z "},"Ţ":{"ha":849,"x_min":31,"x_max":818,"o":"m 358 0 l 358 838 l 31 838 l 31 953 l 818 953 l 818 838 l 490 838 l 490 0 l 358 0 m 421 -253 q 289 -242 349 -253 l 289 -174 l 428 -174 q 485 -140 485 -174 q 431 -107 485 -107 l 360 -107 l 382 15 l 468 15 l 457 -50 q 547 -72 508 -53 q 585 -140 585 -92 q 527 -231 585 -210 q 421 -253 469 -253 z "},"Ț":{"ha":849,"x_min":31,"x_max":818,"o":"m 358 0 l 358 838 l 31 838 l 31 953 l 818 953 l 818 838 l 490 838 l 490 0 l 358 0 m 364 -319 l 415 -207 l 364 -207 l 364 -81 l 486 -81 l 486 -197 l 426 -319 l 364 -319 z "},"Ṭ":{"ha":849,"x_min":31,"x_max":818,"o":"m 358 0 l 358 838 l 31 838 l 31 953 l 818 953 l 818 838 l 490 838 l 490 0 l 358 0 z "},"U":{"ha":1003,"x_min":110,"x_max":893,"o":"m 500 -17 q 214 71 318 -17 q 110 351 110 158 l 110 953 l 242 953 l 242 344 q 310 159 242 222 q 500 96 378 96 q 692 159 622 96 q 761 344 761 222 l 761 953 l 893 953 l 893 351 q 789 71 893 158 q 500 -17 685 -17 z "},"Ú":{"ha":1003,"x_min":110,"x_max":893,"o":"m 500 -17 q 214 71 318 -17 q 110 351 110 158 l 110 953 l 242 953 l 242 344 q 310 159 242 222 q 500 96 378 96 q 692 159 622 96 q 761 344 761 222 l 761 953 l 893 953 l 893 351 q 789 71 893 158 q 500 -17 685 -17 m 449 1022 l 568 1206 l 701 1206 l 703 1201 l 553 1022 l 449 1022 z "},"Ŭ":{"ha":1003,"x_min":110,"x_max":893,"o":"m 500 -17 q 214 71 318 -17 q 110 351 110 158 l 110 953 l 242 953 l 242 344 q 310 159 242 222 q 500 96 378 96 q 692 159 622 96 q 761 344 761 222 l 761 953 l 893 953 l 893 351 q 789 71 893 158 q 500 -17 685 -17 m 500 1043 q 341 1096 383 1043 q 299 1206 299 1149 l 383 1206 q 411 1157 389 1182 q 500 1132 433 1132 q 591 1157 567 1132 q 618 1206 615 1182 l 703 1206 q 660 1096 703 1149 q 500 1043 617 1043 z "},"Ǔ":{"ha":1003,"x_min":110,"x_max":893,"o":"m 500 -17 q 214 71 318 -17 q 110 351 110 158 l 110 953 l 242 953 l 242 344 q 310 159 242 222 q 500 96 378 96 q 692 159 622 96 q 761 344 761 222 l 761 953 l 893 953 l 893 351 q 789 71 893 158 q 500 -17 685 -17 m 443 1018 l 296 1206 l 421 1206 l 501 1096 l 581 1206 l 706 1206 l 560 1018 l 443 1018 z "},"Û":{"ha":1003,"x_min":110,"x_max":893,"o":"m 500 -17 q 214 71 318 -17 q 110 351 110 158 l 110 953 l 242 953 l 242 344 q 310 159 242 222 q 500 96 378 96 q 692 159 622 96 q 761 344 761 222 l 761 953 l 893 953 l 893 351 q 789 71 893 158 q 500 -17 685 -17 m 296 1018 l 443 1206 l 560 1206 l 706 1018 l 581 1018 l 501 1128 l 421 1018 l 296 1018 z "},"Ȕ":{"ha":1003,"x_min":110,"x_max":893,"o":"m 500 -17 q 214 71 318 -17 q 110 351 110 158 l 110 953 l 242 953 l 242 344 q 310 159 242 222 q 500 96 378 96 q 692 159 622 96 q 761 344 761 222 l 761 953 l 893 953 l 893 351 q 789 71 893 158 q 500 -17 685 -17 m 565 1022 l 449 1201 l 450 1206 l 585 1206 l 671 1022 l 565 1022 m 372 1022 l 256 1201 l 257 1206 l 392 1206 l 478 1022 l 372 1022 z "},"Ü":{"ha":1003,"x_min":110,"x_max":893,"o":"m 500 -17 q 214 71 318 -17 q 110 351 110 158 l 110 953 l 242 953 l 242 344 q 310 159 242 222 q 500 96 378 96 q 692 159 622 96 q 761 344 761 222 l 761 953 l 893 953 l 893 351 q 789 71 893 158 q 500 -17 685 -17 m 571 1074 l 571 1206 l 692 1206 l 692 1074 l 571 1074 m 311 1074 l 311 1206 l 432 1206 l 432 1074 l 311 1074 z "},"Ǘ":{"ha":1003,"x_min":110,"x_max":893,"o":"m 500 -17 q 214 71 318 -17 q 110 351 110 158 l 110 953 l 242 953 l 242 344 q 310 159 242 222 q 500 96 378 96 q 692 159 622 96 q 761 344 761 222 l 761 953 l 893 953 l 893 351 q 789 71 893 158 q 500 -17 685 -17 m 571 1074 l 571 1206 l 692 1206 l 692 1074 l 571 1074 m 311 1074 l 311 1206 l 432 1206 l 432 1074 l 311 1074 m 449 1254 l 568 1438 l 701 1438 l 703 1433 l 553 1254 l 449 1254 z "},"Ǚ":{"ha":1003,"x_min":110,"x_max":893,"o":"m 500 -17 q 214 71 318 -17 q 110 351 110 158 l 110 953 l 242 953 l 242 344 q 310 159 242 222 q 500 96 378 96 q 692 159 622 96 q 761 344 761 222 l 761 953 l 893 953 l 893 351 q 789 71 893 158 q 500 -17 685 -17 m 571 1074 l 571 1206 l 692 1206 l 692 1074 l 571 1074 m 311 1074 l 311 1206 l 432 1206 l 432 1074 l 311 1074 m 443 1250 l 296 1438 l 421 1438 l 501 1328 l 581 1438 l 706 1438 l 560 1250 l 443 1250 z "},"Ǜ":{"ha":1003,"x_min":110,"x_max":893,"o":"m 500 -17 q 214 71 318 -17 q 110 351 110 158 l 110 953 l 242 953 l 242 344 q 310 159 242 222 q 500 96 378 96 q 692 159 622 96 q 761 344 761 222 l 761 953 l 893 953 l 893 351 q 789 71 893 158 q 500 -17 685 -17 m 571 1074 l 571 1206 l 692 1206 l 692 1074 l 571 1074 m 311 1074 l 311 1206 l 432 1206 l 432 1074 l 311 1074 m 449 1254 l 299 1433 l 300 1438 l 433 1438 l 553 1254 l 449 1254 z "},"Ǖ":{"ha":1003,"x_min":110,"x_max":893,"o":"m 500 -17 q 214 71 318 -17 q 110 351 110 158 l 110 953 l 242 953 l 242 344 q 310 159 242 222 q 500 96 378 96 q 692 159 622 96 q 761 344 761 222 l 761 953 l 893 953 l 893 351 q 789 71 893 158 q 500 -17 685 -17 m 571 1074 l 571 1206 l 692 1206 l 692 1074 l 571 1074 m 311 1074 l 311 1206 l 432 1206 l 432 1074 l 311 1074 m 289 1304 l 289 1404 l 713 1404 l 713 1304 l 289 1304 z "},"Ụ":{"ha":1003,"x_min":110,"x_max":893,"o":"m 500 -17 q 214 71 318 -17 q 110 351 110 158 l 110 953 l 242 953 l 242 344 q 310 159 242 222 q 500 96 378 96 q 692 159 622 96 q 761 344 761 222 l 761 953 l 893 953 l 893 351 q 789 71 893 158 q 500 -17 685 -17 z "},"Ù":{"ha":1003,"x_min":110,"x_max":893,"o":"m 500 -17 q 214 71 318 -17 q 110 351 110 158 l 110 953 l 242 953 l 242 344 q 310 159 242 222 q 500 96 378 96 q 692 159 622 96 q 761 344 761 222 l 761 953 l 893 953 l 893 351 q 789 71 893 158 q 500 -17 685 -17 m 449 1022 l 299 1201 l 300 1206 l 433 1206 l 553 1022 l 449 1022 z "},"Ủ":{"ha":1003,"x_min":110,"x_max":893,"o":"m 500 -17 q 214 71 318 -17 q 110 351 110 158 l 110 953 l 242 953 l 242 344 q 310 159 242 222 q 500 96 378 96 q 692 159 622 96 q 761 344 761 222 l 761 953 l 893 953 l 893 351 q 789 71 893 158 q 500 -17 685 -17 m 463 1022 l 463 1107 l 481 1107 q 521 1132 521 1107 q 478 1157 521 1157 l 394 1157 l 394 1211 q 494 1222 442 1222 q 578 1206 535 1222 q 621 1139 621 1190 q 596 1083 621 1101 q 540 1061 571 1064 l 540 1022 l 463 1022 z "},"Ư":{"ha":1003,"x_min":110,"x_max":1058,"o":"m 500 -17 q 214 71 318 -17 q 110 351 110 158 l 110 953 l 242 953 l 242 344 q 310 159 242 222 q 500 96 378 96 q 692 159 622 96 q 761 344 761 222 l 761 953 l 893 953 l 893 351 q 789 71 893 158 q 500 -17 685 -17 m 778 854 l 778 932 q 972 1111 972 956 l 1058 1131 q 988 942 1058 1014 q 778 854 917 871 m 892 1056 l 892 1206 l 1058 1206 l 1058 1131 l 1001 1056 l 892 1056 z "},"Ứ":{"ha":1003,"x_min":110,"x_max":1058,"o":"m 500 -17 q 214 71 318 -17 q 110 351 110 158 l 110 953 l 242 953 l 242 344 q 310 159 242 222 q 500 96 378 96 q 692 159 622 96 q 761 344 761 222 l 761 953 l 893 953 l 893 351 q 789 71 893 158 q 500 -17 685 -17 m 778 854 l 778 932 q 972 1111 972 956 l 1058 1131 q 988 942 1058 1014 q 778 854 917 871 m 892 1056 l 892 1206 l 1058 1206 l 1058 1131 l 1001 1056 l 892 1056 m 449 1022 l 568 1206 l 701 1206 l 703 1201 l 553 1022 l 449 1022 z "},"Ự":{"ha":1003,"x_min":110,"x_max":1058,"o":"m 500 -17 q 214 71 318 -17 q 110 351 110 158 l 110 953 l 242 953 l 242 344 q 310 159 242 222 q 500 96 378 96 q 692 159 622 96 q 761 344 761 222 l 761 953 l 893 953 l 893 351 q 789 71 893 158 q 500 -17 685 -17 m 778 854 l 778 932 q 972 1111 972 956 l 1058 1131 q 988 942 1058 1014 q 778 854 917 871 m 892 1056 l 892 1206 l 1058 1206 l 1058 1131 l 1001 1056 l 892 1056 z "},"Ừ":{"ha":1003,"x_min":110,"x_max":1058,"o":"m 500 -17 q 214 71 318 -17 q 110 351 110 158 l 110 953 l 242 953 l 242 344 q 310 159 242 222 q 500 96 378 96 q 692 159 622 96 q 761 344 761 222 l 761 953 l 893 953 l 893 351 q 789 71 893 158 q 500 -17 685 -17 m 778 854 l 778 932 q 972 1111 972 956 l 1058 1131 q 988 942 1058 1014 q 778 854 917 871 m 892 1056 l 892 1206 l 1058 1206 l 1058 1131 l 1001 1056 l 892 1056 m 449 1022 l 299 1201 l 300 1206 l 433 1206 l 553 1022 l 449 1022 z "},"Ử":{"ha":1003,"x_min":110,"x_max":1058,"o":"m 500 -17 q 214 71 318 -17 q 110 351 110 158 l 110 953 l 242 953 l 242 344 q 310 159 242 222 q 500 96 378 96 q 692 159 622 96 q 761 344 761 222 l 761 953 l 893 953 l 893 351 q 789 71 893 158 q 500 -17 685 -17 m 778 854 l 778 932 q 972 1111 972 956 l 1058 1131 q 988 942 1058 1014 q 778 854 917 871 m 892 1056 l 892 1206 l 1058 1206 l 1058 1131 l 1001 1056 l 892 1056 m 463 1022 l 463 1107 l 481 1107 q 521 1132 521 1107 q 478 1157 521 1157 l 394 1157 l 394 1211 q 494 1222 442 1222 q 578 1206 535 1222 q 621 1139 621 1190 q 596 1083 621 1101 q 540 1061 571 1064 l 540 1022 l 463 1022 z "},"Ữ":{"ha":1003,"x_min":110,"x_max":1058,"o":"m 500 -17 q 214 71 318 -17 q 110 351 110 158 l 110 953 l 242 953 l 242 344 q 310 159 242 222 q 500 96 378 96 q 692 159 622 96 q 761 344 761 222 l 761 953 l 893 953 l 893 351 q 789 71 893 158 q 500 -17 685 -17 m 778 854 l 778 932 q 972 1111 972 956 l 1058 1131 q 988 942 1058 1014 q 778 854 917 871 m 892 1056 l 892 1206 l 1058 1206 l 1058 1131 l 1001 1056 l 892 1056 m 274 1061 q 301 1163 274 1119 q 392 1206 329 1206 q 499 1184 450 1206 q 599 1163 547 1163 q 638 1206 633 1163 l 728 1206 q 700 1104 728 1147 q 610 1061 672 1061 q 503 1083 551 1061 q 403 1104 456 1104 q 364 1061 368 1104 l 274 1061 z "},"Ű":{"ha":1003,"x_min":110,"x_max":893,"o":"m 500 -17 q 214 71 318 -17 q 110 351 110 158 l 110 953 l 242 953 l 242 344 q 310 159 242 222 q 500 96 378 96 q 692 159 622 96 q 761 344 761 222 l 761 953 l 893 953 l 893 351 q 789 71 893 158 q 500 -17 685 -17 m 544 1022 l 631 1206 l 765 1206 l 767 1201 l 650 1022 l 544 1022 m 351 1022 l 438 1206 l 572 1206 l 574 1201 l 457 1022 l 351 1022 z "},"Ȗ":{"ha":1003,"x_min":110,"x_max":893,"o":"m 500 -17 q 214 71 318 -17 q 110 351 110 158 l 110 953 l 242 953 l 242 344 q 310 159 242 222 q 500 96 378 96 q 692 159 622 96 q 761 344 761 222 l 761 953 l 893 953 l 893 351 q 789 71 893 158 q 500 -17 685 -17 m 299 1043 q 341 1153 299 1100 q 500 1206 383 1206 q 660 1153 617 1206 q 703 1043 703 1100 l 618 1043 q 591 1091 615 1065 q 500 1117 567 1117 q 411 1091 433 1117 q 383 1043 389 1065 l 299 1043 z "},"Ū":{"ha":1003,"x_min":110,"x_max":893,"o":"m 500 -17 q 214 71 318 -17 q 110 351 110 158 l 110 953 l 242 953 l 242 344 q 310 159 242 222 q 500 96 378 96 q 692 159 622 96 q 761 344 761 222 l 761 953 l 893 953 l 893 351 q 789 71 893 158 q 500 -17 685 -17 m 289 1072 l 289 1172 l 713 1172 l 713 1072 l 289 1072 z "},"Ų":{"ha":1003,"x_min":110,"x_max":893,"o":"m 596 -253 q 501 -226 547 -253 q 454 -128 454 -200 q 466 -65 454 -92 q 497 -17 478 -37 q 213 72 317 -15 q 110 351 110 158 l 110 953 l 242 953 l 242 344 q 310 159 242 222 q 500 96 378 96 q 692 159 622 96 q 761 344 761 222 l 761 953 l 893 953 l 893 351 q 815 97 893 185 q 594 -10 736 10 q 572 -45 582 -25 q 563 -86 563 -65 q 579 -139 563 -115 q 636 -162 596 -162 l 681 -162 l 681 -233 q 596 -253 635 -253 z "},"Ů":{"ha":1003,"x_min":110,"x_max":893,"o":"m 500 -17 q 214 71 318 -17 q 110 351 110 158 l 110 953 l 242 953 l 242 344 q 310 159 242 222 q 500 96 378 96 q 692 159 622 96 q 761 344 761 222 l 761 953 l 893 953 l 893 351 q 789 71 893 158 q 500 -17 685 -17 m 501 988 q 403 1026 439 988 q 368 1121 368 1065 q 403 1215 368 1176 q 501 1254 439 1254 q 599 1215 564 1254 q 635 1121 635 1176 q 599 1026 635 1065 q 501 988 564 988 m 501 1050 q 553 1071 533 1050 q 572 1121 572 1092 q 553 1171 572 1150 q 501 1192 533 1192 q 450 1171 469 1192 q 431 1121 431 1150 q 450 1071 431 1092 q 501 1050 469 1050 z "},"Ũ":{"ha":1003,"x_min":110,"x_max":893,"o":"m 500 -17 q 214 71 318 -17 q 110 351 110 158 l 110 953 l 242 953 l 242 344 q 310 159 242 222 q 500 96 378 96 q 692 159 622 96 q 761 344 761 222 l 761 953 l 893 953 l 893 351 q 789 71 893 158 q 500 -17 685 -17 m 274 1061 q 301 1163 274 1119 q 392 1206 329 1206 q 499 1184 450 1206 q 599 1163 547 1163 q 638 1206 633 1163 l 728 1206 q 700 1104 728 1147 q 610 1061 672 1061 q 503 1083 551 1061 q 403 1104 456 1104 q 364 1061 368 1104 l 274 1061 z "},"V":{"ha":926,"x_min":22,"x_max":904,"o":"m 376 0 l 22 953 l 165 953 l 417 260 q 433 217 425 239 q 448 174 440 196 q 464 132 456 153 l 471 132 q 486 175 478 153 q 503 219 494 197 q 518 263 511 242 l 768 953 l 904 953 l 550 0 l 376 0 z "},"W":{"ha":1311,"x_min":15,"x_max":1296,"o":"m 290 0 l 15 953 l 154 953 l 346 281 q 359 229 350 264 q 375 165 368 194 q 382 135 382 135 l 389 135 q 395 167 389 135 q 408 235 401 200 q 417 281 414 271 l 564 953 l 753 953 l 906 281 q 924 190 913 246 q 935 135 935 135 l 942 135 q 949 165 942 135 q 966 229 957 194 q 979 281 975 264 l 1164 953 l 1296 953 l 1021 0 l 839 0 l 689 668 q 667 769 678 714 q 657 824 657 824 l 650 824 q 640 766 650 824 q 622 668 631 708 l 472 0 l 290 0 z "},"Ẃ":{"ha":1311,"x_min":15,"x_max":1296,"o":"m 290 0 l 15 953 l 154 953 l 346 281 q 359 229 350 264 q 375 165 368 194 q 382 135 382 135 l 389 135 q 395 167 389 135 q 408 235 401 200 q 417 281 414 271 l 564 953 l 753 953 l 906 281 q 924 190 913 246 q 935 135 935 135 l 942 135 q 949 165 942 135 q 966 229 957 194 q 979 281 975 264 l 1164 953 l 1296 953 l 1021 0 l 839 0 l 689 668 q 667 769 678 714 q 657 824 657 824 l 650 824 q 640 766 650 824 q 622 668 631 708 l 472 0 l 290 0 m 603 1022 l 722 1206 l 856 1206 l 857 1201 l 707 1022 l 603 1022 z "},"Ŵ":{"ha":1311,"x_min":15,"x_max":1296,"o":"m 290 0 l 15 953 l 154 953 l 346 281 q 359 229 350 264 q 375 165 368 194 q 382 135 382 135 l 389 135 q 395 167 389 135 q 408 235 401 200 q 417 281 414 271 l 564 953 l 753 953 l 906 281 q 924 190 913 246 q 935 135 935 135 l 942 135 q 949 165 942 135 q 966 229 957 194 q 979 281 975 264 l 1164 953 l 1296 953 l 1021 0 l 839 0 l 689 668 q 667 769 678 714 q 657 824 657 824 l 650 824 q 640 766 650 824 q 622 668 631 708 l 472 0 l 290 0 m 450 1018 l 597 1206 l 714 1206 l 860 1018 l 735 1018 l 656 1128 l 575 1018 l 450 1018 z "},"Ẅ":{"ha":1311,"x_min":15,"x_max":1296,"o":"m 290 0 l 15 953 l 154 953 l 346 281 q 359 229 350 264 q 375 165 368 194 q 382 135 382 135 l 389 135 q 395 167 389 135 q 408 235 401 200 q 417 281 414 271 l 564 953 l 753 953 l 906 281 q 924 190 913 246 q 935 135 935 135 l 942 135 q 949 165 942 135 q 966 229 957 194 q 979 281 975 264 l 1164 953 l 1296 953 l 1021 0 l 839 0 l 689 668 q 667 769 678 714 q 657 824 657 824 l 650 824 q 640 766 650 824 q 622 668 631 708 l 472 0 l 290 0 m 725 1074 l 725 1206 l 846 1206 l 846 1074 l 725 1074 m 465 1074 l 465 1206 l 586 1206 l 586 1074 l 465 1074 z "},"Ẁ":{"ha":1311,"x_min":15,"x_max":1296,"o":"m 290 0 l 15 953 l 154 953 l 346 281 q 359 229 350 264 q 375 165 368 194 q 382 135 382 135 l 389 135 q 395 167 389 135 q 408 235 401 200 q 417 281 414 271 l 564 953 l 753 953 l 906 281 q 924 190 913 246 q 935 135 935 135 l 942 135 q 949 165 942 135 q 966 229 957 194 q 979 281 975 264 l 1164 953 l 1296 953 l 1021 0 l 839 0 l 689 668 q 667 769 678 714 q 657 824 657 824 l 650 824 q 640 766 650 824 q 622 668 631 708 l 472 0 l 290 0 m 603 1022 l 453 1201 l 454 1206 l 588 1206 l 707 1022 l 603 1022 z "},"X":{"ha":926,"x_min":7,"x_max":919,"o":"m 7 0 l 382 499 l 40 953 l 204 953 l 457 613 l 468 613 l 724 953 l 882 953 l 543 500 l 919 0 l 757 0 l 467 390 l 456 390 l 167 0 l 7 0 z "},"Y":{"ha":926,"x_min":22,"x_max":906,"o":"m 399 0 l 399 394 l 22 953 l 182 953 l 465 517 l 472 517 l 754 953 l 906 953 l 531 394 l 531 0 l 399 0 z "},"Ý":{"ha":926,"x_min":22,"x_max":906,"o":"m 399 0 l 399 394 l 22 953 l 182 953 l 465 517 l 472 517 l 754 953 l 906 953 l 531 394 l 531 0 l 399 0 m 411 1022 l 531 1206 l 664 1206 l 665 1201 l 515 1022 l 411 1022 z "},"Ŷ":{"ha":926,"x_min":22,"x_max":906,"o":"m 399 0 l 399 394 l 22 953 l 182 953 l 465 517 l 472 517 l 754 953 l 906 953 l 531 394 l 531 0 l 399 0 m 258 1018 l 406 1206 l 522 1206 l 668 1018 l 543 1018 l 464 1128 l 383 1018 l 258 1018 z "},"Ÿ":{"ha":926,"x_min":22,"x_max":906,"o":"m 399 0 l 399 394 l 22 953 l 182 953 l 465 517 l 472 517 l 754 953 l 906 953 l 531 394 l 531 0 l 399 0 m 533 1074 l 533 1206 l 654 1206 l 654 1074 l 533 1074 m 274 1074 l 274 1206 l 394 1206 l 394 1074 l 274 1074 z "},"Ỵ":{"ha":926,"x_min":22,"x_max":906,"o":"m 399 0 l 399 394 l 22 953 l 182 953 l 465 517 l 472 517 l 754 953 l 906 953 l 531 394 l 531 0 l 399 0 z "},"Ỳ":{"ha":926,"x_min":22,"x_max":906,"o":"m 399 0 l 399 394 l 22 953 l 182 953 l 465 517 l 472 517 l 754 953 l 906 953 l 531 394 l 531 0 l 399 0 m 411 1022 l 261 1201 l 263 1206 l 396 1206 l 515 1022 l 411 1022 z "},"Ỷ":{"ha":926,"x_min":22,"x_max":906,"o":"m 399 0 l 399 394 l 22 953 l 182 953 l 465 517 l 472 517 l 754 953 l 906 953 l 531 394 l 531 0 l 399 0 m 425 1022 l 425 1107 l 443 1107 q 483 1132 483 1107 q 440 1157 483 1157 l 357 1157 l 357 1211 q 457 1222 404 1222 q 540 1206 497 1222 q 583 1139 583 1190 q 558 1083 583 1101 q 503 1061 533 1064 l 503 1022 l 425 1022 z "},"Ȳ":{"ha":926,"x_min":22,"x_max":906,"o":"m 399 0 l 399 394 l 22 953 l 182 953 l 465 517 l 472 517 l 754 953 l 906 953 l 531 394 l 531 0 l 399 0 m 251 1072 l 251 1172 l 675 1172 l 675 1072 l 251 1072 z "},"Ỹ":{"ha":926,"x_min":22,"x_max":906,"o":"m 399 0 l 399 394 l 22 953 l 182 953 l 465 517 l 472 517 l 754 953 l 906 953 l 531 394 l 531 0 l 399 0 m 236 1061 q 264 1163 236 1119 q 354 1206 292 1206 q 461 1184 413 1206 q 561 1163 510 1163 q 600 1206 596 1163 l 690 1206 q 663 1104 690 1147 q 572 1061 635 1061 q 466 1083 514 1061 q 365 1104 418 1104 q 326 1061 331 1104 l 236 1061 z "},"Z":{"ha":849,"x_min":32,"x_max":818,"o":"m 32 0 l 32 68 l 604 838 l 68 838 l 68 953 l 806 953 l 806 885 l 232 115 l 818 115 l 818 0 l 32 0 z "},"Ź":{"ha":849,"x_min":32,"x_max":818,"o":"m 32 0 l 32 68 l 604 838 l 68 838 l 68 953 l 806 953 l 806 885 l 232 115 l 818 115 l 818 0 l 32 0 m 372 1022 l 492 1206 l 625 1206 l 626 1201 l 476 1022 l 372 1022 z "},"Ž":{"ha":849,"x_min":32,"x_max":818,"o":"m 32 0 l 32 68 l 604 838 l 68 838 l 68 953 l 806 953 l 806 885 l 232 115 l 818 115 l 818 0 l 32 0 m 367 1018 l 219 1206 l 344 1206 l 425 1096 l 504 1206 l 629 1206 l 483 1018 l 367 1018 z "},"Ż":{"ha":849,"x_min":32,"x_max":818,"o":"m 32 0 l 32 68 l 604 838 l 68 838 l 68 953 l 806 953 l 806 885 l 232 115 l 818 115 l 818 0 l 32 0 m 364 1074 l 364 1206 l 485 1206 l 485 1074 l 364 1074 z "},"Ẓ":{"ha":849,"x_min":32,"x_max":818,"o":"m 32 0 l 32 68 l 604 838 l 68 838 l 68 953 l 806 953 l 806 885 l 232 115 l 818 115 l 818 0 l 32 0 z "},"a":{"ha":772,"x_min":50,"x_max":763,"o":"m 292 -17 q 190 -2 246 -17 q 92 56 133 13 q 50 189 50 100 q 188 387 50 340 q 536 433 325 433 l 536 514 q 503 609 536 572 q 369 646 471 646 q 238 609 272 646 q 204 531 204 572 l 204 514 l 86 514 q 85 544 85 522 q 167 696 85 644 q 381 747 250 747 q 589 690 519 747 q 658 529 658 632 l 658 133 q 707 85 658 85 l 763 85 l 763 6 q 727 -6 751 0 q 668 -11 703 -11 q 546 93 569 -11 l 536 93 q 434 13 499 42 q 292 -17 369 -17 m 324 85 q 468 133 400 85 q 536 279 536 181 l 536 332 q 276 306 375 332 q 178 196 178 281 q 217 109 178 133 q 324 85 256 85 z "},"á":{"ha":772,"x_min":50,"x_max":763,"o":"m 292 -17 q 190 -2 246 -17 q 92 56 133 13 q 50 189 50 100 q 188 387 50 340 q 536 433 325 433 l 536 514 q 503 609 536 572 q 369 646 471 646 q 238 609 272 646 q 204 531 204 572 l 204 514 l 86 514 q 85 544 85 522 q 167 696 85 644 q 381 747 250 747 q 589 690 519 747 q 658 529 658 632 l 658 133 q 707 85 658 85 l 763 85 l 763 6 q 727 -6 751 0 q 668 -11 703 -11 q 546 93 569 -11 l 536 93 q 434 13 499 42 q 292 -17 369 -17 m 324 85 q 468 133 400 85 q 536 279 536 181 l 536 332 q 276 306 375 332 q 178 196 178 281 q 217 109 178 133 q 324 85 256 85 m 333 821 l 453 1004 l 586 1004 l 588 1000 l 438 821 l 333 821 z "},"ă":{"ha":772,"x_min":50,"x_max":763,"o":"m 292 -17 q 190 -2 246 -17 q 92 56 133 13 q 50 189 50 100 q 188 387 50 340 q 536 433 325 433 l 536 514 q 503 609 536 572 q 369 646 471 646 q 238 609 272 646 q 204 531 204 572 l 204 514 l 86 514 q 85 544 85 522 q 167 696 85 644 q 381 747 250 747 q 589 690 519 747 q 658 529 658 632 l 658 133 q 707 85 658 85 l 763 85 l 763 6 q 727 -6 751 0 q 668 -11 703 -11 q 546 93 569 -11 l 536 93 q 434 13 499 42 q 292 -17 369 -17 m 324 85 q 468 133 400 85 q 536 279 536 181 l 536 332 q 276 306 375 332 q 178 196 178 281 q 217 109 178 133 q 324 85 256 85 m 385 842 q 226 894 268 842 q 183 1004 183 947 l 268 1004 q 296 956 274 981 q 385 931 318 931 q 476 956 451 931 q 503 1004 500 981 l 588 1004 q 544 894 588 947 q 385 842 501 842 z "},"ắ":{"ha":772,"x_min":50,"x_max":763,"o":"m 292 -17 q 190 -2 246 -17 q 92 56 133 13 q 50 189 50 100 q 188 387 50 340 q 536 433 325 433 l 536 514 q 503 609 536 572 q 369 646 471 646 q 238 609 272 646 q 204 531 204 572 l 204 514 l 86 514 q 85 544 85 522 q 167 696 85 644 q 381 747 250 747 q 589 690 519 747 q 658 529 658 632 l 658 133 q 707 85 658 85 l 763 85 l 763 6 q 727 -6 751 0 q 668 -11 703 -11 q 546 93 569 -11 l 536 93 q 434 13 499 42 q 292 -17 369 -17 m 324 85 q 468 133 400 85 q 536 279 536 181 l 536 332 q 276 306 375 332 q 178 196 178 281 q 217 109 178 133 q 324 85 256 85 m 385 842 q 226 894 268 842 q 183 1004 183 947 l 268 1004 q 296 956 274 981 q 385 931 318 931 q 476 956 451 931 q 503 1004 500 981 l 588 1004 q 544 894 588 947 q 385 842 501 842 m 333 1004 l 453 1188 l 586 1188 l 588 1183 l 438 1004 l 333 1004 z "},"ặ":{"ha":772,"x_min":50,"x_max":763,"o":"m 292 -17 q 190 -2 246 -17 q 92 56 133 13 q 50 189 50 100 q 188 387 50 340 q 536 433 325 433 l 536 514 q 503 609 536 572 q 369 646 471 646 q 238 609 272 646 q 204 531 204 572 l 204 514 l 86 514 q 85 544 85 522 q 167 696 85 644 q 381 747 250 747 q 589 690 519 747 q 658 529 658 632 l 658 133 q 707 85 658 85 l 763 85 l 763 6 q 727 -6 751 0 q 668 -11 703 -11 q 546 93 569 -11 l 536 93 q 434 13 499 42 q 292 -17 369 -17 m 324 85 q 468 133 400 85 q 536 279 536 181 l 536 332 q 276 306 375 332 q 178 196 178 281 q 217 109 178 133 q 324 85 256 85 m 385 842 q 226 894 268 842 q 183 1004 183 947 l 268 1004 q 296 956 274 981 q 385 931 318 931 q 476 956 451 931 q 503 1004 500 981 l 588 1004 q 544 894 588 947 q 385 842 501 842 z "},"ằ":{"ha":772,"x_min":50,"x_max":763,"o":"m 292 -17 q 190 -2 246 -17 q 92 56 133 13 q 50 189 50 100 q 188 387 50 340 q 536 433 325 433 l 536 514 q 503 609 536 572 q 369 646 471 646 q 238 609 272 646 q 204 531 204 572 l 204 514 l 86 514 q 85 544 85 522 q 167 696 85 644 q 381 747 250 747 q 589 690 519 747 q 658 529 658 632 l 658 133 q 707 85 658 85 l 763 85 l 763 6 q 727 -6 751 0 q 668 -11 703 -11 q 546 93 569 -11 l 536 93 q 434 13 499 42 q 292 -17 369 -17 m 324 85 q 468 133 400 85 q 536 279 536 181 l 536 332 q 276 306 375 332 q 178 196 178 281 q 217 109 178 133 q 324 85 256 85 m 385 842 q 226 894 268 842 q 183 1004 183 947 l 268 1004 q 296 956 274 981 q 385 931 318 931 q 476 956 451 931 q 503 1004 500 981 l 588 1004 q 544 894 588 947 q 385 842 501 842 m 336 1004 l 186 1183 l 188 1188 l 321 1188 l 440 1004 l 336 1004 z "},"ẳ":{"ha":772,"x_min":50,"x_max":763,"o":"m 292 -17 q 190 -2 246 -17 q 92 56 133 13 q 50 189 50 100 q 188 387 50 340 q 536 433 325 433 l 536 514 q 503 609 536 572 q 369 646 471 646 q 238 609 272 646 q 204 531 204 572 l 204 514 l 86 514 q 85 544 85 522 q 167 696 85 644 q 381 747 250 747 q 589 690 519 747 q 658 529 658 632 l 658 133 q 707 85 658 85 l 763 85 l 763 6 q 727 -6 751 0 q 668 -11 703 -11 q 546 93 569 -11 l 536 93 q 434 13 499 42 q 292 -17 369 -17 m 324 85 q 468 133 400 85 q 536 279 536 181 l 536 332 q 276 306 375 332 q 178 196 178 281 q 217 109 178 133 q 324 85 256 85 m 385 842 q 226 894 268 842 q 183 1004 183 947 l 268 1004 q 296 956 274 981 q 385 931 318 931 q 476 956 451 931 q 503 1004 500 981 l 588 1004 q 544 894 588 947 q 385 842 501 842 m 347 1004 l 347 1089 l 365 1089 q 406 1114 406 1089 q 363 1139 406 1139 l 279 1139 l 279 1193 q 379 1204 326 1204 q 463 1188 419 1204 q 506 1121 506 1172 q 481 1065 506 1083 q 425 1043 456 1046 l 425 1004 l 347 1004 z "},"ẵ":{"ha":772,"x_min":50,"x_max":763,"o":"m 292 -17 q 190 -2 246 -17 q 92 56 133 13 q 50 189 50 100 q 188 387 50 340 q 536 433 325 433 l 536 514 q 503 609 536 572 q 369 646 471 646 q 238 609 272 646 q 204 531 204 572 l 204 514 l 86 514 q 85 544 85 522 q 167 696 85 644 q 381 747 250 747 q 589 690 519 747 q 658 529 658 632 l 658 133 q 707 85 658 85 l 763 85 l 763 6 q 727 -6 751 0 q 668 -11 703 -11 q 546 93 569 -11 l 536 93 q 434 13 499 42 q 292 -17 369 -17 m 324 85 q 468 133 400 85 q 536 279 536 181 l 536 332 q 276 306 375 332 q 178 196 178 281 q 217 109 178 133 q 324 85 256 85 m 385 842 q 226 894 268 842 q 183 1004 183 947 l 268 1004 q 296 956 274 981 q 385 931 318 931 q 476 956 451 931 q 503 1004 500 981 l 588 1004 q 544 894 588 947 q 385 842 501 842 m 161 1082 q 189 1183 161 1140 q 279 1226 217 1226 q 386 1205 338 1226 q 486 1183 435 1183 q 525 1226 521 1183 l 615 1226 q 588 1125 615 1168 q 497 1082 560 1082 q 391 1103 439 1082 q 290 1125 343 1125 q 251 1082 256 1125 l 161 1082 z "},"ǎ":{"ha":772,"x_min":50,"x_max":763,"o":"m 292 -17 q 190 -2 246 -17 q 92 56 133 13 q 50 189 50 100 q 188 387 50 340 q 536 433 325 433 l 536 514 q 503 609 536 572 q 369 646 471 646 q 238 609 272 646 q 204 531 204 572 l 204 514 l 86 514 q 85 544 85 522 q 167 696 85 644 q 381 747 250 747 q 589 690 519 747 q 658 529 658 632 l 658 133 q 707 85 658 85 l 763 85 l 763 6 q 727 -6 751 0 q 668 -11 703 -11 q 546 93 569 -11 l 536 93 q 434 13 499 42 q 292 -17 369 -17 m 324 85 q 468 133 400 85 q 536 279 536 181 l 536 332 q 276 306 375 332 q 178 196 178 281 q 217 109 178 133 q 324 85 256 85 m 328 817 l 181 1004 l 306 1004 l 386 894 l 465 1004 l 590 1004 l 444 817 l 328 817 z "},"â":{"ha":772,"x_min":50,"x_max":763,"o":"m 292 -17 q 190 -2 246 -17 q 92 56 133 13 q 50 189 50 100 q 188 387 50 340 q 536 433 325 433 l 536 514 q 503 609 536 572 q 369 646 471 646 q 238 609 272 646 q 204 531 204 572 l 204 514 l 86 514 q 85 544 85 522 q 167 696 85 644 q 381 747 250 747 q 589 690 519 747 q 658 529 658 632 l 658 133 q 707 85 658 85 l 763 85 l 763 6 q 727 -6 751 0 q 668 -11 703 -11 q 546 93 569 -11 l 536 93 q 434 13 499 42 q 292 -17 369 -17 m 324 85 q 468 133 400 85 q 536 279 536 181 l 536 332 q 276 306 375 332 q 178 196 178 281 q 217 109 178 133 q 324 85 256 85 m 181 817 l 328 1004 l 444 1004 l 590 817 l 465 817 l 386 926 l 306 817 l 181 817 z "},"ấ":{"ha":772,"x_min":50,"x_max":771,"o":"m 292 -17 q 190 -2 246 -17 q 92 56 133 13 q 50 189 50 100 q 188 387 50 340 q 536 433 325 433 l 536 514 q 503 609 536 572 q 369 646 471 646 q 238 609 272 646 q 204 531 204 572 l 204 514 l 86 514 q 85 544 85 522 q 167 696 85 644 q 381 747 250 747 q 589 690 519 747 q 658 529 658 632 l 658 133 q 707 85 658 85 l 763 85 l 763 6 q 727 -6 751 0 q 668 -11 703 -11 q 546 93 569 -11 l 536 93 q 434 13 499 42 q 292 -17 369 -17 m 324 85 q 468 133 400 85 q 536 279 536 181 l 536 332 q 276 306 375 332 q 178 196 178 281 q 217 109 178 133 q 324 85 256 85 m 181 817 l 328 1004 l 444 1004 l 590 817 l 465 817 l 386 926 l 306 817 l 181 817 m 517 953 l 636 1136 l 769 1136 l 771 1132 l 621 953 l 517 953 z "},"ậ":{"ha":772,"x_min":50,"x_max":763,"o":"m 292 -17 q 190 -2 246 -17 q 92 56 133 13 q 50 189 50 100 q 188 387 50 340 q 536 433 325 433 l 536 514 q 503 609 536 572 q 369 646 471 646 q 238 609 272 646 q 204 531 204 572 l 204 514 l 86 514 q 85 544 85 522 q 167 696 85 644 q 381 747 250 747 q 589 690 519 747 q 658 529 658 632 l 658 133 q 707 85 658 85 l 763 85 l 763 6 q 727 -6 751 0 q 668 -11 703 -11 q 546 93 569 -11 l 536 93 q 434 13 499 42 q 292 -17 369 -17 m 324 85 q 468 133 400 85 q 536 279 536 181 l 536 332 q 276 306 375 332 q 178 196 178 281 q 217 109 178 133 q 324 85 256 85 m 181 817 l 328 1004 l 444 1004 l 590 817 l 465 817 l 386 926 l 306 817 l 181 817 z "},"ầ":{"ha":772,"x_min":50,"x_max":763,"o":"m 292 -17 q 190 -2 246 -17 q 92 56 133 13 q 50 189 50 100 q 188 387 50 340 q 536 433 325 433 l 536 514 q 503 609 536 572 q 369 646 471 646 q 238 609 272 646 q 204 531 204 572 l 204 514 l 86 514 q 85 544 85 522 q 167 696 85 644 q 381 747 250 747 q 589 690 519 747 q 658 529 658 632 l 658 133 q 707 85 658 85 l 763 85 l 763 6 q 727 -6 751 0 q 668 -11 703 -11 q 546 93 569 -11 l 536 93 q 434 13 499 42 q 292 -17 369 -17 m 324 85 q 468 133 400 85 q 536 279 536 181 l 536 332 q 276 306 375 332 q 178 196 178 281 q 217 109 178 133 q 324 85 256 85 m 181 817 l 328 1004 l 444 1004 l 590 817 l 465 817 l 386 926 l 306 817 l 181 817 m 572 953 l 422 1132 l 424 1136 l 557 1136 l 676 953 l 572 953 z "},"ẩ":{"ha":772,"x_min":50,"x_max":763,"o":"m 292 -17 q 190 -2 246 -17 q 92 56 133 13 q 50 189 50 100 q 188 387 50 340 q 536 433 325 433 l 536 514 q 503 609 536 572 q 369 646 471 646 q 238 609 272 646 q 204 531 204 572 l 204 514 l 86 514 q 85 544 85 522 q 167 696 85 644 q 381 747 250 747 q 589 690 519 747 q 658 529 658 632 l 658 133 q 707 85 658 85 l 763 85 l 763 6 q 727 -6 751 0 q 668 -11 703 -11 q 546 93 569 -11 l 536 93 q 434 13 499 42 q 292 -17 369 -17 m 324 85 q 468 133 400 85 q 536 279 536 181 l 536 332 q 276 306 375 332 q 178 196 178 281 q 217 109 178 133 q 324 85 256 85 m 181 817 l 328 1004 l 444 1004 l 590 817 l 465 817 l 386 926 l 306 817 l 181 817 m 531 953 l 531 1038 l 549 1038 q 589 1063 589 1038 q 546 1088 589 1088 l 463 1088 l 463 1142 q 563 1153 510 1153 q 646 1137 603 1153 q 689 1069 689 1121 q 664 1013 689 1032 q 608 992 639 994 l 608 953 l 531 953 z "},"ẫ":{"ha":772,"x_min":50,"x_max":763,"o":"m 292 -17 q 190 -2 246 -17 q 92 56 133 13 q 50 189 50 100 q 188 387 50 340 q 536 433 325 433 l 536 514 q 503 609 536 572 q 369 646 471 646 q 238 609 272 646 q 204 531 204 572 l 204 514 l 86 514 q 85 544 85 522 q 167 696 85 644 q 381 747 250 747 q 589 690 519 747 q 658 529 658 632 l 658 133 q 707 85 658 85 l 763 85 l 763 6 q 727 -6 751 0 q 668 -11 703 -11 q 546 93 569 -11 l 536 93 q 434 13 499 42 q 292 -17 369 -17 m 324 85 q 468 133 400 85 q 536 279 536 181 l 536 332 q 276 306 375 332 q 178 196 178 281 q 217 109 178 133 q 324 85 256 85 m 181 817 l 328 1004 l 444 1004 l 590 817 l 465 817 l 386 926 l 306 817 l 181 817 m 161 1082 q 189 1183 161 1140 q 279 1226 217 1226 q 386 1205 338 1226 q 486 1183 435 1183 q 525 1226 521 1183 l 615 1226 q 588 1125 615 1168 q 497 1082 560 1082 q 391 1103 439 1082 q 290 1125 343 1125 q 251 1082 256 1125 l 161 1082 z "},"ȁ":{"ha":772,"x_min":50,"x_max":763,"o":"m 292 -17 q 190 -2 246 -17 q 92 56 133 13 q 50 189 50 100 q 188 387 50 340 q 536 433 325 433 l 536 514 q 503 609 536 572 q 369 646 471 646 q 238 609 272 646 q 204 531 204 572 l 204 514 l 86 514 q 85 544 85 522 q 167 696 85 644 q 381 747 250 747 q 589 690 519 747 q 658 529 658 632 l 658 133 q 707 85 658 85 l 763 85 l 763 6 q 727 -6 751 0 q 668 -11 703 -11 q 546 93 569 -11 l 536 93 q 434 13 499 42 q 292 -17 369 -17 m 324 85 q 468 133 400 85 q 536 279 536 181 l 536 332 q 276 306 375 332 q 178 196 178 281 q 217 109 178 133 q 324 85 256 85 m 450 821 l 333 1000 l 335 1004 l 469 1004 l 556 821 l 450 821 m 257 821 l 140 1000 l 142 1004 l 276 1004 l 363 821 l 257 821 z "},"ä":{"ha":772,"x_min":50,"x_max":763,"o":"m 292 -17 q 190 -2 246 -17 q 92 56 133 13 q 50 189 50 100 q 188 387 50 340 q 536 433 325 433 l 536 514 q 503 609 536 572 q 369 646 471 646 q 238 609 272 646 q 204 531 204 572 l 204 514 l 86 514 q 85 544 85 522 q 167 696 85 644 q 381 747 250 747 q 589 690 519 747 q 658 529 658 632 l 658 133 q 707 85 658 85 l 763 85 l 763 6 q 727 -6 751 0 q 668 -11 703 -11 q 546 93 569 -11 l 536 93 q 434 13 499 42 q 292 -17 369 -17 m 324 85 q 468 133 400 85 q 536 279 536 181 l 536 332 q 276 306 375 332 q 178 196 178 281 q 217 109 178 133 q 324 85 256 85 m 456 872 l 456 1004 l 576 1004 l 576 872 l 456 872 m 196 872 l 196 1004 l 317 1004 l 317 872 l 196 872 z "},"ạ":{"ha":772,"x_min":50,"x_max":763,"o":"m 292 -17 q 190 -2 246 -17 q 92 56 133 13 q 50 189 50 100 q 188 387 50 340 q 536 433 325 433 l 536 514 q 503 609 536 572 q 369 646 471 646 q 238 609 272 646 q 204 531 204 572 l 204 514 l 86 514 q 85 544 85 522 q 167 696 85 644 q 381 747 250 747 q 589 690 519 747 q 658 529 658 632 l 658 133 q 707 85 658 85 l 763 85 l 763 6 q 727 -6 751 0 q 668 -11 703 -11 q 546 93 569 -11 l 536 93 q 434 13 499 42 q 292 -17 369 -17 m 324 85 q 468 133 400 85 q 536 279 536 181 l 536 332 q 276 306 375 332 q 178 196 178 281 q 217 109 178 133 q 324 85 256 85 z "},"à":{"ha":772,"x_min":50,"x_max":763,"o":"m 292 -17 q 190 -2 246 -17 q 92 56 133 13 q 50 189 50 100 q 188 387 50 340 q 536 433 325 433 l 536 514 q 503 609 536 572 q 369 646 471 646 q 238 609 272 646 q 204 531 204 572 l 204 514 l 86 514 q 85 544 85 522 q 167 696 85 644 q 381 747 250 747 q 589 690 519 747 q 658 529 658 632 l 658 133 q 707 85 658 85 l 763 85 l 763 6 q 727 -6 751 0 q 668 -11 703 -11 q 546 93 569 -11 l 536 93 q 434 13 499 42 q 292 -17 369 -17 m 324 85 q 468 133 400 85 q 536 279 536 181 l 536 332 q 276 306 375 332 q 178 196 178 281 q 217 109 178 133 q 324 85 256 85 m 333 821 l 183 1000 l 185 1004 l 318 1004 l 438 821 l 333 821 z "},"ả":{"ha":772,"x_min":50,"x_max":763,"o":"m 292 -17 q 190 -2 246 -17 q 92 56 133 13 q 50 189 50 100 q 188 387 50 340 q 536 433 325 433 l 536 514 q 503 609 536 572 q 369 646 471 646 q 238 609 272 646 q 204 531 204 572 l 204 514 l 86 514 q 85 544 85 522 q 167 696 85 644 q 381 747 250 747 q 589 690 519 747 q 658 529 658 632 l 658 133 q 707 85 658 85 l 763 85 l 763 6 q 727 -6 751 0 q 668 -11 703 -11 q 546 93 569 -11 l 536 93 q 434 13 499 42 q 292 -17 369 -17 m 324 85 q 468 133 400 85 q 536 279 536 181 l 536 332 q 276 306 375 332 q 178 196 178 281 q 217 109 178 133 q 324 85 256 85 m 347 821 l 347 906 l 365 906 q 406 931 406 906 q 363 956 406 956 l 279 956 l 279 1010 q 379 1021 326 1021 q 463 1005 419 1021 q 506 938 506 989 q 481 881 506 900 q 425 860 456 863 l 425 821 l 347 821 z "},"ȃ":{"ha":772,"x_min":50,"x_max":763,"o":"m 292 -17 q 190 -2 246 -17 q 92 56 133 13 q 50 189 50 100 q 188 387 50 340 q 536 433 325 433 l 536 514 q 503 609 536 572 q 369 646 471 646 q 238 609 272 646 q 204 531 204 572 l 204 514 l 86 514 q 85 544 85 522 q 167 696 85 644 q 381 747 250 747 q 589 690 519 747 q 658 529 658 632 l 658 133 q 707 85 658 85 l 763 85 l 763 6 q 727 -6 751 0 q 668 -11 703 -11 q 546 93 569 -11 l 536 93 q 434 13 499 42 q 292 -17 369 -17 m 324 85 q 468 133 400 85 q 536 279 536 181 l 536 332 q 276 306 375 332 q 178 196 178 281 q 217 109 178 133 q 324 85 256 85 m 183 842 q 226 951 183 899 q 385 1004 268 1004 q 544 951 501 1004 q 588 842 588 899 l 503 842 q 476 890 500 864 q 385 915 451 915 q 296 890 318 915 q 268 842 274 864 l 183 842 z "},"ā":{"ha":772,"x_min":50,"x_max":763,"o":"m 292 -17 q 190 -2 246 -17 q 92 56 133 13 q 50 189 50 100 q 188 387 50 340 q 536 433 325 433 l 536 514 q 503 609 536 572 q 369 646 471 646 q 238 609 272 646 q 204 531 204 572 l 204 514 l 86 514 q 85 544 85 522 q 167 696 85 644 q 381 747 250 747 q 589 690 519 747 q 658 529 658 632 l 658 133 q 707 85 658 85 l 763 85 l 763 6 q 727 -6 751 0 q 668 -11 703 -11 q 546 93 569 -11 l 536 93 q 434 13 499 42 q 292 -17 369 -17 m 324 85 q 468 133 400 85 q 536 279 536 181 l 536 332 q 276 306 375 332 q 178 196 178 281 q 217 109 178 133 q 324 85 256 85 m 174 871 l 174 971 l 597 971 l 597 871 l 174 871 z "},"ą":{"ha":772,"x_min":50,"x_max":763,"o":"m 667 -253 q 579 -226 622 -253 q 536 -128 536 -200 q 556 -51 536 -82 q 606 4 576 -19 q 546 93 558 32 l 536 93 q 434 13 499 42 q 292 -17 369 -17 q 190 -2 246 -17 q 92 56 133 13 q 50 189 50 100 q 188 387 50 340 q 536 433 325 433 l 536 514 q 503 609 536 572 q 369 646 471 646 q 238 609 272 646 q 204 531 204 572 l 204 514 l 86 514 q 85 544 85 522 q 167 696 85 644 q 381 747 250 747 q 589 690 519 747 q 658 529 658 632 l 658 133 q 707 85 658 85 l 763 85 l 763 6 q 688 -16 731 0 q 644 -92 644 -32 q 661 -141 644 -119 q 718 -162 678 -162 l 763 -162 l 763 -233 q 714 -248 738 -243 q 667 -253 690 -253 m 324 85 q 468 133 400 85 q 536 279 536 181 l 536 332 q 276 306 375 332 q 178 196 178 281 q 217 109 178 133 q 324 85 256 85 z "},"å":{"ha":772,"x_min":50,"x_max":763,"o":"m 292 -17 q 190 -2 246 -17 q 92 56 133 13 q 50 189 50 100 q 188 387 50 340 q 536 433 325 433 l 536 514 q 503 609 536 572 q 369 646 471 646 q 238 609 272 646 q 204 531 204 572 l 204 514 l 86 514 q 85 544 85 522 q 167 696 85 644 q 381 747 250 747 q 589 690 519 747 q 658 529 658 632 l 658 133 q 707 85 658 85 l 763 85 l 763 6 q 727 -6 751 0 q 668 -11 703 -11 q 546 93 569 -11 l 536 93 q 434 13 499 42 q 292 -17 369 -17 m 324 85 q 468 133 400 85 q 536 279 536 181 l 536 332 q 276 306 375 332 q 178 196 178 281 q 217 109 178 133 q 324 85 256 85 m 386 786 q 288 825 324 786 q 253 919 253 864 q 288 1014 253 975 q 386 1053 324 1053 q 484 1014 449 1053 q 519 919 519 975 q 484 825 519 864 q 386 786 449 786 m 386 849 q 438 869 418 849 q 457 919 457 890 q 438 969 457 949 q 386 990 418 990 q 335 969 354 990 q 315 919 315 949 q 335 869 315 890 q 386 849 354 849 z "},"ǻ":{"ha":772,"x_min":50,"x_max":763,"o":"m 292 -17 q 190 -2 246 -17 q 92 56 133 13 q 50 189 50 100 q 188 387 50 340 q 536 433 325 433 l 536 514 q 503 609 536 572 q 369 646 471 646 q 238 609 272 646 q 204 531 204 572 l 204 514 l 86 514 q 85 544 85 522 q 167 696 85 644 q 381 747 250 747 q 589 690 519 747 q 658 529 658 632 l 658 133 q 707 85 658 85 l 763 85 l 763 6 q 727 -6 751 0 q 668 -11 703 -11 q 546 93 569 -11 l 536 93 q 434 13 499 42 q 292 -17 369 -17 m 324 85 q 468 133 400 85 q 536 279 536 181 l 536 332 q 276 306 375 332 q 178 196 178 281 q 217 109 178 133 q 324 85 256 85 m 386 786 q 288 825 324 786 q 253 919 253 864 q 288 1014 253 975 q 386 1053 324 1053 q 484 1014 449 1053 q 519 919 519 975 q 484 825 519 864 q 386 786 449 786 m 386 849 q 438 869 418 849 q 457 919 457 890 q 438 969 457 949 q 386 990 418 990 q 335 969 354 990 q 315 919 315 949 q 335 869 315 890 q 386 849 354 849 m 335 1086 l 454 1269 l 588 1269 l 589 1265 l 439 1086 l 335 1086 z "},"ã":{"ha":772,"x_min":50,"x_max":763,"o":"m 292 -17 q 190 -2 246 -17 q 92 56 133 13 q 50 189 50 100 q 188 387 50 340 q 536 433 325 433 l 536 514 q 503 609 536 572 q 369 646 471 646 q 238 609 272 646 q 204 531 204 572 l 204 514 l 86 514 q 85 544 85 522 q 167 696 85 644 q 381 747 250 747 q 589 690 519 747 q 658 529 658 632 l 658 133 q 707 85 658 85 l 763 85 l 763 6 q 727 -6 751 0 q 668 -11 703 -11 q 546 93 569 -11 l 536 93 q 434 13 499 42 q 292 -17 369 -17 m 324 85 q 468 133 400 85 q 536 279 536 181 l 536 332 q 276 306 375 332 q 178 196 178 281 q 217 109 178 133 q 324 85 256 85 m 158 860 q 186 961 158 918 q 276 1004 214 1004 q 383 983 335 1004 q 483 961 432 961 q 522 1004 518 961 l 613 1004 q 585 903 613 946 q 494 860 557 860 q 388 881 436 860 q 288 903 340 903 q 249 860 253 903 l 158 860 z "},"æ":{"ha":1235,"x_min":50,"x_max":1181,"o":"m 306 -17 q 197 -2 257 -17 q 94 56 138 13 q 50 189 50 100 q 189 387 50 340 q 539 433 328 433 l 539 514 q 505 609 539 572 q 369 646 471 646 q 238 609 272 646 q 204 531 204 572 l 204 514 l 86 514 q 85 544 85 522 q 167 696 85 644 q 381 747 250 747 q 622 644 553 747 q 874 747 706 747 q 1101 665 1022 747 q 1181 393 1181 583 l 1181 332 l 663 332 q 719 145 669 206 q 874 85 769 85 q 1006 122 950 85 q 1061 249 1061 160 l 1181 249 q 1091 49 1181 115 q 874 -17 1001 -17 q 600 107 678 -17 q 472 15 550 47 q 306 -17 394 -17 m 324 85 q 469 127 400 85 q 539 279 539 169 l 539 332 q 278 306 378 332 q 178 196 178 281 q 217 109 178 133 q 324 85 256 85 m 665 433 l 1053 433 q 1004 597 1053 549 q 874 646 956 646 q 725 597 775 646 q 665 433 675 547 z "},"ǽ":{"ha":1235,"x_min":50,"x_max":1181,"o":"m 306 -17 q 197 -2 257 -17 q 94 56 138 13 q 50 189 50 100 q 189 387 50 340 q 539 433 328 433 l 539 514 q 505 609 539 572 q 369 646 471 646 q 238 609 272 646 q 204 531 204 572 l 204 514 l 86 514 q 85 544 85 522 q 167 696 85 644 q 381 747 250 747 q 622 644 553 747 q 874 747 706 747 q 1101 665 1022 747 q 1181 393 1181 583 l 1181 332 l 663 332 q 719 145 669 206 q 874 85 769 85 q 1006 122 950 85 q 1061 249 1061 160 l 1181 249 q 1091 49 1181 115 q 874 -17 1001 -17 q 600 107 678 -17 q 472 15 550 47 q 306 -17 394 -17 m 324 85 q 469 127 400 85 q 539 279 539 169 l 539 332 q 278 306 378 332 q 178 196 178 281 q 217 109 178 133 q 324 85 256 85 m 665 433 l 1053 433 q 1004 597 1053 549 q 874 646 956 646 q 725 597 775 646 q 665 433 675 547 m 565 821 l 685 1004 l 818 1004 l 819 1000 l 669 821 l 565 821 z "},"b":{"ha":772,"x_min":93,"x_max":724,"o":"m 435 -17 q 304 13 364 -17 q 208 99 244 42 l 200 99 l 185 0 l 93 0 l 93 1004 l 215 1004 l 215 647 l 224 647 q 446 747 292 747 q 647 656 569 747 q 724 365 724 564 q 647 74 724 164 q 435 -17 569 -17 m 404 85 q 553 146 508 85 q 597 360 597 207 l 597 365 q 552 584 597 522 q 404 646 507 646 q 260 573 304 646 q 215 365 215 500 l 215 360 q 259 156 215 228 q 404 85 303 85 z "},"c":{"ha":694,"x_min":49,"x_max":660,"o":"m 371 -17 q 126 76 204 -17 q 49 365 49 168 q 127 655 49 563 q 371 747 206 747 q 592 674 524 747 q 660 460 660 600 l 535 460 q 501 600 535 554 q 371 646 467 646 q 223 581 271 646 q 175 365 175 517 l 175 360 q 222 148 175 211 q 371 85 268 85 q 503 133 464 85 q 542 271 542 181 l 660 271 q 594 69 660 156 q 371 -17 528 -17 z "},"ć":{"ha":694,"x_min":49,"x_max":660,"o":"m 371 -17 q 126 76 204 -17 q 49 365 49 168 q 127 655 49 563 q 371 747 206 747 q 592 674 524 747 q 660 460 660 600 l 535 460 q 501 600 535 554 q 371 646 467 646 q 223 581 271 646 q 175 365 175 517 l 175 360 q 222 148 175 211 q 371 85 268 85 q 503 133 464 85 q 542 271 542 181 l 660 271 q 594 69 660 156 q 371 -17 528 -17 m 294 821 l 414 1004 l 547 1004 l 549 1000 l 399 821 l 294 821 z "},"č":{"ha":694,"x_min":49,"x_max":660,"o":"m 371 -17 q 126 76 204 -17 q 49 365 49 168 q 127 655 49 563 q 371 747 206 747 q 592 674 524 747 q 660 460 660 600 l 535 460 q 501 600 535 554 q 371 646 467 646 q 223 581 271 646 q 175 365 175 517 l 175 360 q 222 148 175 211 q 371 85 268 85 q 503 133 464 85 q 542 271 542 181 l 660 271 q 594 69 660 156 q 371 -17 528 -17 m 289 817 l 142 1004 l 267 1004 l 347 894 l 426 1004 l 551 1004 l 406 817 l 289 817 z "},"ç":{"ha":694,"x_min":49,"x_max":660,"o":"m 371 -17 q 126 76 204 -17 q 49 365 49 168 q 127 655 49 563 q 371 747 206 747 q 592 674 524 747 q 660 460 660 600 l 535 460 q 501 600 535 554 q 371 646 467 646 q 223 581 271 646 q 175 365 175 517 l 175 360 q 222 148 175 211 q 371 85 268 85 q 503 133 464 85 q 542 271 542 181 l 660 271 q 594 69 660 156 q 371 -17 528 -17 m 343 -253 q 211 -242 271 -253 l 211 -174 l 350 -174 q 407 -140 407 -174 q 353 -107 407 -107 l 282 -107 l 304 15 l 390 15 l 379 -50 q 469 -72 431 -53 q 507 -140 507 -92 q 449 -231 507 -210 q 343 -253 392 -253 z "},"ĉ":{"ha":694,"x_min":49,"x_max":660,"o":"m 371 -17 q 126 76 204 -17 q 49 365 49 168 q 127 655 49 563 q 371 747 206 747 q 592 674 524 747 q 660 460 660 600 l 535 460 q 501 600 535 554 q 371 646 467 646 q 223 581 271 646 q 175 365 175 517 l 175 360 q 222 148 175 211 q 371 85 268 85 q 503 133 464 85 q 542 271 542 181 l 660 271 q 594 69 660 156 q 371 -17 528 -17 m 142 817 l 289 1004 l 406 1004 l 551 817 l 426 817 l 347 926 l 267 817 l 142 817 z "},"ċ":{"ha":694,"x_min":49,"x_max":660,"o":"m 371 -17 q 126 76 204 -17 q 49 365 49 168 q 127 655 49 563 q 371 747 206 747 q 592 674 524 747 q 660 460 660 600 l 535 460 q 501 600 535 554 q 371 646 467 646 q 223 581 271 646 q 175 365 175 517 l 175 360 q 222 148 175 211 q 371 85 268 85 q 503 133 464 85 q 542 271 542 181 l 660 271 q 594 69 660 156 q 371 -17 528 -17 m 286 872 l 286 1004 l 407 1004 l 407 872 l 286 872 z "},"d":{"ha":772,"x_min":49,"x_max":679,"o":"m 338 -17 q 126 74 203 -17 q 49 365 49 164 q 126 656 49 564 q 326 747 203 747 q 549 647 481 747 l 557 647 l 557 1004 l 679 1004 l 679 0 l 588 0 l 572 99 l 564 99 q 468 13 528 42 q 338 -17 408 -17 m 368 85 q 513 156 469 85 q 557 360 557 228 l 557 365 q 513 573 557 500 q 368 646 468 646 q 220 584 265 646 q 175 365 175 522 l 175 360 q 219 146 175 207 q 368 85 264 85 z "},"ð":{"ha":772,"x_min":49,"x_max":724,"o":"m 386 -17 q 135 76 221 -17 q 49 365 49 168 q 138 657 49 567 q 367 747 228 747 q 424 743 397 747 q 474 732 450 739 l 475 733 q 378 850 435 796 l 167 833 l 167 917 l 304 928 q 258 963 282 946 q 210 999 235 981 l 213 1004 l 349 1004 q 428 938 393 971 l 639 951 l 639 868 l 510 860 q 665 638 606 758 q 724 365 724 517 q 638 76 724 168 q 386 -17 551 -17 m 386 85 q 547 151 497 85 q 597 365 597 217 l 597 358 q 547 578 597 511 q 386 646 497 646 q 225 581 275 646 q 175 372 175 517 l 175 365 q 225 151 175 217 q 386 85 275 85 z "},"ď":{"ha":868,"x_min":49,"x_max":875,"o":"m 757 681 l 804 826 l 757 826 l 757 953 l 875 953 l 875 836 l 818 681 l 757 681 m 338 -17 q 126 74 203 -17 q 49 365 49 164 q 126 656 49 564 q 326 747 203 747 q 549 647 481 747 l 557 647 l 557 1004 l 679 1004 l 679 0 l 588 0 l 572 99 l 564 99 q 468 13 528 42 q 338 -17 408 -17 m 368 85 q 513 156 469 85 q 557 360 557 228 l 557 365 q 513 573 557 500 q 368 646 468 646 q 220 584 265 646 q 175 365 175 522 l 175 360 q 219 146 175 207 q 368 85 264 85 z "},"đ":{"ha":772,"x_min":49,"x_max":771,"o":"m 363 828 l 363 914 l 771 914 l 771 828 l 363 828 m 338 -17 q 126 74 203 -17 q 49 365 49 164 q 126 656 49 564 q 326 747 203 747 q 549 647 481 747 l 557 647 l 557 1004 l 679 1004 l 679 0 l 588 0 l 572 99 l 564 99 q 468 13 528 42 q 338 -17 408 -17 m 368 85 q 513 156 469 85 q 557 360 557 228 l 557 365 q 513 573 557 500 q 368 646 468 646 q 220 584 265 646 q 175 365 175 522 l 175 360 q 219 146 175 207 q 368 85 264 85 z "},"ḍ":{"ha":772,"x_min":49,"x_max":679,"o":"m 338 -17 q 126 74 203 -17 q 49 365 49 164 q 126 656 49 564 q 326 747 203 747 q 549 647 481 747 l 557 647 l 557 1004 l 679 1004 l 679 0 l 588 0 l 572 99 l 564 99 q 468 13 528 42 q 338 -17 408 -17 m 368 85 q 513 156 469 85 q 557 360 557 228 l 557 365 q 513 573 557 500 q 368 646 468 646 q 220 584 265 646 q 175 365 175 522 l 175 360 q 219 146 175 207 q 368 85 264 85 z "},"ǳ":{"ha":1467,"x_min":49,"x_max":1432,"o":"m 338 -17 q 126 74 203 -17 q 49 365 49 164 q 126 656 49 564 q 326 747 203 747 q 549 647 481 747 l 557 647 l 557 1004 l 679 1004 l 679 0 l 588 0 l 572 99 l 564 99 q 468 13 528 42 q 338 -17 408 -17 m 368 85 q 513 156 469 85 q 557 360 557 228 l 557 365 q 513 573 557 500 q 368 646 468 646 q 220 584 265 646 q 175 365 175 522 l 175 360 q 219 146 175 207 q 368 85 264 85 m 806 0 l 806 65 l 1229 629 l 835 629 l 835 731 l 1408 731 l 1408 667 l 983 101 l 1432 101 l 1432 0 l 806 0 z "},"ǆ":{"ha":1467,"x_min":49,"x_max":1432,"o":"m 338 -17 q 126 74 203 -17 q 49 365 49 164 q 126 656 49 564 q 326 747 203 747 q 549 647 481 747 l 557 647 l 557 1004 l 679 1004 l 679 0 l 588 0 l 572 99 l 564 99 q 468 13 528 42 q 338 -17 408 -17 m 368 85 q 513 156 469 85 q 557 360 557 228 l 557 365 q 513 573 557 500 q 368 646 468 646 q 220 584 265 646 q 175 365 175 522 l 175 360 q 219 146 175 207 q 368 85 264 85 z "},"e":{"ha":772,"x_min":54,"x_max":718,"o":"m 403 -17 q 140 76 226 -17 q 54 365 54 168 q 141 655 54 563 q 403 747 228 747 q 638 665 557 747 q 718 393 718 583 l 718 332 l 181 332 q 240 145 186 206 q 403 85 293 85 q 541 122 483 85 q 599 249 599 160 l 718 249 q 626 49 718 115 q 403 -17 535 -17 m 183 433 l 590 433 q 539 597 590 549 q 403 646 488 646 q 247 597 300 646 q 183 433 194 547 z "},"é":{"ha":772,"x_min":54,"x_max":718,"o":"m 403 -17 q 140 76 226 -17 q 54 365 54 168 q 141 655 54 563 q 403 747 228 747 q 638 665 557 747 q 718 393 718 583 l 718 332 l 181 332 q 240 145 186 206 q 403 85 293 85 q 541 122 483 85 q 599 249 599 160 l 718 249 q 626 49 718 115 q 403 -17 535 -17 m 183 433 l 590 433 q 539 597 590 549 q 403 646 488 646 q 247 597 300 646 q 183 433 194 547 m 333 821 l 453 1004 l 586 1004 l 588 1000 l 438 821 l 333 821 z "},"ĕ":{"ha":772,"x_min":54,"x_max":718,"o":"m 403 -17 q 140 76 226 -17 q 54 365 54 168 q 141 655 54 563 q 403 747 228 747 q 638 665 557 747 q 718 393 718 583 l 718 332 l 181 332 q 240 145 186 206 q 403 85 293 85 q 541 122 483 85 q 599 249 599 160 l 718 249 q 626 49 718 115 q 403 -17 535 -17 m 183 433 l 590 433 q 539 597 590 549 q 403 646 488 646 q 247 597 300 646 q 183 433 194 547 m 385 842 q 226 894 268 842 q 183 1004 183 947 l 268 1004 q 296 956 274 981 q 385 931 318 931 q 476 956 451 931 q 503 1004 500 981 l 588 1004 q 544 894 588 947 q 385 842 501 842 z "},"ě":{"ha":772,"x_min":54,"x_max":718,"o":"m 403 -17 q 140 76 226 -17 q 54 365 54 168 q 141 655 54 563 q 403 747 228 747 q 638 665 557 747 q 718 393 718 583 l 718 332 l 181 332 q 240 145 186 206 q 403 85 293 85 q 541 122 483 85 q 599 249 599 160 l 718 249 q 626 49 718 115 q 403 -17 535 -17 m 183 433 l 590 433 q 539 597 590 549 q 403 646 488 646 q 247 597 300 646 q 183 433 194 547 m 328 817 l 181 1004 l 306 1004 l 386 894 l 465 1004 l 590 1004 l 444 817 l 328 817 z "},"ê":{"ha":772,"x_min":54,"x_max":718,"o":"m 403 -17 q 140 76 226 -17 q 54 365 54 168 q 141 655 54 563 q 403 747 228 747 q 638 665 557 747 q 718 393 718 583 l 718 332 l 181 332 q 240 145 186 206 q 403 85 293 85 q 541 122 483 85 q 599 249 599 160 l 718 249 q 626 49 718 115 q 403 -17 535 -17 m 183 433 l 590 433 q 539 597 590 549 q 403 646 488 646 q 247 597 300 646 q 183 433 194 547 m 181 817 l 328 1004 l 444 1004 l 590 817 l 465 817 l 386 926 l 306 817 l 181 817 z "},"ế":{"ha":772,"x_min":54,"x_max":771,"o":"m 403 -17 q 140 76 226 -17 q 54 365 54 168 q 141 655 54 563 q 403 747 228 747 q 638 665 557 747 q 718 393 718 583 l 718 332 l 181 332 q 240 145 186 206 q 403 85 293 85 q 541 122 483 85 q 599 249 599 160 l 718 249 q 626 49 718 115 q 403 -17 535 -17 m 183 433 l 590 433 q 539 597 590 549 q 403 646 488 646 q 247 597 300 646 q 183 433 194 547 m 181 817 l 328 1004 l 444 1004 l 590 817 l 465 817 l 386 926 l 306 817 l 181 817 m 517 953 l 636 1136 l 769 1136 l 771 1132 l 621 953 l 517 953 z "},"ệ":{"ha":772,"x_min":54,"x_max":718,"o":"m 403 -17 q 140 76 226 -17 q 54 365 54 168 q 141 655 54 563 q 403 747 228 747 q 638 665 557 747 q 718 393 718 583 l 718 332 l 181 332 q 240 145 186 206 q 403 85 293 85 q 541 122 483 85 q 599 249 599 160 l 718 249 q 626 49 718 115 q 403 -17 535 -17 m 183 433 l 590 433 q 539 597 590 549 q 403 646 488 646 q 247 597 300 646 q 183 433 194 547 m 181 817 l 328 1004 l 444 1004 l 590 817 l 465 817 l 386 926 l 306 817 l 181 817 z "},"ề":{"ha":772,"x_min":54,"x_max":718,"o":"m 403 -17 q 140 76 226 -17 q 54 365 54 168 q 141 655 54 563 q 403 747 228 747 q 638 665 557 747 q 718 393 718 583 l 718 332 l 181 332 q 240 145 186 206 q 403 85 293 85 q 541 122 483 85 q 599 249 599 160 l 718 249 q 626 49 718 115 q 403 -17 535 -17 m 183 433 l 590 433 q 539 597 590 549 q 403 646 488 646 q 247 597 300 646 q 183 433 194 547 m 181 817 l 328 1004 l 444 1004 l 590 817 l 465 817 l 386 926 l 306 817 l 181 817 m 572 953 l 422 1132 l 424 1136 l 557 1136 l 676 953 l 572 953 z "},"ể":{"ha":772,"x_min":54,"x_max":718,"o":"m 403 -17 q 140 76 226 -17 q 54 365 54 168 q 141 655 54 563 q 403 747 228 747 q 638 665 557 747 q 718 393 718 583 l 718 332 l 181 332 q 240 145 186 206 q 403 85 293 85 q 541 122 483 85 q 599 249 599 160 l 718 249 q 626 49 718 115 q 403 -17 535 -17 m 183 433 l 590 433 q 539 597 590 549 q 403 646 488 646 q 247 597 300 646 q 183 433 194 547 m 181 817 l 328 1004 l 444 1004 l 590 817 l 465 817 l 386 926 l 306 817 l 181 817 m 531 953 l 531 1038 l 549 1038 q 589 1063 589 1038 q 546 1088 589 1088 l 463 1088 l 463 1142 q 563 1153 510 1153 q 646 1137 603 1153 q 689 1069 689 1121 q 664 1013 689 1032 q 608 992 639 994 l 608 953 l 531 953 z "},"ễ":{"ha":772,"x_min":54,"x_max":718,"o":"m 403 -17 q 140 76 226 -17 q 54 365 54 168 q 141 655 54 563 q 403 747 228 747 q 638 665 557 747 q 718 393 718 583 l 718 332 l 181 332 q 240 145 186 206 q 403 85 293 85 q 541 122 483 85 q 599 249 599 160 l 718 249 q 626 49 718 115 q 403 -17 535 -17 m 183 433 l 590 433 q 539 597 590 549 q 403 646 488 646 q 247 597 300 646 q 183 433 194 547 m 181 817 l 328 1004 l 444 1004 l 590 817 l 465 817 l 386 926 l 306 817 l 181 817 m 161 1082 q 189 1183 161 1140 q 279 1226 217 1226 q 386 1205 338 1226 q 486 1183 435 1183 q 525 1226 521 1183 l 615 1226 q 588 1125 615 1168 q 497 1082 560 1082 q 391 1103 439 1082 q 290 1125 343 1125 q 251 1082 256 1125 l 161 1082 z "},"ȅ":{"ha":772,"x_min":54,"x_max":718,"o":"m 403 -17 q 140 76 226 -17 q 54 365 54 168 q 141 655 54 563 q 403 747 228 747 q 638 665 557 747 q 718 393 718 583 l 718 332 l 181 332 q 240 145 186 206 q 403 85 293 85 q 541 122 483 85 q 599 249 599 160 l 718 249 q 626 49 718 115 q 403 -17 535 -17 m 183 433 l 590 433 q 539 597 590 549 q 403 646 488 646 q 247 597 300 646 q 183 433 194 547 m 450 821 l 333 1000 l 335 1004 l 469 1004 l 556 821 l 450 821 m 257 821 l 140 1000 l 142 1004 l 276 1004 l 363 821 l 257 821 z "},"ë":{"ha":772,"x_min":54,"x_max":718,"o":"m 403 -17 q 140 76 226 -17 q 54 365 54 168 q 141 655 54 563 q 403 747 228 747 q 638 665 557 747 q 718 393 718 583 l 718 332 l 181 332 q 240 145 186 206 q 403 85 293 85 q 541 122 483 85 q 599 249 599 160 l 718 249 q 626 49 718 115 q 403 -17 535 -17 m 183 433 l 590 433 q 539 597 590 549 q 403 646 488 646 q 247 597 300 646 q 183 433 194 547 m 456 872 l 456 1004 l 576 1004 l 576 872 l 456 872 m 196 872 l 196 1004 l 317 1004 l 317 872 l 196 872 z "},"ė":{"ha":772,"x_min":54,"x_max":718,"o":"m 403 -17 q 140 76 226 -17 q 54 365 54 168 q 141 655 54 563 q 403 747 228 747 q 638 665 557 747 q 718 393 718 583 l 718 332 l 181 332 q 240 145 186 206 q 403 85 293 85 q 541 122 483 85 q 599 249 599 160 l 718 249 q 626 49 718 115 q 403 -17 535 -17 m 183 433 l 590 433 q 539 597 590 549 q 403 646 488 646 q 247 597 300 646 q 183 433 194 547 m 325 872 l 325 1004 l 446 1004 l 446 872 l 325 872 z "},"ẹ":{"ha":772,"x_min":54,"x_max":718,"o":"m 403 -17 q 140 76 226 -17 q 54 365 54 168 q 141 655 54 563 q 403 747 228 747 q 638 665 557 747 q 718 393 718 583 l 718 332 l 181 332 q 240 145 186 206 q 403 85 293 85 q 541 122 483 85 q 599 249 599 160 l 718 249 q 626 49 718 115 q 403 -17 535 -17 m 183 433 l 590 433 q 539 597 590 549 q 403 646 488 646 q 247 597 300 646 q 183 433 194 547 z "},"è":{"ha":772,"x_min":54,"x_max":718,"o":"m 403 -17 q 140 76 226 -17 q 54 365 54 168 q 141 655 54 563 q 403 747 228 747 q 638 665 557 747 q 718 393 718 583 l 718 332 l 181 332 q 240 145 186 206 q 403 85 293 85 q 541 122 483 85 q 599 249 599 160 l 718 249 q 626 49 718 115 q 403 -17 535 -17 m 183 433 l 590 433 q 539 597 590 549 q 403 646 488 646 q 247 597 300 646 q 183 433 194 547 m 333 821 l 183 1000 l 185 1004 l 318 1004 l 438 821 l 333 821 z "},"ẻ":{"ha":772,"x_min":54,"x_max":718,"o":"m 403 -17 q 140 76 226 -17 q 54 365 54 168 q 141 655 54 563 q 403 747 228 747 q 638 665 557 747 q 718 393 718 583 l 718 332 l 181 332 q 240 145 186 206 q 403 85 293 85 q 541 122 483 85 q 599 249 599 160 l 718 249 q 626 49 718 115 q 403 -17 535 -17 m 183 433 l 590 433 q 539 597 590 549 q 403 646 488 646 q 247 597 300 646 q 183 433 194 547 m 347 821 l 347 906 l 365 906 q 406 931 406 906 q 363 956 406 956 l 279 956 l 279 1010 q 379 1021 326 1021 q 463 1005 419 1021 q 506 938 506 989 q 481 881 506 900 q 425 860 456 863 l 425 821 l 347 821 z "},"ȇ":{"ha":772,"x_min":54,"x_max":718,"o":"m 403 -17 q 140 76 226 -17 q 54 365 54 168 q 141 655 54 563 q 403 747 228 747 q 638 665 557 747 q 718 393 718 583 l 718 332 l 181 332 q 240 145 186 206 q 403 85 293 85 q 541 122 483 85 q 599 249 599 160 l 718 249 q 626 49 718 115 q 403 -17 535 -17 m 183 433 l 590 433 q 539 597 590 549 q 403 646 488 646 q 247 597 300 646 q 183 433 194 547 m 183 842 q 226 951 183 899 q 385 1004 268 1004 q 544 951 501 1004 q 588 842 588 899 l 503 842 q 476 890 500 864 q 385 915 451 915 q 296 890 318 915 q 268 842 274 864 l 183 842 z "},"ē":{"ha":772,"x_min":54,"x_max":718,"o":"m 403 -17 q 140 76 226 -17 q 54 365 54 168 q 141 655 54 563 q 403 747 228 747 q 638 665 557 747 q 718 393 718 583 l 718 332 l 181 332 q 240 145 186 206 q 403 85 293 85 q 541 122 483 85 q 599 249 599 160 l 718 249 q 626 49 718 115 q 403 -17 535 -17 m 183 433 l 590 433 q 539 597 590 549 q 403 646 488 646 q 247 597 300 646 q 183 433 194 547 m 174 871 l 174 971 l 597 971 l 597 871 l 174 871 z "},"ę":{"ha":772,"x_min":54,"x_max":718,"o":"m 626 -253 q 533 -224 576 -253 q 490 -118 490 -196 q 501 -46 490 -78 q 525 4 513 -14 q 403 -17 469 -17 q 140 76 226 -17 q 54 365 54 168 q 141 655 54 563 q 403 747 228 747 q 638 665 557 747 q 718 393 718 583 l 718 332 l 181 332 q 240 145 186 206 q 403 85 293 85 q 541 122 483 85 q 599 249 599 160 l 718 249 q 703 157 717 197 q 664 85 690 117 q 622 18 644 61 q 600 -72 600 -25 q 617 -135 600 -107 q 674 -162 633 -162 l 718 -162 l 718 -233 q 626 -253 668 -253 m 183 433 l 590 433 q 539 597 590 549 q 403 646 488 646 q 247 597 300 646 q 183 433 194 547 z "},"ẽ":{"ha":772,"x_min":54,"x_max":718,"o":"m 403 -17 q 140 76 226 -17 q 54 365 54 168 q 141 655 54 563 q 403 747 228 747 q 638 665 557 747 q 718 393 718 583 l 718 332 l 181 332 q 240 145 186 206 q 403 85 293 85 q 541 122 483 85 q 599 249 599 160 l 718 249 q 626 49 718 115 q 403 -17 535 -17 m 183 433 l 590 433 q 539 597 590 549 q 403 646 488 646 q 247 597 300 646 q 183 433 194 547 m 158 860 q 186 961 158 918 q 276 1004 214 1004 q 383 983 335 1004 q 483 961 432 961 q 522 1004 518 961 l 613 1004 q 585 903 613 946 q 494 860 557 860 q 388 881 436 860 q 288 903 340 903 q 249 860 253 903 l 158 860 z "},"f":{"ha":386,"x_min":13,"x_max":382,"o":"m 119 0 l 119 629 l 13 629 l 13 731 l 119 731 l 119 847 q 151 963 119 910 q 278 1015 183 1015 q 335 1010 306 1015 q 382 999 364 1006 l 382 914 l 310 914 q 242 847 242 914 l 242 731 l 382 731 l 382 629 l 242 629 l 242 0 l 119 0 z "},"g":{"ha":772,"x_min":25,"x_max":749,"o":"m 224 -253 q 91 -217 157 -253 q 25 -76 25 -181 q 68 35 25 1 q 143 79 111 68 q 90 124 113 96 q 67 192 67 153 q 113 279 67 253 q 189 313 160 306 q 117 393 144 344 q 90 501 90 442 q 170 683 90 619 q 386 747 250 747 q 525 722 463 747 q 602 781 579 749 q 631 849 625 814 l 747 849 q 708 736 747 783 q 606 674 669 689 q 683 501 683 604 q 603 319 683 383 q 386 256 522 256 l 269 256 q 192 196 192 256 q 269 136 192 136 l 563 136 q 701 82 653 136 q 749 -42 749 28 q 697 -184 749 -115 q 518 -253 644 -253 l 224 -253 m 235 -154 l 521 -154 q 597 -129 567 -154 q 628 -62 628 -104 q 603 4 628 -19 q 539 28 578 28 l 235 28 q 171 4 194 28 q 147 -62 147 -19 q 235 -154 147 -154 m 388 350 q 563 501 563 350 q 388 653 563 653 q 213 501 213 653 q 388 350 213 350 z "},"ǵ":{"ha":772,"x_min":25,"x_max":749,"o":"m 224 -253 q 91 -217 157 -253 q 25 -76 25 -181 q 68 35 25 1 q 143 79 111 68 q 90 124 113 96 q 67 192 67 153 q 113 279 67 253 q 189 313 160 306 q 117 393 144 344 q 90 501 90 442 q 170 683 90 619 q 386 747 250 747 q 525 722 463 747 q 602 781 579 749 q 631 849 625 814 l 747 849 q 708 736 747 783 q 606 674 669 689 q 683 501 683 604 q 603 319 683 383 q 386 256 522 256 l 269 256 q 192 196 192 256 q 269 136 192 136 l 563 136 q 701 82 653 136 q 749 -42 749 28 q 697 -184 749 -115 q 518 -253 644 -253 l 224 -253 m 235 -154 l 521 -154 q 597 -129 567 -154 q 628 -62 628 -104 q 603 4 628 -19 q 539 28 578 28 l 235 28 q 171 4 194 28 q 147 -62 147 -19 q 235 -154 147 -154 m 388 350 q 563 501 563 350 q 388 653 563 653 q 213 501 213 653 q 388 350 213 350 m 333 821 l 453 1004 l 586 1004 l 588 1000 l 438 821 l 333 821 z "},"ğ":{"ha":772,"x_min":25,"x_max":749,"o":"m 224 -253 q 91 -217 157 -253 q 25 -76 25 -181 q 68 35 25 1 q 143 79 111 68 q 90 124 113 96 q 67 192 67 153 q 113 279 67 253 q 189 313 160 306 q 117 393 144 344 q 90 501 90 442 q 170 683 90 619 q 386 747 250 747 q 525 722 463 747 q 602 781 579 749 q 631 849 625 814 l 747 849 q 708 736 747 783 q 606 674 669 689 q 683 501 683 604 q 603 319 683 383 q 386 256 522 256 l 269 256 q 192 196 192 256 q 269 136 192 136 l 563 136 q 701 82 653 136 q 749 -42 749 28 q 697 -184 749 -115 q 518 -253 644 -253 l 224 -253 m 235 -154 l 521 -154 q 597 -129 567 -154 q 628 -62 628 -104 q 603 4 628 -19 q 539 28 578 28 l 235 28 q 171 4 194 28 q 147 -62 147 -19 q 235 -154 147 -154 m 388 350 q 563 501 563 350 q 388 653 563 653 q 213 501 213 653 q 388 350 213 350 m 385 842 q 226 894 268 842 q 183 1004 183 947 l 268 1004 q 296 956 274 981 q 385 931 318 931 q 476 956 451 931 q 503 1004 500 981 l 588 1004 q 544 894 588 947 q 385 842 501 842 z "},"ǧ":{"ha":772,"x_min":25,"x_max":749,"o":"m 224 -253 q 91 -217 157 -253 q 25 -76 25 -181 q 68 35 25 1 q 143 79 111 68 q 90 124 113 96 q 67 192 67 153 q 113 279 67 253 q 189 313 160 306 q 117 393 144 344 q 90 501 90 442 q 170 683 90 619 q 386 747 250 747 q 525 722 463 747 q 602 781 579 749 q 631 849 625 814 l 747 849 q 708 736 747 783 q 606 674 669 689 q 683 501 683 604 q 603 319 683 383 q 386 256 522 256 l 269 256 q 192 196 192 256 q 269 136 192 136 l 563 136 q 701 82 653 136 q 749 -42 749 28 q 697 -184 749 -115 q 518 -253 644 -253 l 224 -253 m 235 -154 l 521 -154 q 597 -129 567 -154 q 628 -62 628 -104 q 603 4 628 -19 q 539 28 578 28 l 235 28 q 171 4 194 28 q 147 -62 147 -19 q 235 -154 147 -154 m 388 350 q 563 501 563 350 q 388 653 563 653 q 213 501 213 653 q 388 350 213 350 m 328 817 l 181 1004 l 306 1004 l 386 894 l 465 1004 l 590 1004 l 444 817 l 328 817 z "},"ĝ":{"ha":772,"x_min":25,"x_max":749,"o":"m 224 -253 q 91 -217 157 -253 q 25 -76 25 -181 q 68 35 25 1 q 143 79 111 68 q 90 124 113 96 q 67 192 67 153 q 113 279 67 253 q 189 313 160 306 q 117 393 144 344 q 90 501 90 442 q 170 683 90 619 q 386 747 250 747 q 525 722 463 747 q 602 781 579 749 q 631 849 625 814 l 747 849 q 708 736 747 783 q 606 674 669 689 q 683 501 683 604 q 603 319 683 383 q 386 256 522 256 l 269 256 q 192 196 192 256 q 269 136 192 136 l 563 136 q 701 82 653 136 q 749 -42 749 28 q 697 -184 749 -115 q 518 -253 644 -253 l 224 -253 m 235 -154 l 521 -154 q 597 -129 567 -154 q 628 -62 628 -104 q 603 4 628 -19 q 539 28 578 28 l 235 28 q 171 4 194 28 q 147 -62 147 -19 q 235 -154 147 -154 m 388 350 q 563 501 563 350 q 388 653 563 653 q 213 501 213 653 q 388 350 213 350 m 181 817 l 328 1004 l 444 1004 l 590 817 l 465 817 l 386 926 l 306 817 l 181 817 z "},"ģ":{"ha":772,"x_min":25,"x_max":749,"o":"m 224 -253 q 91 -217 157 -253 q 25 -76 25 -181 q 68 35 25 1 q 143 79 111 68 q 90 124 113 96 q 67 192 67 153 q 113 279 67 253 q 189 313 160 306 q 117 393 144 344 q 90 501 90 442 q 170 683 90 619 q 386 747 250 747 q 525 722 463 747 q 602 781 579 749 q 631 849 625 814 l 747 849 q 708 736 747 783 q 606 674 669 689 q 683 501 683 604 q 603 319 683 383 q 386 256 522 256 l 269 256 q 192 196 192 256 q 269 136 192 136 l 563 136 q 701 82 653 136 q 749 -42 749 28 q 697 -184 749 -115 q 518 -253 644 -253 l 224 -253 m 235 -154 l 521 -154 q 597 -129 567 -154 q 628 -62 628 -104 q 603 4 628 -19 q 539 28 578 28 l 235 28 q 171 4 194 28 q 147 -62 147 -19 q 235 -154 147 -154 m 388 350 q 563 501 563 350 q 388 653 563 653 q 213 501 213 653 q 388 350 213 350 m 329 844 l 329 961 l 389 1083 l 451 1083 l 400 971 l 451 971 l 451 844 l 329 844 z "},"ġ":{"ha":772,"x_min":25,"x_max":749,"o":"m 224 -253 q 91 -217 157 -253 q 25 -76 25 -181 q 68 35 25 1 q 143 79 111 68 q 90 124 113 96 q 67 192 67 153 q 113 279 67 253 q 189 313 160 306 q 117 393 144 344 q 90 501 90 442 q 170 683 90 619 q 386 747 250 747 q 525 722 463 747 q 602 781 579 749 q 631 849 625 814 l 747 849 q 708 736 747 783 q 606 674 669 689 q 683 501 683 604 q 603 319 683 383 q 386 256 522 256 l 269 256 q 192 196 192 256 q 269 136 192 136 l 563 136 q 701 82 653 136 q 749 -42 749 28 q 697 -184 749 -115 q 518 -253 644 -253 l 224 -253 m 235 -154 l 521 -154 q 597 -129 567 -154 q 628 -62 628 -104 q 603 4 628 -19 q 539 28 578 28 l 235 28 q 171 4 194 28 q 147 -62 147 -19 q 235 -154 147 -154 m 388 350 q 563 501 563 350 q 388 653 563 653 q 213 501 213 653 q 388 350 213 350 m 325 872 l 325 1004 l 446 1004 l 446 872 l 325 872 z "},"h":{"ha":772,"x_min":93,"x_max":683,"o":"m 93 0 l 93 1004 l 215 1004 l 215 649 l 225 649 q 322 723 264 699 q 456 747 381 747 q 621 691 558 747 q 683 499 683 635 l 683 0 l 561 0 l 561 490 q 519 615 561 583 q 410 646 478 646 q 274 590 333 646 q 215 432 215 533 l 215 0 l 93 0 z "},"ħ":{"ha":772,"x_min":1,"x_max":683,"o":"m 93 0 l 93 828 l 1 828 l 1 914 l 93 914 l 93 1004 l 215 1004 l 215 914 l 410 914 l 410 828 l 215 828 l 215 649 l 225 649 q 322 723 264 699 q 456 747 381 747 q 621 691 558 747 q 683 499 683 635 l 683 0 l 561 0 l 561 490 q 519 615 561 583 q 410 646 478 646 q 274 590 333 646 q 215 432 215 533 l 215 0 l 93 0 z "},"ĥ":{"ha":772,"x_min":-51,"x_max":683,"o":"m 93 0 l 93 1004 l 215 1004 l 215 649 l 225 649 q 322 723 264 699 q 456 747 381 747 q 621 691 558 747 q 683 499 683 635 l 683 0 l 561 0 l 561 490 q 519 615 561 583 q 410 646 478 646 q 274 590 333 646 q 215 432 215 533 l 215 0 l 93 0 m -51 1039 l 96 1226 l 213 1226 l 358 1039 l 233 1039 l 154 1149 l 74 1039 l -51 1039 z "},"ḥ":{"ha":772,"x_min":93,"x_max":683,"o":"m 93 0 l 93 1004 l 215 1004 l 215 649 l 225 649 q 322 723 264 699 q 456 747 381 747 q 621 691 558 747 q 683 499 683 635 l 683 0 l 561 0 l 561 490 q 519 615 561 583 q 410 646 478 646 q 274 590 333 646 q 215 432 215 533 l 215 0 l 93 0 z "},"i":{"ha":308,"x_min":93,"x_max":215,"o":"m 93 0 l 93 731 l 215 731 l 215 0 l 93 0 m 93 868 l 93 1004 l 215 1004 l 215 868 l 93 868 z "},"ı":{"ha":386,"x_min":132,"x_max":254,"o":"m 132 0 l 132 731 l 254 731 l 254 0 l 132 0 z "},"í":{"ha":386,"x_min":118,"x_max":372,"o":"m 132 0 l 132 731 l 254 731 l 254 0 l 132 0 m 118 821 l 238 1004 l 371 1004 l 372 1000 l 222 821 l 118 821 z "},"ĭ":{"ha":386,"x_min":-8,"x_max":396,"o":"m 132 0 l 132 731 l 254 731 l 254 0 l 132 0 m 193 842 q 34 894 76 842 q -8 1004 -8 947 l 76 1004 q 104 956 82 981 q 193 931 126 931 q 284 956 260 931 q 311 1004 308 981 l 396 1004 q 353 894 396 947 q 193 842 310 842 z "},"ǐ":{"ha":386,"x_min":-12,"x_max":397,"o":"m 132 0 l 132 731 l 254 731 l 254 0 l 132 0 m 135 817 l -12 1004 l 113 1004 l 193 894 l 272 1004 l 397 1004 l 251 817 l 135 817 z "},"î":{"ha":386,"x_min":-11,"x_max":399,"o":"m 132 0 l 132 731 l 254 731 l 254 0 l 132 0 m -11 817 l 136 1004 l 253 1004 l 399 817 l 274 817 l 194 926 l 114 817 l -11 817 z "},"ȉ":{"ha":386,"x_min":-53,"x_max":363,"o":"m 132 0 l 132 731 l 254 731 l 254 0 l 132 0 m 257 821 l 140 1000 l 142 1004 l 276 1004 l 363 821 l 257 821 m 64 821 l -53 1000 l -51 1004 l 83 1004 l 169 821 l 64 821 z "},"ï":{"ha":386,"x_min":3,"x_max":383,"o":"m 132 0 l 132 731 l 254 731 l 254 0 l 132 0 m 3 872 l 3 1004 l 124 1004 l 124 872 l 3 872 m 263 872 l 263 1004 l 383 1004 l 383 872 l 263 872 z "},"ị":{"ha":308,"x_min":93,"x_max":215,"o":"m 93 0 l 93 731 l 215 731 l 215 0 l 93 0 m 93 868 l 93 1004 l 215 1004 l 215 868 l 93 868 z "},"ì":{"ha":386,"x_min":13,"x_max":267,"o":"m 132 0 l 132 731 l 254 731 l 254 0 l 132 0 m 163 821 l 13 1000 l 14 1004 l 147 1004 l 267 821 l 163 821 z "},"ỉ":{"ha":386,"x_min":86,"x_max":313,"o":"m 132 0 l 132 731 l 254 731 l 254 0 l 132 0 m 154 821 l 154 906 l 172 906 q 213 931 213 906 q 169 956 213 956 l 86 956 l 86 1010 q 186 1021 133 1021 q 269 1005 226 1021 q 313 938 313 989 q 288 881 313 900 q 232 860 263 863 l 232 821 l 154 821 z "},"ȋ":{"ha":386,"x_min":-10,"x_max":394,"o":"m 132 0 l 132 731 l 254 731 l 254 0 l 132 0 m -10 842 q 33 951 -10 899 q 192 1004 75 1004 q 351 951 308 1004 q 394 842 394 899 l 310 842 q 283 890 307 864 q 192 915 258 915 q 103 890 125 915 q 75 842 81 864 l -10 842 z "},"ĳ":{"ha":617,"x_min":93,"x_max":524,"o":"m 93 0 l 93 731 l 215 731 l 215 0 l 93 0 m 93 868 l 93 1004 l 215 1004 l 215 868 l 93 868 m 371 -253 q 319 -247 346 -253 q 275 -236 293 -242 l 275 -157 l 336 -157 q 401 -90 401 -157 l 401 731 l 524 731 l 524 -85 q 492 -200 524 -147 q 371 -253 460 -253 m 401 868 l 401 1004 l 524 1004 l 524 868 l 401 868 z "},"ī":{"ha":386,"x_min":17,"x_max":369,"o":"m 132 0 l 132 731 l 254 731 l 254 0 l 132 0 m 17 888 l 17 988 l 369 988 l 369 888 l 17 888 z "},"į":{"ha":386,"x_min":51,"x_max":278,"o":"m 132 0 l 132 731 l 254 731 l 254 0 l 132 0 m 132 872 l 132 1004 l 253 1004 l 253 872 l 132 872 z "},"ĩ":{"ha":386,"x_min":-33,"x_max":421,"o":"m 132 0 l 132 731 l 254 731 l 254 0 l 132 0 m -33 860 q -6 961 -33 918 q 85 1004 22 1004 q 191 983 143 1004 q 292 961 239 961 q 331 1004 326 961 l 421 1004 q 393 903 421 946 q 303 860 365 860 q 196 881 244 860 q 96 903 147 903 q 57 860 61 903 l -33 860 z "},"j":{"ha":308,"x_min":-33,"x_max":215,"o":"m 63 -253 q 11 -247 38 -253 q -33 -236 -15 -242 l -33 -157 l 28 -157 q 93 -90 93 -157 l 93 731 l 215 731 l 215 -85 q 183 -200 215 -147 q 63 -253 151 -253 m 93 868 l 93 1004 l 215 1004 l 215 868 l 93 868 z "},"ȷ":{"ha":308,"x_min":-33,"x_max":215,"o":"m 63 -253 q 11 -247 38 -253 q -33 -236 -15 -242 l -33 -157 l 28 -157 q 93 -90 93 -157 l 93 731 l 215 731 l 215 -85 q 183 -200 215 -147 q 63 -253 151 -253 z "},"ĵ":{"ha":308,"x_min":-50,"x_max":360,"o":"m 63 -253 q 11 -247 38 -253 q -33 -236 -15 -242 l -33 -157 l 28 -157 q 93 -90 93 -157 l 93 731 l 215 731 l 215 -85 q 183 -200 215 -147 q 63 -253 151 -253 m -50 817 l 97 1004 l 214 1004 l 360 817 l 235 817 l 156 926 l 75 817 l -50 817 z "},"k":{"ha":694,"x_min":93,"x_max":690,"o":"m 93 0 l 93 1004 l 215 1004 l 215 372 l 525 731 l 676 731 l 425 443 l 690 0 l 549 0 l 349 356 l 215 229 l 215 0 l 93 0 z "},"ķ":{"ha":694,"x_min":93,"x_max":690,"o":"m 93 0 l 93 1004 l 215 1004 l 215 372 l 525 731 l 676 731 l 425 443 l 690 0 l 549 0 l 349 356 l 215 229 l 215 0 l 93 0 m 321 -319 l 372 -207 l 321 -207 l 321 -81 l 443 -81 l 443 -197 l 383 -319 l 321 -319 z "},"ĸ":{"ha":694,"x_min":93,"x_max":690,"o":"m 93 0 l 93 731 l 215 731 l 215 372 l 525 731 l 676 731 l 425 443 l 690 0 l 549 0 l 349 356 l 215 229 l 215 0 l 93 0 z "},"l":{"ha":308,"x_min":93,"x_max":215,"o":"m 93 0 l 93 1004 l 215 1004 l 215 0 l 93 0 z "},"ĺ":{"ha":308,"x_min":93,"x_max":356,"o":"m 93 0 l 93 1004 l 215 1004 l 215 0 l 93 0 m 101 1043 l 221 1226 l 354 1226 l 356 1222 l 206 1043 l 101 1043 z "},"ľ":{"ha":406,"x_min":93,"x_max":406,"o":"m 288 681 l 335 826 l 288 826 l 288 953 l 406 953 l 406 836 l 349 681 l 288 681 m 93 0 l 93 1004 l 215 1004 l 215 0 l 93 0 z "},"ļ":{"ha":308,"x_min":93,"x_max":215,"o":"m 93 0 l 93 1004 l 215 1004 l 215 0 l 93 0 m 93 -319 l 144 -207 l 93 -207 l 93 -81 l 215 -81 l 215 -197 l 156 -319 l 93 -319 z "},"ŀ":{"ha":393,"x_min":93,"x_max":425,"o":"m 93 0 l 93 1004 l 215 1004 l 215 0 l 93 0 m 286 421 l 286 571 l 425 571 l 425 421 l 286 421 z "},"ǉ":{"ha":617,"x_min":93,"x_max":524,"o":"m 93 0 l 93 1004 l 215 1004 l 215 0 l 93 0 m 371 -253 q 319 -247 346 -253 q 275 -236 293 -242 l 275 -157 l 336 -157 q 401 -90 401 -157 l 401 731 l 524 731 l 524 -85 q 492 -200 524 -147 q 371 -253 460 -253 m 401 868 l 401 1004 l 524 1004 l 524 868 l 401 868 z "},"ł":{"ha":308,"x_min":0,"x_max":307,"o":"m 93 0 l 93 393 l 0 315 l 0 422 l 93 500 l 93 1004 l 215 1004 l 215 601 l 307 678 l 307 571 l 215 494 l 215 0 l 93 0 z "},"m":{"ha":1157,"x_min":93,"x_max":1068,"o":"m 93 0 l 93 731 l 186 731 l 200 632 l 210 632 q 305 719 249 692 q 429 747 361 747 q 544 720 494 747 q 618 632 593 693 l 626 632 q 726 718 665 689 q 853 747 786 747 q 1008 698 949 747 q 1068 526 1068 649 l 1068 0 l 946 0 l 946 504 q 908 617 946 589 q 815 646 871 646 q 693 590 744 646 q 642 432 642 533 l 642 0 l 519 0 l 519 504 q 483 617 519 589 q 392 646 447 646 q 268 590 321 646 q 215 432 215 533 l 215 0 l 93 0 z "},"n":{"ha":772,"x_min":93,"x_max":683,"o":"m 93 0 l 93 731 l 186 731 l 200 632 l 210 632 q 317 720 253 693 q 456 747 381 747 q 622 691 560 747 q 683 499 683 635 l 683 0 l 561 0 l 561 490 q 519 615 561 583 q 410 646 478 646 q 274 590 333 646 q 215 432 215 533 l 215 0 l 93 0 z "},"ń":{"ha":772,"x_min":93,"x_max":683,"o":"m 93 0 l 93 731 l 186 731 l 200 632 l 210 632 q 317 720 253 693 q 456 747 381 747 q 622 691 560 747 q 683 499 683 635 l 683 0 l 561 0 l 561 490 q 519 615 561 583 q 410 646 478 646 q 274 590 333 646 q 215 432 215 533 l 215 0 l 93 0 m 333 821 l 453 1004 l 586 1004 l 588 1000 l 438 821 l 333 821 z "},"ŉ":{"ha":839,"x_min":0,"x_max":750,"o":"m 160 0 l 160 731 l 253 731 l 267 632 l 276 632 q 383 720 319 693 q 522 747 447 747 q 688 691 626 747 q 750 499 750 635 l 750 0 l 628 0 l 628 490 q 586 615 628 583 q 476 646 544 646 q 341 590 400 646 q 282 432 282 533 l 282 0 l 160 0 m 0 681 l 47 826 l 0 826 l 0 953 l 118 953 l 118 836 l 61 681 l 0 681 z "},"ň":{"ha":772,"x_min":93,"x_max":683,"o":"m 93 0 l 93 731 l 186 731 l 200 632 l 210 632 q 317 720 253 693 q 456 747 381 747 q 622 691 560 747 q 683 499 683 635 l 683 0 l 561 0 l 561 490 q 519 615 561 583 q 410 646 478 646 q 274 590 333 646 q 215 432 215 533 l 215 0 l 93 0 m 328 817 l 181 1004 l 306 1004 l 386 894 l 465 1004 l 590 1004 l 444 817 l 328 817 z "},"ņ":{"ha":772,"x_min":93,"x_max":683,"o":"m 93 0 l 93 731 l 186 731 l 200 632 l 210 632 q 317 720 253 693 q 456 747 381 747 q 622 691 560 747 q 683 499 683 635 l 683 0 l 561 0 l 561 490 q 519 615 561 583 q 410 646 478 646 q 274 590 333 646 q 215 432 215 533 l 215 0 l 93 0 m 325 -319 l 376 -207 l 325 -207 l 325 -81 l 447 -81 l 447 -197 l 388 -319 l 325 -319 z "},"ṅ":{"ha":772,"x_min":93,"x_max":683,"o":"m 93 0 l 93 731 l 186 731 l 200 632 l 210 632 q 317 720 253 693 q 456 747 381 747 q 622 691 560 747 q 683 499 683 635 l 683 0 l 561 0 l 561 490 q 519 615 561 583 q 410 646 478 646 q 274 590 333 646 q 215 432 215 533 l 215 0 l 93 0 m 325 872 l 325 1004 l 446 1004 l 446 872 l 325 872 z "},"ŋ":{"ha":772,"x_min":93,"x_max":683,"o":"m 531 -253 q 479 -247 506 -253 q 435 -236 453 -242 l 435 -157 l 496 -157 q 561 -90 561 -157 l 561 490 q 519 615 561 583 q 410 646 478 646 q 274 590 333 646 q 215 432 215 533 l 215 0 l 93 0 l 93 731 l 186 731 l 200 632 l 210 632 q 317 720 253 693 q 456 747 381 747 q 622 691 560 747 q 683 499 683 635 l 683 -85 q 651 -200 683 -147 q 531 -253 619 -253 z "},"ɲ":{"ha":772,"x_min":-33,"x_max":683,"o":"m 63 -253 q 11 -247 38 -253 q -33 -236 -15 -242 l -33 -157 l 28 -157 q 93 -90 93 -157 l 93 731 l 186 731 l 200 632 l 210 632 q 317 720 253 693 q 456 747 381 747 q 622 691 560 747 q 683 499 683 635 l 683 0 l 561 0 l 561 490 q 519 615 561 583 q 410 646 478 646 q 274 590 333 646 q 215 432 215 533 l 215 -85 q 183 -200 215 -147 q 63 -253 151 -253 z "},"ǌ":{"ha":1081,"x_min":93,"x_max":988,"o":"m 93 0 l 93 731 l 186 731 l 200 632 l 210 632 q 317 720 253 693 q 456 747 381 747 q 622 691 560 747 q 683 499 683 635 l 683 0 l 561 0 l 561 490 q 519 615 561 583 q 410 646 478 646 q 274 590 333 646 q 215 432 215 533 l 215 0 l 93 0 m 835 -253 q 783 -247 810 -253 q 739 -236 757 -242 l 739 -157 l 800 -157 q 865 -90 865 -157 l 865 731 l 988 731 l 988 -85 q 956 -200 988 -147 q 835 -253 924 -253 m 865 868 l 865 1004 l 988 1004 l 988 868 l 865 868 z "},"ñ":{"ha":772,"x_min":93,"x_max":683,"o":"m 93 0 l 93 731 l 186 731 l 200 632 l 210 632 q 317 720 253 693 q 456 747 381 747 q 622 691 560 747 q 683 499 683 635 l 683 0 l 561 0 l 561 490 q 519 615 561 583 q 410 646 478 646 q 274 590 333 646 q 215 432 215 533 l 215 0 l 93 0 m 158 860 q 186 961 158 918 q 276 1004 214 1004 q 383 983 335 1004 q 483 961 432 961 q 522 1004 518 961 l 613 1004 q 585 903 613 946 q 494 860 557 860 q 388 881 436 860 q 288 903 340 903 q 249 860 253 903 l 158 860 z "},"o":{"ha":772,"x_min":49,"x_max":724,"o":"m 386 -17 q 135 76 221 -17 q 49 365 49 168 q 135 655 49 563 q 386 747 221 747 q 638 655 551 747 q 724 365 724 563 q 638 76 724 168 q 386 -17 551 -17 m 386 85 q 547 149 497 85 q 597 360 597 214 l 597 371 q 547 581 597 517 q 386 646 497 646 q 225 581 275 646 q 175 371 175 517 l 175 360 q 225 149 175 214 q 386 85 275 85 z "},"ó":{"ha":772,"x_min":49,"x_max":724,"o":"m 386 -17 q 135 76 221 -17 q 49 365 49 168 q 135 655 49 563 q 386 747 221 747 q 638 655 551 747 q 724 365 724 563 q 638 76 724 168 q 386 -17 551 -17 m 386 85 q 547 149 497 85 q 597 360 597 214 l 597 371 q 547 581 597 517 q 386 646 497 646 q 225 581 275 646 q 175 371 175 517 l 175 360 q 225 149 175 214 q 386 85 275 85 m 333 821 l 453 1004 l 586 1004 l 588 1000 l 438 821 l 333 821 z "},"ŏ":{"ha":772,"x_min":49,"x_max":724,"o":"m 386 -17 q 135 76 221 -17 q 49 365 49 168 q 135 655 49 563 q 386 747 221 747 q 638 655 551 747 q 724 365 724 563 q 638 76 724 168 q 386 -17 551 -17 m 386 85 q 547 149 497 85 q 597 360 597 214 l 597 371 q 547 581 597 517 q 386 646 497 646 q 225 581 275 646 q 175 371 175 517 l 175 360 q 225 149 175 214 q 386 85 275 85 m 385 842 q 226 894 268 842 q 183 1004 183 947 l 268 1004 q 296 956 274 981 q 385 931 318 931 q 476 956 451 931 q 503 1004 500 981 l 588 1004 q 544 894 588 947 q 385 842 501 842 z "},"ǒ":{"ha":772,"x_min":49,"x_max":724,"o":"m 386 -17 q 135 76 221 -17 q 49 365 49 168 q 135 655 49 563 q 386 747 221 747 q 638 655 551 747 q 724 365 724 563 q 638 76 724 168 q 386 -17 551 -17 m 386 85 q 547 149 497 85 q 597 360 597 214 l 597 371 q 547 581 597 517 q 386 646 497 646 q 225 581 275 646 q 175 371 175 517 l 175 360 q 225 149 175 214 q 386 85 275 85 m 328 817 l 181 1004 l 306 1004 l 386 894 l 465 1004 l 590 1004 l 444 817 l 328 817 z "},"ô":{"ha":772,"x_min":49,"x_max":724,"o":"m 386 -17 q 135 76 221 -17 q 49 365 49 168 q 135 655 49 563 q 386 747 221 747 q 638 655 551 747 q 724 365 724 563 q 638 76 724 168 q 386 -17 551 -17 m 386 85 q 547 149 497 85 q 597 360 597 214 l 597 371 q 547 581 597 517 q 386 646 497 646 q 225 581 275 646 q 175 371 175 517 l 175 360 q 225 149 175 214 q 386 85 275 85 m 181 817 l 328 1004 l 444 1004 l 590 817 l 465 817 l 386 926 l 306 817 l 181 817 z "},"ố":{"ha":772,"x_min":49,"x_max":771,"o":"m 386 -17 q 135 76 221 -17 q 49 365 49 168 q 135 655 49 563 q 386 747 221 747 q 638 655 551 747 q 724 365 724 563 q 638 76 724 168 q 386 -17 551 -17 m 386 85 q 547 149 497 85 q 597 360 597 214 l 597 371 q 547 581 597 517 q 386 646 497 646 q 225 581 275 646 q 175 371 175 517 l 175 360 q 225 149 175 214 q 386 85 275 85 m 181 817 l 328 1004 l 444 1004 l 590 817 l 465 817 l 386 926 l 306 817 l 181 817 m 517 953 l 636 1136 l 769 1136 l 771 1132 l 621 953 l 517 953 z "},"ộ":{"ha":772,"x_min":49,"x_max":724,"o":"m 386 -17 q 135 76 221 -17 q 49 365 49 168 q 135 655 49 563 q 386 747 221 747 q 638 655 551 747 q 724 365 724 563 q 638 76 724 168 q 386 -17 551 -17 m 386 85 q 547 149 497 85 q 597 360 597 214 l 597 371 q 547 581 597 517 q 386 646 497 646 q 225 581 275 646 q 175 371 175 517 l 175 360 q 225 149 175 214 q 386 85 275 85 m 181 817 l 328 1004 l 444 1004 l 590 817 l 465 817 l 386 926 l 306 817 l 181 817 z "},"ồ":{"ha":772,"x_min":49,"x_max":724,"o":"m 386 -17 q 135 76 221 -17 q 49 365 49 168 q 135 655 49 563 q 386 747 221 747 q 638 655 551 747 q 724 365 724 563 q 638 76 724 168 q 386 -17 551 -17 m 386 85 q 547 149 497 85 q 597 360 597 214 l 597 371 q 547 581 597 517 q 386 646 497 646 q 225 581 275 646 q 175 371 175 517 l 175 360 q 225 149 175 214 q 386 85 275 85 m 181 817 l 328 1004 l 444 1004 l 590 817 l 465 817 l 386 926 l 306 817 l 181 817 m 572 953 l 422 1132 l 424 1136 l 557 1136 l 676 953 l 572 953 z "},"ổ":{"ha":772,"x_min":49,"x_max":724,"o":"m 386 -17 q 135 76 221 -17 q 49 365 49 168 q 135 655 49 563 q 386 747 221 747 q 638 655 551 747 q 724 365 724 563 q 638 76 724 168 q 386 -17 551 -17 m 386 85 q 547 149 497 85 q 597 360 597 214 l 597 371 q 547 581 597 517 q 386 646 497 646 q 225 581 275 646 q 175 371 175 517 l 175 360 q 225 149 175 214 q 386 85 275 85 m 181 817 l 328 1004 l 444 1004 l 590 817 l 465 817 l 386 926 l 306 817 l 181 817 m 531 953 l 531 1038 l 549 1038 q 589 1063 589 1038 q 546 1088 589 1088 l 463 1088 l 463 1142 q 563 1153 510 1153 q 646 1137 603 1153 q 689 1069 689 1121 q 664 1013 689 1032 q 608 992 639 994 l 608 953 l 531 953 z "},"ỗ":{"ha":772,"x_min":49,"x_max":724,"o":"m 386 -17 q 135 76 221 -17 q 49 365 49 168 q 135 655 49 563 q 386 747 221 747 q 638 655 551 747 q 724 365 724 563 q 638 76 724 168 q 386 -17 551 -17 m 386 85 q 547 149 497 85 q 597 360 597 214 l 597 371 q 547 581 597 517 q 386 646 497 646 q 225 581 275 646 q 175 371 175 517 l 175 360 q 225 149 175 214 q 386 85 275 85 m 181 817 l 328 1004 l 444 1004 l 590 817 l 465 817 l 386 926 l 306 817 l 181 817 m 161 1082 q 189 1183 161 1140 q 279 1226 217 1226 q 386 1205 338 1226 q 486 1183 435 1183 q 525 1226 521 1183 l 615 1226 q 588 1125 615 1168 q 497 1082 560 1082 q 391 1103 439 1082 q 290 1125 343 1125 q 251 1082 256 1125 l 161 1082 z "},"ȍ":{"ha":772,"x_min":49,"x_max":724,"o":"m 386 -17 q 135 76 221 -17 q 49 365 49 168 q 135 655 49 563 q 386 747 221 747 q 638 655 551 747 q 724 365 724 563 q 638 76 724 168 q 386 -17 551 -17 m 386 85 q 547 149 497 85 q 597 360 597 214 l 597 371 q 547 581 597 517 q 386 646 497 646 q 225 581 275 646 q 175 371 175 517 l 175 360 q 225 149 175 214 q 386 85 275 85 m 450 821 l 333 1000 l 335 1004 l 469 1004 l 556 821 l 450 821 m 257 821 l 140 1000 l 142 1004 l 276 1004 l 363 821 l 257 821 z "},"ö":{"ha":772,"x_min":49,"x_max":724,"o":"m 386 -17 q 135 76 221 -17 q 49 365 49 168 q 135 655 49 563 q 386 747 221 747 q 638 655 551 747 q 724 365 724 563 q 638 76 724 168 q 386 -17 551 -17 m 386 85 q 547 149 497 85 q 597 360 597 214 l 597 371 q 547 581 597 517 q 386 646 497 646 q 225 581 275 646 q 175 371 175 517 l 175 360 q 225 149 175 214 q 386 85 275 85 m 456 872 l 456 1004 l 576 1004 l 576 872 l 456 872 m 196 872 l 196 1004 l 317 1004 l 317 872 l 196 872 z "},"ọ":{"ha":772,"x_min":49,"x_max":724,"o":"m 386 -17 q 135 76 221 -17 q 49 365 49 168 q 135 655 49 563 q 386 747 221 747 q 638 655 551 747 q 724 365 724 563 q 638 76 724 168 q 386 -17 551 -17 m 386 85 q 547 149 497 85 q 597 360 597 214 l 597 371 q 547 581 597 517 q 386 646 497 646 q 225 581 275 646 q 175 371 175 517 l 175 360 q 225 149 175 214 q 386 85 275 85 z "},"ò":{"ha":772,"x_min":49,"x_max":724,"o":"m 386 -17 q 135 76 221 -17 q 49 365 49 168 q 135 655 49 563 q 386 747 221 747 q 638 655 551 747 q 724 365 724 563 q 638 76 724 168 q 386 -17 551 -17 m 386 85 q 547 149 497 85 q 597 360 597 214 l 597 371 q 547 581 597 517 q 386 646 497 646 q 225 581 275 646 q 175 371 175 517 l 175 360 q 225 149 175 214 q 386 85 275 85 m 333 821 l 183 1000 l 185 1004 l 318 1004 l 438 821 l 333 821 z "},"ỏ":{"ha":772,"x_min":49,"x_max":724,"o":"m 386 -17 q 135 76 221 -17 q 49 365 49 168 q 135 655 49 563 q 386 747 221 747 q 638 655 551 747 q 724 365 724 563 q 638 76 724 168 q 386 -17 551 -17 m 386 85 q 547 149 497 85 q 597 360 597 214 l 597 371 q 547 581 597 517 q 386 646 497 646 q 225 581 275 646 q 175 371 175 517 l 175 360 q 225 149 175 214 q 386 85 275 85 m 347 821 l 347 906 l 365 906 q 406 931 406 906 q 363 956 406 956 l 279 956 l 279 1010 q 379 1021 326 1021 q 463 1005 419 1021 q 506 938 506 989 q 481 881 506 900 q 425 860 456 863 l 425 821 l 347 821 z "},"ơ":{"ha":772,"x_min":49,"x_max":869,"o":"m 386 -17 q 135 76 221 -17 q 49 365 49 168 q 135 655 49 563 q 386 747 221 747 q 638 655 551 747 q 724 365 724 563 q 638 76 724 168 q 386 -17 551 -17 m 386 85 q 547 149 497 85 q 597 360 597 214 l 597 371 q 547 581 597 517 q 386 646 497 646 q 225 581 275 646 q 175 371 175 517 l 175 360 q 225 149 175 214 q 386 85 275 85 m 589 601 l 589 679 q 783 858 783 703 l 869 878 q 799 690 869 761 q 589 601 728 618 m 703 803 l 703 953 l 869 953 l 869 878 l 813 803 l 703 803 z "},"ớ":{"ha":772,"x_min":49,"x_max":869,"o":"m 386 -17 q 135 76 221 -17 q 49 365 49 168 q 135 655 49 563 q 386 747 221 747 q 638 655 551 747 q 724 365 724 563 q 638 76 724 168 q 386 -17 551 -17 m 386 85 q 547 149 497 85 q 597 360 597 214 l 597 371 q 547 581 597 517 q 386 646 497 646 q 225 581 275 646 q 175 371 175 517 l 175 360 q 225 149 175 214 q 386 85 275 85 m 589 601 l 589 679 q 783 858 783 703 l 869 878 q 799 690 869 761 q 589 601 728 618 m 703 803 l 703 953 l 869 953 l 869 878 l 813 803 l 703 803 m 333 821 l 453 1004 l 586 1004 l 588 1000 l 438 821 l 333 821 z "},"ợ":{"ha":772,"x_min":49,"x_max":869,"o":"m 386 -17 q 135 76 221 -17 q 49 365 49 168 q 135 655 49 563 q 386 747 221 747 q 638 655 551 747 q 724 365 724 563 q 638 76 724 168 q 386 -17 551 -17 m 386 85 q 547 149 497 85 q 597 360 597 214 l 597 371 q 547 581 597 517 q 386 646 497 646 q 225 581 275 646 q 175 371 175 517 l 175 360 q 225 149 175 214 q 386 85 275 85 m 589 601 l 589 679 q 783 858 783 703 l 869 878 q 799 690 869 761 q 589 601 728 618 m 703 803 l 703 953 l 869 953 l 869 878 l 813 803 l 703 803 z "},"ờ":{"ha":772,"x_min":49,"x_max":869,"o":"m 386 -17 q 135 76 221 -17 q 49 365 49 168 q 135 655 49 563 q 386 747 221 747 q 638 655 551 747 q 724 365 724 563 q 638 76 724 168 q 386 -17 551 -17 m 386 85 q 547 149 497 85 q 597 360 597 214 l 597 371 q 547 581 597 517 q 386 646 497 646 q 225 581 275 646 q 175 371 175 517 l 175 360 q 225 149 175 214 q 386 85 275 85 m 589 601 l 589 679 q 783 858 783 703 l 869 878 q 799 690 869 761 q 589 601 728 618 m 703 803 l 703 953 l 869 953 l 869 878 l 813 803 l 703 803 m 333 821 l 183 1000 l 185 1004 l 318 1004 l 438 821 l 333 821 z "},"ở":{"ha":772,"x_min":49,"x_max":869,"o":"m 386 -17 q 135 76 221 -17 q 49 365 49 168 q 135 655 49 563 q 386 747 221 747 q 638 655 551 747 q 724 365 724 563 q 638 76 724 168 q 386 -17 551 -17 m 386 85 q 547 149 497 85 q 597 360 597 214 l 597 371 q 547 581 597 517 q 386 646 497 646 q 225 581 275 646 q 175 371 175 517 l 175 360 q 225 149 175 214 q 386 85 275 85 m 589 601 l 589 679 q 783 858 783 703 l 869 878 q 799 690 869 761 q 589 601 728 618 m 703 803 l 703 953 l 869 953 l 869 878 l 813 803 l 703 803 m 347 821 l 347 906 l 365 906 q 406 931 406 906 q 363 956 406 956 l 279 956 l 279 1010 q 379 1021 326 1021 q 463 1005 419 1021 q 506 938 506 989 q 481 881 506 900 q 425 860 456 863 l 425 821 l 347 821 z "},"ỡ":{"ha":772,"x_min":49,"x_max":869,"o":"m 386 -17 q 135 76 221 -17 q 49 365 49 168 q 135 655 49 563 q 386 747 221 747 q 638 655 551 747 q 724 365 724 563 q 638 76 724 168 q 386 -17 551 -17 m 386 85 q 547 149 497 85 q 597 360 597 214 l 597 371 q 547 581 597 517 q 386 646 497 646 q 225 581 275 646 q 175 371 175 517 l 175 360 q 225 149 175 214 q 386 85 275 85 m 589 601 l 589 679 q 783 858 783 703 l 869 878 q 799 690 869 761 q 589 601 728 618 m 703 803 l 703 953 l 869 953 l 869 878 l 813 803 l 703 803 m 158 860 q 186 961 158 918 q 276 1004 214 1004 q 383 983 335 1004 q 483 961 432 961 q 522 1004 518 961 l 613 1004 q 585 903 613 946 q 494 860 557 860 q 388 881 436 860 q 288 903 340 903 q 249 860 253 903 l 158 860 z "},"ő":{"ha":772,"x_min":49,"x_max":724,"o":"m 386 -17 q 135 76 221 -17 q 49 365 49 168 q 135 655 49 563 q 386 747 221 747 q 638 655 551 747 q 724 365 724 563 q 638 76 724 168 q 386 -17 551 -17 m 386 85 q 547 149 497 85 q 597 360 597 214 l 597 371 q 547 581 597 517 q 386 646 497 646 q 225 581 275 646 q 175 371 175 517 l 175 360 q 225 149 175 214 q 386 85 275 85 m 429 821 l 515 1004 l 650 1004 l 651 1000 l 535 821 l 429 821 m 236 821 l 322 1004 l 457 1004 l 458 1000 l 342 821 l 236 821 z "},"ȏ":{"ha":772,"x_min":49,"x_max":724,"o":"m 386 -17 q 135 76 221 -17 q 49 365 49 168 q 135 655 49 563 q 386 747 221 747 q 638 655 551 747 q 724 365 724 563 q 638 76 724 168 q 386 -17 551 -17 m 386 85 q 547 149 497 85 q 597 360 597 214 l 597 371 q 547 581 597 517 q 386 646 497 646 q 225 581 275 646 q 175 371 175 517 l 175 360 q 225 149 175 214 q 386 85 275 85 m 183 842 q 226 951 183 899 q 385 1004 268 1004 q 544 951 501 1004 q 588 842 588 899 l 503 842 q 476 890 500 864 q 385 915 451 915 q 296 890 318 915 q 268 842 274 864 l 183 842 z "},"ō":{"ha":772,"x_min":49,"x_max":724,"o":"m 386 -17 q 135 76 221 -17 q 49 365 49 168 q 135 655 49 563 q 386 747 221 747 q 638 655 551 747 q 724 365 724 563 q 638 76 724 168 q 386 -17 551 -17 m 386 85 q 547 149 497 85 q 597 360 597 214 l 597 371 q 547 581 597 517 q 386 646 497 646 q 225 581 275 646 q 175 371 175 517 l 175 360 q 225 149 175 214 q 386 85 275 85 m 174 871 l 174 971 l 597 971 l 597 871 l 174 871 z "},"ǫ":{"ha":772,"x_min":49,"x_max":724,"o":"m 386 -17 q 135 76 221 -17 q 49 365 49 168 q 135 655 49 563 q 386 747 221 747 q 638 655 551 747 q 724 365 724 563 q 638 76 724 168 q 386 -17 551 -17 m 386 85 q 547 149 497 85 q 597 360 597 214 l 597 371 q 547 581 597 517 q 386 646 497 646 q 225 581 275 646 q 175 371 175 517 l 175 360 q 225 149 175 214 q 386 85 275 85 m 525 -253 q 430 -226 476 -253 q 383 -128 383 -200 q 407 -44 383 -76 q 461 17 431 -11 l 544 17 l 544 11 q 510 -30 529 -3 q 492 -86 492 -57 q 508 -139 492 -115 q 565 -162 525 -162 l 610 -162 l 610 -233 q 525 -253 564 -253 z "},"ø":{"ha":849,"x_min":63,"x_max":786,"o":"m 63 -68 l 168 79 q 86 365 86 174 q 172 655 86 563 q 424 747 258 747 q 615 703 538 747 l 683 799 l 786 799 l 679 649 q 761 365 761 554 q 675 76 761 168 q 424 -17 589 -17 q 233 26 310 -17 l 167 -68 l 63 -68 m 424 85 q 584 149 533 85 q 635 358 635 214 l 635 365 q 604 544 635 482 l 299 117 q 424 85 344 85 m 243 183 l 550 613 q 424 646 503 646 q 263 581 314 646 q 213 372 213 517 l 213 365 q 243 183 213 246 z "},"ǿ":{"ha":849,"x_min":63,"x_max":786,"o":"m 63 -68 l 168 79 q 86 365 86 174 q 172 655 86 563 q 424 747 258 747 q 615 703 538 747 l 683 799 l 786 799 l 679 649 q 761 365 761 554 q 675 76 761 168 q 424 -17 589 -17 q 233 26 310 -17 l 167 -68 l 63 -68 m 424 85 q 584 149 533 85 q 635 358 635 214 l 635 365 q 604 544 635 482 l 299 117 q 424 85 344 85 m 243 183 l 550 613 q 424 646 503 646 q 263 581 314 646 q 213 372 213 517 l 213 365 q 243 183 213 246 m 372 821 l 492 1004 l 625 1004 l 626 1000 l 476 821 l 372 821 z "},"õ":{"ha":772,"x_min":49,"x_max":724,"o":"m 386 -17 q 135 76 221 -17 q 49 365 49 168 q 135 655 49 563 q 386 747 221 747 q 638 655 551 747 q 724 365 724 563 q 638 76 724 168 q 386 -17 551 -17 m 386 85 q 547 149 497 85 q 597 360 597 214 l 597 371 q 547 581 597 517 q 386 646 497 646 q 225 581 275 646 q 175 371 175 517 l 175 360 q 225 149 175 214 q 386 85 275 85 m 158 860 q 186 961 158 918 q 276 1004 214 1004 q 383 983 335 1004 q 483 961 432 961 q 522 1004 518 961 l 613 1004 q 585 903 613 946 q 494 860 557 860 q 388 881 436 860 q 288 903 340 903 q 249 860 253 903 l 158 860 z "},"œ":{"ha":1311,"x_min":49,"x_max":1261,"o":"m 386 -17 q 135 76 221 -17 q 49 365 49 168 q 135 655 49 563 q 386 747 221 747 q 660 614 576 747 q 946 747 744 747 q 1181 665 1100 747 q 1261 393 1261 583 l 1261 332 l 724 332 q 783 145 731 206 q 946 85 836 85 q 1084 122 1026 85 q 1142 249 1142 160 l 1261 249 q 1169 49 1261 115 q 946 -17 1078 -17 q 660 115 744 -17 q 386 -17 578 -17 m 386 85 q 547 151 497 85 q 597 365 597 217 l 597 358 q 547 578 597 511 q 386 646 497 646 q 225 581 275 646 q 175 372 175 517 l 175 365 q 225 151 175 217 q 386 85 275 85 m 726 433 l 1133 433 q 1082 597 1133 549 q 946 646 1031 646 q 790 597 843 646 q 726 433 738 547 z "},"p":{"ha":772,"x_min":93,"x_max":724,"o":"m 93 -240 l 93 731 l 185 731 l 200 632 l 208 632 q 304 718 244 689 q 435 747 364 747 q 647 657 569 747 q 724 365 724 567 q 647 75 724 167 q 446 -17 569 -17 q 224 83 292 -17 l 215 83 l 215 -240 l 93 -240 m 404 85 q 553 146 508 85 q 597 360 597 207 l 597 365 q 552 584 597 522 q 404 646 507 646 q 260 573 304 646 q 215 365 215 500 l 215 360 q 259 156 215 228 q 404 85 303 85 z "},"þ":{"ha":772,"x_min":93,"x_max":724,"o":"m 93 -240 l 93 1004 l 215 1004 l 215 647 l 224 647 q 446 747 292 747 q 647 656 569 747 q 724 365 724 564 q 647 75 724 167 q 446 -17 569 -17 q 224 83 292 -17 l 215 83 l 215 -240 l 93 -240 m 404 85 q 553 146 508 85 q 597 360 597 207 l 597 365 q 552 584 597 522 q 404 646 507 646 q 260 573 304 646 q 215 365 215 500 l 215 360 q 259 156 215 228 q 404 85 303 85 z "},"q":{"ha":772,"x_min":49,"x_max":679,"o":"m 557 -240 l 557 83 l 549 83 q 326 -17 481 -17 q 126 75 203 -17 q 49 365 49 167 q 126 657 49 567 q 338 747 203 747 q 468 718 408 747 q 564 632 528 689 l 572 632 l 588 731 l 679 731 l 679 -240 l 557 -240 m 368 85 q 513 156 469 85 q 557 360 557 228 l 557 365 q 513 573 557 500 q 368 646 468 646 q 220 584 265 646 q 175 365 175 522 l 175 360 q 219 146 175 207 q 368 85 264 85 z "},"r":{"ha":463,"x_min":93,"x_max":446,"o":"m 93 0 l 93 731 l 186 731 l 200 621 l 208 621 q 266 707 226 667 q 381 747 306 747 q 428 742 410 747 q 446 736 446 736 l 446 618 l 394 618 q 270 576 325 618 q 215 432 215 535 l 215 0 l 93 0 z "},"ŕ":{"ha":463,"x_min":93,"x_max":446,"o":"m 93 0 l 93 731 l 186 731 l 200 621 l 208 621 q 266 707 226 667 q 381 747 306 747 q 428 742 410 747 q 446 736 446 736 l 446 618 l 394 618 q 270 576 325 618 q 215 432 215 535 l 215 0 l 93 0 m 179 821 l 299 1004 l 432 1004 l 433 1000 l 283 821 l 179 821 z "},"ř":{"ha":463,"x_min":26,"x_max":446,"o":"m 93 0 l 93 731 l 186 731 l 200 621 l 208 621 q 266 707 226 667 q 381 747 306 747 q 428 742 410 747 q 446 736 446 736 l 446 618 l 394 618 q 270 576 325 618 q 215 432 215 535 l 215 0 l 93 0 m 174 817 l 26 1004 l 151 1004 l 232 894 l 311 1004 l 436 1004 l 290 817 l 174 817 z "},"ŗ":{"ha":463,"x_min":93,"x_max":446,"o":"m 93 0 l 93 731 l 186 731 l 200 621 l 208 621 q 266 707 226 667 q 381 747 306 747 q 428 742 410 747 q 446 736 446 736 l 446 618 l 394 618 q 270 576 325 618 q 215 432 215 535 l 215 0 l 93 0 m 93 -319 l 144 -207 l 93 -207 l 93 -81 l 215 -81 l 215 -197 l 156 -319 l 93 -319 z "},"ȑ":{"ha":463,"x_min":-14,"x_max":446,"o":"m 93 0 l 93 731 l 186 731 l 200 621 l 208 621 q 266 707 226 667 q 381 747 306 747 q 428 742 410 747 q 446 736 446 736 l 446 618 l 394 618 q 270 576 325 618 q 215 432 215 535 l 215 0 l 93 0 m 296 821 l 179 1000 l 181 1004 l 315 1004 l 401 821 l 296 821 m 103 821 l -14 1000 l -12 1004 l 122 1004 l 208 821 l 103 821 z "},"ṛ":{"ha":463,"x_min":93,"x_max":446,"o":"m 93 0 l 93 731 l 186 731 l 200 621 l 208 621 q 266 707 226 667 q 381 747 306 747 q 428 742 410 747 q 446 736 446 736 l 446 618 l 394 618 q 270 576 325 618 q 215 432 215 535 l 215 0 l 93 0 z "},"ȓ":{"ha":463,"x_min":29,"x_max":446,"o":"m 93 0 l 93 731 l 186 731 l 200 621 l 208 621 q 266 707 226 667 q 381 747 306 747 q 428 742 410 747 q 446 736 446 736 l 446 618 l 394 618 q 270 576 325 618 q 215 432 215 535 l 215 0 l 93 0 m 29 842 q 72 951 29 899 q 231 1004 114 1004 q 390 951 347 1004 q 433 842 433 899 l 349 842 q 322 890 346 864 q 231 915 297 915 q 142 890 164 915 q 114 842 119 864 l 29 842 z "},"s":{"ha":694,"x_min":43,"x_max":640,"o":"m 343 -17 q 113 50 183 -17 q 43 197 43 117 q 44 218 43 211 q 44 228 44 225 l 165 228 l 165 214 q 219 114 165 144 q 350 83 272 83 q 466 111 418 83 q 514 192 514 139 q 469 275 514 247 q 356 319 424 303 q 222 357 289 336 q 109 419 154 378 q 64 539 64 460 q 143 692 64 636 q 354 747 222 747 q 553 688 485 747 q 622 547 622 628 q 622 531 622 540 q 621 521 621 522 l 501 521 l 501 533 q 467 611 501 576 q 340 646 432 646 q 219 612 247 646 q 190 547 190 578 q 235 476 190 500 q 348 438 281 453 q 483 401 415 422 q 595 335 550 379 q 640 208 640 290 q 556 37 640 90 q 343 -17 471 -17 z "},"ś":{"ha":694,"x_min":43,"x_max":640,"o":"m 343 -17 q 113 50 183 -17 q 43 197 43 117 q 44 218 43 211 q 44 228 44 225 l 165 228 l 165 214 q 219 114 165 144 q 350 83 272 83 q 466 111 418 83 q 514 192 514 139 q 469 275 514 247 q 356 319 424 303 q 222 357 289 336 q 109 419 154 378 q 64 539 64 460 q 143 692 64 636 q 354 747 222 747 q 553 688 485 747 q 622 547 622 628 q 622 531 622 540 q 621 521 621 522 l 501 521 l 501 533 q 467 611 501 576 q 340 646 432 646 q 219 612 247 646 q 190 547 190 578 q 235 476 190 500 q 348 438 281 453 q 483 401 415 422 q 595 335 550 379 q 640 208 640 290 q 556 37 640 90 q 343 -17 471 -17 m 294 821 l 414 1004 l 547 1004 l 549 1000 l 399 821 l 294 821 z "},"ꞌ":{"ha":217,"x_min":64,"x_max":189,"o":"m 64 400 l 64 1004 l 189 1004 l 189 849 l 131 400 l 64 400 z "},"š":{"ha":694,"x_min":43,"x_max":640,"o":"m 343 -17 q 113 50 183 -17 q 43 197 43 117 q 44 218 43 211 q 44 228 44 225 l 165 228 l 165 214 q 219 114 165 144 q 350 83 272 83 q 466 111 418 83 q 514 192 514 139 q 469 275 514 247 q 356 319 424 303 q 222 357 289 336 q 109 419 154 378 q 64 539 64 460 q 143 692 64 636 q 354 747 222 747 q 553 688 485 747 q 622 547 622 628 q 622 531 622 540 q 621 521 621 522 l 501 521 l 501 533 q 467 611 501 576 q 340 646 432 646 q 219 612 247 646 q 190 547 190 578 q 235 476 190 500 q 348 438 281 453 q 483 401 415 422 q 595 335 550 379 q 640 208 640 290 q 556 37 640 90 q 343 -17 471 -17 m 289 817 l 142 1004 l 267 1004 l 347 894 l 426 1004 l 551 1004 l 406 817 l 289 817 z "},"ş":{"ha":694,"x_min":43,"x_max":640,"o":"m 343 -17 q 113 50 183 -17 q 43 197 43 117 q 44 218 43 211 q 44 228 44 225 l 165 228 l 165 214 q 219 114 165 144 q 350 83 272 83 q 466 111 418 83 q 514 192 514 139 q 469 275 514 247 q 356 319 424 303 q 222 357 289 336 q 109 419 154 378 q 64 539 64 460 q 143 692 64 636 q 354 747 222 747 q 553 688 485 747 q 622 547 622 628 q 622 531 622 540 q 621 521 621 522 l 501 521 l 501 533 q 467 611 501 576 q 340 646 432 646 q 219 612 247 646 q 190 547 190 578 q 235 476 190 500 q 348 438 281 453 q 483 401 415 422 q 595 335 550 379 q 640 208 640 290 q 556 37 640 90 q 343 -17 471 -17 m 343 -253 q 211 -242 271 -253 l 211 -174 l 350 -174 q 407 -140 407 -174 q 353 -107 407 -107 l 282 -107 l 304 15 l 390 15 l 379 -50 q 469 -72 431 -53 q 507 -140 507 -92 q 449 -231 507 -210 q 343 -253 392 -253 z "},"ŝ":{"ha":694,"x_min":43,"x_max":640,"o":"m 343 -17 q 113 50 183 -17 q 43 197 43 117 q 44 218 43 211 q 44 228 44 225 l 165 228 l 165 214 q 219 114 165 144 q 350 83 272 83 q 466 111 418 83 q 514 192 514 139 q 469 275 514 247 q 356 319 424 303 q 222 357 289 336 q 109 419 154 378 q 64 539 64 460 q 143 692 64 636 q 354 747 222 747 q 553 688 485 747 q 622 547 622 628 q 622 531 622 540 q 621 521 621 522 l 501 521 l 501 533 q 467 611 501 576 q 340 646 432 646 q 219 612 247 646 q 190 547 190 578 q 235 476 190 500 q 348 438 281 453 q 483 401 415 422 q 595 335 550 379 q 640 208 640 290 q 556 37 640 90 q 343 -17 471 -17 m 142 817 l 289 1004 l 406 1004 l 551 817 l 426 817 l 347 926 l 267 817 l 142 817 z "},"ș":{"ha":694,"x_min":43,"x_max":640,"o":"m 343 -17 q 113 50 183 -17 q 43 197 43 117 q 44 218 43 211 q 44 228 44 225 l 165 228 l 165 214 q 219 114 165 144 q 350 83 272 83 q 466 111 418 83 q 514 192 514 139 q 469 275 514 247 q 356 319 424 303 q 222 357 289 336 q 109 419 154 378 q 64 539 64 460 q 143 692 64 636 q 354 747 222 747 q 553 688 485 747 q 622 547 622 628 q 622 531 622 540 q 621 521 621 522 l 501 521 l 501 533 q 467 611 501 576 q 340 646 432 646 q 219 612 247 646 q 190 547 190 578 q 235 476 190 500 q 348 438 281 453 q 483 401 415 422 q 595 335 550 379 q 640 208 640 290 q 556 37 640 90 q 343 -17 471 -17 m 286 -319 l 338 -207 l 286 -207 l 286 -81 l 408 -81 l 408 -197 l 349 -319 l 286 -319 z "},"ṣ":{"ha":694,"x_min":43,"x_max":640,"o":"m 343 -17 q 113 50 183 -17 q 43 197 43 117 q 44 218 43 211 q 44 228 44 225 l 165 228 l 165 214 q 219 114 165 144 q 350 83 272 83 q 466 111 418 83 q 514 192 514 139 q 469 275 514 247 q 356 319 424 303 q 222 357 289 336 q 109 419 154 378 q 64 539 64 460 q 143 692 64 636 q 354 747 222 747 q 553 688 485 747 q 622 547 622 628 q 622 531 622 540 q 621 521 621 522 l 501 521 l 501 533 q 467 611 501 576 q 340 646 432 646 q 219 612 247 646 q 190 547 190 578 q 235 476 190 500 q 348 438 281 453 q 483 401 415 422 q 595 335 550 379 q 640 208 640 290 q 556 37 640 90 q 343 -17 471 -17 z "},"ß":{"ha":849,"x_min":89,"x_max":807,"o":"m 89 0 l 89 717 q 192 950 89 879 q 436 1021 296 1021 q 681 950 590 1021 q 771 769 771 879 q 726 633 771 692 q 606 549 681 574 l 606 543 q 750 449 693 517 q 807 286 807 382 q 717 82 807 164 q 501 0 628 0 l 329 0 l 329 103 l 488 103 q 626 160 569 103 q 682 296 682 218 q 622 431 682 376 q 474 486 561 486 l 329 486 l 329 588 l 460 588 q 591 638 536 588 q 646 761 646 689 q 591 875 646 831 q 435 919 536 919 q 272 869 332 919 q 213 719 213 818 l 213 0 l 89 0 z "},"ſ":{"ha":386,"x_min":13,"x_max":382,"o":"m 119 0 l 119 629 l 13 629 l 13 731 l 119 731 l 119 847 q 151 963 119 910 q 278 1015 183 1015 q 335 1010 306 1015 q 382 999 364 1006 l 382 914 l 310 914 q 242 847 242 914 l 242 0 l 119 0 z "},"ə":{"ha":772,"x_min":54,"x_max":718,"o":"m 372 -17 q 135 65 217 -17 q 54 338 54 146 l 54 399 l 592 399 q 531 588 586 529 q 372 646 475 646 q 232 608 290 646 q 174 482 174 571 l 54 482 q 145 681 54 615 q 379 747 236 747 q 718 365 718 747 q 372 -17 718 -17 m 376 85 q 524 134 469 85 q 589 297 578 183 l 182 297 q 234 132 182 179 q 376 85 286 85 z "},"t":{"ha":386,"x_min":25,"x_max":360,"o":"m 258 -15 q 146 33 178 -15 q 114 139 114 82 l 114 629 l 25 629 l 25 731 l 115 731 l 142 933 l 236 933 l 236 731 l 360 731 l 360 629 l 236 629 l 236 150 q 297 85 236 85 l 360 85 l 360 4 q 313 -10 342 -4 q 258 -15 283 -15 z "},"ŧ":{"ha":386,"x_min":25,"x_max":360,"o":"m 258 -15 q 146 33 178 -15 q 114 139 114 82 l 114 365 l 25 365 l 25 451 l 114 451 l 114 629 l 25 629 l 25 731 l 115 731 l 142 933 l 236 933 l 236 731 l 360 731 l 360 629 l 236 629 l 236 451 l 360 451 l 360 365 l 236 365 l 236 150 q 297 85 236 85 l 360 85 l 360 4 q 313 -10 342 -4 q 258 -15 283 -15 z "},"ť":{"ha":521,"x_min":25,"x_max":517,"o":"m 399 732 l 446 878 l 399 878 l 399 1004 l 517 1004 l 517 888 l 460 732 l 399 732 m 258 -15 q 146 33 178 -15 q 114 139 114 82 l 114 629 l 25 629 l 25 731 l 115 731 l 142 933 l 236 933 l 236 731 l 360 731 l 360 629 l 236 629 l 236 150 q 297 85 236 85 l 360 85 l 360 4 q 313 -10 342 -4 q 258 -15 283 -15 z "},"ţ":{"ha":386,"x_min":25,"x_max":368,"o":"m 258 -15 q 146 33 178 -15 q 114 139 114 82 l 114 629 l 25 629 l 25 731 l 115 731 l 142 933 l 236 933 l 236 731 l 360 731 l 360 629 l 236 629 l 236 150 q 297 85 236 85 l 360 85 l 360 4 q 313 -10 342 -4 q 258 -15 283 -15 m 204 -253 q 72 -242 132 -253 l 72 -174 l 211 -174 q 268 -140 268 -174 q 214 -107 268 -107 l 143 -107 l 165 15 l 251 15 l 240 -50 q 330 -72 292 -53 q 368 -140 368 -92 q 310 -231 368 -210 q 204 -253 253 -253 z "},"ț":{"ha":386,"x_min":25,"x_max":360,"o":"m 258 -15 q 146 33 178 -15 q 114 139 114 82 l 114 629 l 25 629 l 25 731 l 115 731 l 142 933 l 236 933 l 236 731 l 360 731 l 360 629 l 236 629 l 236 150 q 297 85 236 85 l 360 85 l 360 4 q 313 -10 342 -4 q 258 -15 283 -15 m 147 -319 l 199 -207 l 147 -207 l 147 -81 l 269 -81 l 269 -197 l 210 -319 l 147 -319 z "},"ṭ":{"ha":386,"x_min":25,"x_max":360,"o":"m 258 -15 q 146 33 178 -15 q 114 139 114 82 l 114 629 l 25 629 l 25 731 l 115 731 l 142 933 l 236 933 l 236 731 l 360 731 l 360 629 l 236 629 l 236 150 q 297 85 236 85 l 360 85 l 360 4 q 313 -10 342 -4 q 258 -15 283 -15 z "},"u":{"ha":772,"x_min":89,"x_max":679,"o":"m 317 -17 q 151 40 213 -17 q 89 232 89 96 l 89 731 l 211 731 l 211 240 q 253 116 211 147 q 363 85 294 85 q 498 141 439 85 q 557 299 557 197 l 557 731 l 679 731 l 679 0 l 586 0 l 572 99 l 563 99 q 456 10 519 38 q 317 -17 392 -17 z "},"ú":{"ha":772,"x_min":89,"x_max":679,"o":"m 317 -17 q 151 40 213 -17 q 89 232 89 96 l 89 731 l 211 731 l 211 240 q 253 116 211 147 q 363 85 294 85 q 498 141 439 85 q 557 299 557 197 l 557 731 l 679 731 l 679 0 l 586 0 l 572 99 l 563 99 q 456 10 519 38 q 317 -17 392 -17 m 332 821 l 451 1004 l 585 1004 l 586 1000 l 436 821 l 332 821 z "},"ŭ":{"ha":772,"x_min":89,"x_max":679,"o":"m 317 -17 q 151 40 213 -17 q 89 232 89 96 l 89 731 l 211 731 l 211 240 q 253 116 211 147 q 363 85 294 85 q 498 141 439 85 q 557 299 557 197 l 557 731 l 679 731 l 679 0 l 586 0 l 572 99 l 563 99 q 456 10 519 38 q 317 -17 392 -17 m 383 842 q 224 894 267 842 q 182 1004 182 947 l 267 1004 q 294 956 272 981 q 383 931 317 931 q 474 956 450 931 q 501 1004 499 981 l 586 1004 q 543 894 586 947 q 383 842 500 842 z "},"ǔ":{"ha":772,"x_min":89,"x_max":679,"o":"m 317 -17 q 151 40 213 -17 q 89 232 89 96 l 89 731 l 211 731 l 211 240 q 253 116 211 147 q 363 85 294 85 q 498 141 439 85 q 557 299 557 197 l 557 731 l 679 731 l 679 0 l 586 0 l 572 99 l 563 99 q 456 10 519 38 q 317 -17 392 -17 m 326 817 l 179 1004 l 304 1004 l 385 894 l 464 1004 l 589 1004 l 443 817 l 326 817 z "},"û":{"ha":772,"x_min":89,"x_max":679,"o":"m 317 -17 q 151 40 213 -17 q 89 232 89 96 l 89 731 l 211 731 l 211 240 q 253 116 211 147 q 363 85 294 85 q 498 141 439 85 q 557 299 557 197 l 557 731 l 679 731 l 679 0 l 586 0 l 572 99 l 563 99 q 456 10 519 38 q 317 -17 392 -17 m 179 817 l 326 1004 l 443 1004 l 589 817 l 464 817 l 385 926 l 304 817 l 179 817 z "},"ȕ":{"ha":772,"x_min":89,"x_max":679,"o":"m 317 -17 q 151 40 213 -17 q 89 232 89 96 l 89 731 l 211 731 l 211 240 q 253 116 211 147 q 363 85 294 85 q 498 141 439 85 q 557 299 557 197 l 557 731 l 679 731 l 679 0 l 586 0 l 572 99 l 563 99 q 456 10 519 38 q 317 -17 392 -17 m 449 821 l 332 1000 l 333 1004 l 468 1004 l 554 821 l 449 821 m 256 821 l 139 1000 l 140 1004 l 275 1004 l 361 821 l 256 821 z "},"ü":{"ha":772,"x_min":89,"x_max":679,"o":"m 317 -17 q 151 40 213 -17 q 89 232 89 96 l 89 731 l 211 731 l 211 240 q 253 116 211 147 q 363 85 294 85 q 498 141 439 85 q 557 299 557 197 l 557 731 l 679 731 l 679 0 l 586 0 l 572 99 l 563 99 q 456 10 519 38 q 317 -17 392 -17 m 454 872 l 454 1004 l 575 1004 l 575 872 l 454 872 m 194 872 l 194 1004 l 315 1004 l 315 872 l 194 872 z "},"ǘ":{"ha":772,"x_min":89,"x_max":679,"o":"m 317 -17 q 151 40 213 -17 q 89 232 89 96 l 89 731 l 211 731 l 211 240 q 253 116 211 147 q 363 85 294 85 q 498 141 439 85 q 557 299 557 197 l 557 731 l 679 731 l 679 0 l 586 0 l 572 99 l 563 99 q 456 10 519 38 q 317 -17 392 -17 m 454 872 l 454 1004 l 575 1004 l 575 872 l 454 872 m 194 872 l 194 1004 l 315 1004 l 315 872 l 194 872 m 332 1053 l 451 1236 l 585 1236 l 586 1232 l 436 1053 l 332 1053 z "},"ǚ":{"ha":772,"x_min":89,"x_max":679,"o":"m 317 -17 q 151 40 213 -17 q 89 232 89 96 l 89 731 l 211 731 l 211 240 q 253 116 211 147 q 363 85 294 85 q 498 141 439 85 q 557 299 557 197 l 557 731 l 679 731 l 679 0 l 586 0 l 572 99 l 563 99 q 456 10 519 38 q 317 -17 392 -17 m 454 872 l 454 1004 l 575 1004 l 575 872 l 454 872 m 194 872 l 194 1004 l 315 1004 l 315 872 l 194 872 m 326 1049 l 179 1236 l 304 1236 l 385 1126 l 464 1236 l 589 1236 l 443 1049 l 326 1049 z "},"ǜ":{"ha":772,"x_min":89,"x_max":679,"o":"m 317 -17 q 151 40 213 -17 q 89 232 89 96 l 89 731 l 211 731 l 211 240 q 253 116 211 147 q 363 85 294 85 q 498 141 439 85 q 557 299 557 197 l 557 731 l 679 731 l 679 0 l 586 0 l 572 99 l 563 99 q 456 10 519 38 q 317 -17 392 -17 m 454 872 l 454 1004 l 575 1004 l 575 872 l 454 872 m 194 872 l 194 1004 l 315 1004 l 315 872 l 194 872 m 332 1053 l 182 1232 l 183 1236 l 317 1236 l 436 1053 l 332 1053 z "},"ǖ":{"ha":772,"x_min":89,"x_max":679,"o":"m 317 -17 q 151 40 213 -17 q 89 232 89 96 l 89 731 l 211 731 l 211 240 q 253 116 211 147 q 363 85 294 85 q 498 141 439 85 q 557 299 557 197 l 557 731 l 679 731 l 679 0 l 586 0 l 572 99 l 563 99 q 456 10 519 38 q 317 -17 392 -17 m 454 872 l 454 1004 l 575 1004 l 575 872 l 454 872 m 194 872 l 194 1004 l 315 1004 l 315 872 l 194 872 m 172 1103 l 172 1203 l 596 1203 l 596 1103 l 172 1103 z "},"ụ":{"ha":772,"x_min":89,"x_max":679,"o":"m 317 -17 q 151 40 213 -17 q 89 232 89 96 l 89 731 l 211 731 l 211 240 q 253 116 211 147 q 363 85 294 85 q 498 141 439 85 q 557 299 557 197 l 557 731 l 679 731 l 679 0 l 586 0 l 572 99 l 563 99 q 456 10 519 38 q 317 -17 392 -17 z "},"ù":{"ha":772,"x_min":89,"x_max":679,"o":"m 317 -17 q 151 40 213 -17 q 89 232 89 96 l 89 731 l 211 731 l 211 240 q 253 116 211 147 q 363 85 294 85 q 498 141 439 85 q 557 299 557 197 l 557 731 l 679 731 l 679 0 l 586 0 l 572 99 l 563 99 q 456 10 519 38 q 317 -17 392 -17 m 332 821 l 182 1000 l 183 1004 l 317 1004 l 436 821 l 332 821 z "},"ủ":{"ha":772,"x_min":89,"x_max":679,"o":"m 317 -17 q 151 40 213 -17 q 89 232 89 96 l 89 731 l 211 731 l 211 240 q 253 116 211 147 q 363 85 294 85 q 498 141 439 85 q 557 299 557 197 l 557 731 l 679 731 l 679 0 l 586 0 l 572 99 l 563 99 q 456 10 519 38 q 317 -17 392 -17 m 346 821 l 346 906 l 364 906 q 404 931 404 906 q 361 956 404 956 l 278 956 l 278 1010 q 378 1021 325 1021 q 461 1005 418 1021 q 504 938 504 989 q 479 881 504 900 q 424 860 454 863 l 424 821 l 346 821 z "},"ư":{"ha":772,"x_min":89,"x_max":842,"o":"m 317 -17 q 151 40 213 -17 q 89 232 89 96 l 89 731 l 211 731 l 211 240 q 253 116 211 147 q 363 85 294 85 q 498 141 439 85 q 557 299 557 197 l 557 731 l 679 731 l 679 0 l 586 0 l 572 99 l 563 99 q 456 10 519 38 q 317 -17 392 -17 m 561 653 l 561 731 q 756 910 756 754 l 842 929 q 771 741 842 813 q 561 653 700 669 m 675 854 l 675 1004 l 842 1004 l 842 929 l 785 854 l 675 854 z "},"ứ":{"ha":772,"x_min":89,"x_max":842,"o":"m 317 -17 q 151 40 213 -17 q 89 232 89 96 l 89 731 l 211 731 l 211 240 q 253 116 211 147 q 363 85 294 85 q 498 141 439 85 q 557 299 557 197 l 557 731 l 679 731 l 679 0 l 586 0 l 572 99 l 563 99 q 456 10 519 38 q 317 -17 392 -17 m 561 653 l 561 731 q 756 910 756 754 l 842 929 q 771 741 842 813 q 561 653 700 669 m 675 854 l 675 1004 l 842 1004 l 842 929 l 785 854 l 675 854 m 332 821 l 451 1004 l 585 1004 l 586 1000 l 436 821 l 332 821 z "},"ự":{"ha":772,"x_min":89,"x_max":842,"o":"m 317 -17 q 151 40 213 -17 q 89 232 89 96 l 89 731 l 211 731 l 211 240 q 253 116 211 147 q 363 85 294 85 q 498 141 439 85 q 557 299 557 197 l 557 731 l 679 731 l 679 0 l 586 0 l 572 99 l 563 99 q 456 10 519 38 q 317 -17 392 -17 m 561 653 l 561 731 q 756 910 756 754 l 842 929 q 771 741 842 813 q 561 653 700 669 m 675 854 l 675 1004 l 842 1004 l 842 929 l 785 854 l 675 854 z "},"ừ":{"ha":772,"x_min":89,"x_max":842,"o":"m 317 -17 q 151 40 213 -17 q 89 232 89 96 l 89 731 l 211 731 l 211 240 q 253 116 211 147 q 363 85 294 85 q 498 141 439 85 q 557 299 557 197 l 557 731 l 679 731 l 679 0 l 586 0 l 572 99 l 563 99 q 456 10 519 38 q 317 -17 392 -17 m 561 653 l 561 731 q 756 910 756 754 l 842 929 q 771 741 842 813 q 561 653 700 669 m 675 854 l 675 1004 l 842 1004 l 842 929 l 785 854 l 675 854 m 332 821 l 182 1000 l 183 1004 l 317 1004 l 436 821 l 332 821 z "},"ử":{"ha":772,"x_min":89,"x_max":842,"o":"m 317 -17 q 151 40 213 -17 q 89 232 89 96 l 89 731 l 211 731 l 211 240 q 253 116 211 147 q 363 85 294 85 q 498 141 439 85 q 557 299 557 197 l 557 731 l 679 731 l 679 0 l 586 0 l 572 99 l 563 99 q 456 10 519 38 q 317 -17 392 -17 m 561 653 l 561 731 q 756 910 756 754 l 842 929 q 771 741 842 813 q 561 653 700 669 m 675 854 l 675 1004 l 842 1004 l 842 929 l 785 854 l 675 854 m 346 821 l 346 906 l 364 906 q 404 931 404 906 q 361 956 404 956 l 278 956 l 278 1010 q 378 1021 325 1021 q 461 1005 418 1021 q 504 938 504 989 q 479 881 504 900 q 424 860 454 863 l 424 821 l 346 821 z "},"ữ":{"ha":772,"x_min":89,"x_max":842,"o":"m 317 -17 q 151 40 213 -17 q 89 232 89 96 l 89 731 l 211 731 l 211 240 q 253 116 211 147 q 363 85 294 85 q 498 141 439 85 q 557 299 557 197 l 557 731 l 679 731 l 679 0 l 586 0 l 572 99 l 563 99 q 456 10 519 38 q 317 -17 392 -17 m 561 653 l 561 731 q 756 910 756 754 l 842 929 q 771 741 842 813 q 561 653 700 669 m 675 854 l 675 1004 l 842 1004 l 842 929 l 785 854 l 675 854 m 157 860 q 185 961 157 918 q 275 1004 213 1004 q 382 983 333 1004 q 482 961 431 961 q 521 1004 517 961 l 611 1004 q 583 903 611 946 q 493 860 556 860 q 387 881 435 860 q 286 903 339 903 q 247 860 251 903 l 157 860 z "},"ű":{"ha":772,"x_min":89,"x_max":679,"o":"m 317 -17 q 151 40 213 -17 q 89 232 89 96 l 89 731 l 211 731 l 211 240 q 253 116 211 147 q 363 85 294 85 q 498 141 439 85 q 557 299 557 197 l 557 731 l 679 731 l 679 0 l 586 0 l 572 99 l 563 99 q 456 10 519 38 q 317 -17 392 -17 m 428 821 l 514 1004 l 649 1004 l 650 1000 l 533 821 l 428 821 m 235 821 l 321 1004 l 456 1004 l 457 1000 l 340 821 l 235 821 z "},"ȗ":{"ha":772,"x_min":89,"x_max":679,"o":"m 317 -17 q 151 40 213 -17 q 89 232 89 96 l 89 731 l 211 731 l 211 240 q 253 116 211 147 q 363 85 294 85 q 498 141 439 85 q 557 299 557 197 l 557 731 l 679 731 l 679 0 l 586 0 l 572 99 l 563 99 q 456 10 519 38 q 317 -17 392 -17 m 182 842 q 224 951 182 899 q 383 1004 267 1004 q 543 951 500 1004 q 586 842 586 899 l 501 842 q 474 890 499 864 q 383 915 450 915 q 294 890 317 915 q 267 842 272 864 l 182 842 z "},"ū":{"ha":772,"x_min":89,"x_max":679,"o":"m 317 -17 q 151 40 213 -17 q 89 232 89 96 l 89 731 l 211 731 l 211 240 q 253 116 211 147 q 363 85 294 85 q 498 141 439 85 q 557 299 557 197 l 557 731 l 679 731 l 679 0 l 586 0 l 572 99 l 563 99 q 456 10 519 38 q 317 -17 392 -17 m 172 871 l 172 971 l 596 971 l 596 871 l 172 871 z "},"ų":{"ha":772,"x_min":89,"x_max":679,"o":"m 594 -253 q 500 -228 547 -253 q 453 -139 453 -203 q 488 -47 453 -86 q 585 10 522 -8 l 572 99 l 563 99 q 456 10 519 38 q 317 -17 392 -17 q 151 40 213 -17 q 89 232 89 96 l 89 731 l 211 731 l 211 240 q 253 116 211 147 q 363 85 294 85 q 498 141 439 85 q 557 299 557 197 l 557 731 l 679 731 l 679 0 q 599 -41 636 -12 q 561 -106 561 -69 q 578 -145 561 -128 q 635 -162 594 -162 l 679 -162 l 679 -233 q 594 -253 633 -253 z "},"ů":{"ha":772,"x_min":89,"x_max":679,"o":"m 317 -17 q 151 40 213 -17 q 89 232 89 96 l 89 731 l 211 731 l 211 240 q 253 116 211 147 q 363 85 294 85 q 498 141 439 85 q 557 299 557 197 l 557 731 l 679 731 l 679 0 l 586 0 l 572 99 l 563 99 q 456 10 519 38 q 317 -17 392 -17 m 385 786 q 287 825 322 786 q 251 919 251 864 q 287 1014 251 975 q 385 1053 322 1053 q 483 1014 447 1053 q 518 919 518 975 q 483 825 518 864 q 385 786 447 786 m 385 849 q 436 869 417 849 q 456 919 456 890 q 436 969 456 949 q 385 990 417 990 q 333 969 353 990 q 314 919 314 949 q 333 869 314 890 q 385 849 353 849 z "},"ũ":{"ha":772,"x_min":89,"x_max":679,"o":"m 317 -17 q 151 40 213 -17 q 89 232 89 96 l 89 731 l 211 731 l 211 240 q 253 116 211 147 q 363 85 294 85 q 498 141 439 85 q 557 299 557 197 l 557 731 l 679 731 l 679 0 l 586 0 l 572 99 l 563 99 q 456 10 519 38 q 317 -17 392 -17 m 157 860 q 185 961 157 918 q 275 1004 213 1004 q 382 983 333 1004 q 482 961 431 961 q 521 1004 517 961 l 611 1004 q 583 903 611 946 q 493 860 556 860 q 387 881 435 860 q 286 903 339 903 q 247 860 251 903 l 157 860 z "},"v":{"ha":694,"x_min":18,"x_max":676,"o":"m 286 0 l 18 731 l 147 731 l 276 365 q 308 271 292 325 q 337 176 325 217 q 349 136 349 136 l 356 136 q 367 174 356 136 q 394 266 378 213 q 426 365 411 319 l 554 731 l 676 731 l 408 0 l 286 0 z "},"w":{"ha":1003,"x_min":7,"x_max":994,"o":"m 226 0 l 7 731 l 133 731 l 246 317 q 262 256 251 297 q 281 179 272 214 q 289 144 289 144 l 296 144 q 303 181 296 144 q 319 258 311 217 q 332 317 328 300 l 428 731 l 576 731 l 678 317 q 692 256 683 297 q 708 179 700 214 q 715 144 715 144 l 722 144 q 730 178 722 144 q 748 253 738 211 q 764 317 758 294 l 875 731 l 994 731 l 775 0 l 642 0 l 536 436 q 516 526 529 467 q 503 586 503 586 l 497 586 q 485 526 497 586 q 465 436 472 467 l 361 0 l 226 0 z "},"ẃ":{"ha":1003,"x_min":7,"x_max":994,"o":"m 226 0 l 7 731 l 133 731 l 246 317 q 262 256 251 297 q 281 179 272 214 q 289 144 289 144 l 296 144 q 303 181 296 144 q 319 258 311 217 q 332 317 328 300 l 428 731 l 576 731 l 678 317 q 692 256 683 297 q 708 179 700 214 q 715 144 715 144 l 722 144 q 730 178 722 144 q 748 253 738 211 q 764 317 758 294 l 875 731 l 994 731 l 775 0 l 642 0 l 536 436 q 516 526 529 467 q 503 586 503 586 l 497 586 q 485 526 497 586 q 465 436 472 467 l 361 0 l 226 0 m 449 821 l 568 1004 l 701 1004 l 703 1000 l 553 821 l 449 821 z "},"ŵ":{"ha":1003,"x_min":7,"x_max":994,"o":"m 226 0 l 7 731 l 133 731 l 246 317 q 262 256 251 297 q 281 179 272 214 q 289 144 289 144 l 296 144 q 303 181 296 144 q 319 258 311 217 q 332 317 328 300 l 428 731 l 576 731 l 678 317 q 692 256 683 297 q 708 179 700 214 q 715 144 715 144 l 722 144 q 730 178 722 144 q 748 253 738 211 q 764 317 758 294 l 875 731 l 994 731 l 775 0 l 642 0 l 536 436 q 516 526 529 467 q 503 586 503 586 l 497 586 q 485 526 497 586 q 465 436 472 467 l 361 0 l 226 0 m 296 817 l 443 1004 l 560 1004 l 706 817 l 581 817 l 501 926 l 421 817 l 296 817 z "},"ẅ":{"ha":1003,"x_min":7,"x_max":994,"o":"m 226 0 l 7 731 l 133 731 l 246 317 q 262 256 251 297 q 281 179 272 214 q 289 144 289 144 l 296 144 q 303 181 296 144 q 319 258 311 217 q 332 317 328 300 l 428 731 l 576 731 l 678 317 q 692 256 683 297 q 708 179 700 214 q 715 144 715 144 l 722 144 q 730 178 722 144 q 748 253 738 211 q 764 317 758 294 l 875 731 l 994 731 l 775 0 l 642 0 l 536 436 q 516 526 529 467 q 503 586 503 586 l 497 586 q 485 526 497 586 q 465 436 472 467 l 361 0 l 226 0 m 571 872 l 571 1004 l 692 1004 l 692 872 l 571 872 m 311 872 l 311 1004 l 432 1004 l 432 872 l 311 872 z "},"ẁ":{"ha":1003,"x_min":7,"x_max":994,"o":"m 226 0 l 7 731 l 133 731 l 246 317 q 262 256 251 297 q 281 179 272 214 q 289 144 289 144 l 296 144 q 303 181 296 144 q 319 258 311 217 q 332 317 328 300 l 428 731 l 576 731 l 678 317 q 692 256 683 297 q 708 179 700 214 q 715 144 715 144 l 722 144 q 730 178 722 144 q 748 253 738 211 q 764 317 758 294 l 875 731 l 994 731 l 775 0 l 642 0 l 536 436 q 516 526 529 467 q 503 586 503 586 l 497 586 q 485 526 497 586 q 465 436 472 467 l 361 0 l 226 0 m 449 821 l 299 1000 l 300 1004 l 433 1004 l 553 821 l 449 821 z "},"x":{"ha":694,"x_min":10,"x_max":685,"o":"m 10 0 l 281 374 l 22 731 l 171 731 l 344 471 l 353 471 l 531 731 l 672 731 l 414 376 l 685 0 l 538 0 l 350 281 l 342 281 l 151 0 l 10 0 z "},"y":{"ha":694,"x_min":18,"x_max":676,"o":"m 163 -253 q 105 -250 128 -253 q 65 -242 82 -247 l 65 -162 l 114 -162 q 224 -128 174 -162 q 300 0 274 -94 l 18 731 l 147 731 l 283 365 q 317 271 299 325 q 349 176 336 217 q 363 136 363 136 l 369 136 q 381 174 369 136 q 407 266 392 213 q 438 365 422 319 l 554 731 l 676 731 l 436 38 q 334 -167 394 -81 q 163 -253 274 -253 z "},"ý":{"ha":694,"x_min":18,"x_max":676,"o":"m 163 -253 q 105 -250 128 -253 q 65 -242 82 -247 l 65 -162 l 114 -162 q 224 -128 174 -162 q 300 0 274 -94 l 18 731 l 147 731 l 283 365 q 317 271 299 325 q 349 176 336 217 q 363 136 363 136 l 369 136 q 381 174 369 136 q 407 266 392 213 q 438 365 422 319 l 554 731 l 676 731 l 436 38 q 334 -167 394 -81 q 163 -253 274 -253 m 294 821 l 414 1004 l 547 1004 l 549 1000 l 399 821 l 294 821 z "},"ŷ":{"ha":694,"x_min":18,"x_max":676,"o":"m 163 -253 q 105 -250 128 -253 q 65 -242 82 -247 l 65 -162 l 114 -162 q 224 -128 174 -162 q 300 0 274 -94 l 18 731 l 147 731 l 283 365 q 317 271 299 325 q 349 176 336 217 q 363 136 363 136 l 369 136 q 381 174 369 136 q 407 266 392 213 q 438 365 422 319 l 554 731 l 676 731 l 436 38 q 334 -167 394 -81 q 163 -253 274 -253 m 142 817 l 289 1004 l 406 1004 l 551 817 l 426 817 l 347 926 l 267 817 l 142 817 z "},"ÿ":{"ha":694,"x_min":18,"x_max":676,"o":"m 163 -253 q 105 -250 128 -253 q 65 -242 82 -247 l 65 -162 l 114 -162 q 224 -128 174 -162 q 300 0 274 -94 l 18 731 l 147 731 l 283 365 q 317 271 299 325 q 349 176 336 217 q 363 136 363 136 l 369 136 q 381 174 369 136 q 407 266 392 213 q 438 365 422 319 l 554 731 l 676 731 l 436 38 q 334 -167 394 -81 q 163 -253 274 -253 m 417 872 l 417 1004 l 538 1004 l 538 872 l 417 872 m 157 872 l 157 1004 l 278 1004 l 278 872 l 157 872 z "},"ỵ":{"ha":694,"x_min":18,"x_max":676,"o":"m 163 -253 q 105 -250 128 -253 q 65 -242 82 -247 l 65 -162 l 114 -162 q 224 -128 174 -162 q 300 0 274 -94 l 18 731 l 147 731 l 283 365 q 317 271 299 325 q 349 176 336 217 q 363 136 363 136 l 369 136 q 381 174 369 136 q 407 266 392 213 q 438 365 422 319 l 554 731 l 676 731 l 436 38 q 334 -167 394 -81 q 163 -253 274 -253 z "},"ỳ":{"ha":694,"x_min":18,"x_max":676,"o":"m 163 -253 q 105 -250 128 -253 q 65 -242 82 -247 l 65 -162 l 114 -162 q 224 -128 174 -162 q 300 0 274 -94 l 18 731 l 147 731 l 283 365 q 317 271 299 325 q 349 176 336 217 q 363 136 363 136 l 369 136 q 381 174 369 136 q 407 266 392 213 q 438 365 422 319 l 554 731 l 676 731 l 436 38 q 334 -167 394 -81 q 163 -253 274 -253 m 294 821 l 144 1000 l 146 1004 l 279 1004 l 399 821 l 294 821 z "},"ỷ":{"ha":694,"x_min":18,"x_max":676,"o":"m 163 -253 q 105 -250 128 -253 q 65 -242 82 -247 l 65 -162 l 114 -162 q 224 -128 174 -162 q 300 0 274 -94 l 18 731 l 147 731 l 283 365 q 317 271 299 325 q 349 176 336 217 q 363 136 363 136 l 369 136 q 381 174 369 136 q 407 266 392 213 q 438 365 422 319 l 554 731 l 676 731 l 436 38 q 334 -167 394 -81 q 163 -253 274 -253 m 308 821 l 308 906 l 326 906 q 367 931 367 906 q 324 956 367 956 l 240 956 l 240 1010 q 340 1021 288 1021 q 424 1005 381 1021 q 467 938 467 989 q 442 881 467 900 q 386 860 417 863 l 386 821 l 308 821 z "},"ȳ":{"ha":694,"x_min":18,"x_max":676,"o":"m 163 -253 q 105 -250 128 -253 q 65 -242 82 -247 l 65 -162 l 114 -162 q 224 -128 174 -162 q 300 0 274 -94 l 18 731 l 147 731 l 283 365 q 317 271 299 325 q 349 176 336 217 q 363 136 363 136 l 369 136 q 381 174 369 136 q 407 266 392 213 q 438 365 422 319 l 554 731 l 676 731 l 436 38 q 334 -167 394 -81 q 163 -253 274 -253 m 135 871 l 135 971 l 558 971 l 558 871 l 135 871 z "},"ỹ":{"ha":694,"x_min":18,"x_max":676,"o":"m 163 -253 q 105 -250 128 -253 q 65 -242 82 -247 l 65 -162 l 114 -162 q 224 -128 174 -162 q 300 0 274 -94 l 18 731 l 147 731 l 283 365 q 317 271 299 325 q 349 176 336 217 q 363 136 363 136 l 369 136 q 381 174 369 136 q 407 266 392 213 q 438 365 422 319 l 554 731 l 676 731 l 436 38 q 334 -167 394 -81 q 163 -253 274 -253 m 119 860 q 147 961 119 918 q 238 1004 175 1004 q 344 983 296 1004 q 444 961 393 961 q 483 1004 479 961 l 574 1004 q 546 903 574 946 q 456 860 518 860 q 349 881 397 860 q 249 903 301 903 q 210 860 214 903 l 119 860 z "},"z":{"ha":694,"x_min":33,"x_max":660,"o":"m 33 0 l 33 65 l 457 629 l 63 629 l 63 731 l 636 731 l 636 667 l 211 101 l 660 101 l 660 0 l 33 0 z "},"ź":{"ha":694,"x_min":33,"x_max":660,"o":"m 33 0 l 33 65 l 457 629 l 63 629 l 63 731 l 636 731 l 636 667 l 211 101 l 660 101 l 660 0 l 33 0 m 294 821 l 414 1004 l 547 1004 l 549 1000 l 399 821 l 294 821 z "},"ž":{"ha":694,"x_min":33,"x_max":660,"o":"m 33 0 l 33 65 l 457 629 l 63 629 l 63 731 l 636 731 l 636 667 l 211 101 l 660 101 l 660 0 l 33 0 m 289 817 l 142 1004 l 267 1004 l 347 894 l 426 1004 l 551 1004 l 406 817 l 289 817 z "},"ż":{"ha":694,"x_min":33,"x_max":660,"o":"m 33 0 l 33 65 l 457 629 l 63 629 l 63 731 l 636 731 l 636 667 l 211 101 l 660 101 l 660 0 l 33 0 m 286 872 l 286 1004 l 407 1004 l 407 872 l 286 872 z "},"ẓ":{"ha":694,"x_min":33,"x_max":660,"o":"m 33 0 l 33 65 l 457 629 l 63 629 l 63 731 l 636 731 l 636 667 l 211 101 l 660 101 l 660 0 l 33 0 z "},"ﬁ":{"ha":694,"x_min":13,"x_max":601,"o":"m 119 0 l 119 629 l 13 629 l 13 731 l 119 731 l 119 847 q 151 963 119 910 q 278 1015 183 1015 q 335 1010 306 1015 q 382 999 364 1006 l 382 914 l 310 914 q 242 847 242 914 l 242 731 l 382 731 l 382 629 l 242 629 l 242 0 l 119 0 m 479 0 l 479 731 l 601 731 l 601 0 l 479 0 m 479 868 l 479 1004 l 601 1004 l 601 868 l 479 868 z "},"ﬂ":{"ha":694,"x_min":13,"x_max":601,"o":"m 119 0 l 119 629 l 13 629 l 13 731 l 119 731 l 119 847 q 151 963 119 910 q 278 1015 183 1015 q 335 1010 306 1015 q 382 999 364 1006 l 382 914 l 310 914 q 242 847 242 914 l 242 731 l 382 731 l 382 629 l 242 629 l 242 0 l 119 0 m 479 0 l 479 1004 l 601 1004 l 601 0 l 479 0 z "},"ª":{"ha":514,"x_min":32,"x_max":515,"o":"m 197 503 q 91 528 150 503 q 32 643 32 553 q 122 779 32 747 q 350 811 213 811 l 350 871 q 330 927 350 906 q 251 949 310 949 q 173 924 194 949 q 151 872 151 900 l 151 858 l 56 858 q 56 869 56 864 q 56 882 56 875 q 112 985 56 950 q 256 1021 168 1021 q 446 882 446 1021 l 446 607 q 476 576 446 576 l 515 576 l 515 519 q 490 510 507 514 q 450 507 472 507 q 380 531 407 507 q 353 592 353 554 q 353 596 353 594 q 353 600 353 597 l 396 565 l 354 565 q 287 519 328 536 q 197 503 246 503 m 219 576 q 308 606 265 576 q 350 694 350 635 l 350 738 q 193 720 254 738 q 132 647 132 703 q 219 576 132 576 z "},"º":{"ha":507,"x_min":31,"x_max":476,"o":"m 254 501 q 31 761 31 501 q 254 1021 31 1021 q 476 761 476 1021 q 254 501 476 501 m 254 575 q 378 761 378 575 l 378 754 q 254 947 378 947 q 132 768 132 947 l 132 761 q 254 575 132 575 z "},"ⁿ":{"ha":507,"x_min":54,"x_max":454,"o":"m 54 514 l 54 1010 l 131 1010 l 140 943 l 147 943 q 214 1003 175 985 q 300 1021 253 1021 q 413 983 371 1021 q 454 853 454 944 l 454 514 l 358 514 l 358 846 q 333 927 358 906 q 269 949 308 949 q 186 910 222 949 q 150 807 150 872 l 150 514 l 54 514 z "},"Δ":{"ha":926,"x_min":10,"x_max":917,"o":"m 10 0 l 379 953 l 547 953 l 917 0 l 10 0 m 192 115 l 729 115 q 706 178 718 147 q 683 240 694 208 l 522 671 q 502 724 513 697 q 482 778 492 751 q 463 832 472 806 l 456 832 q 435 778 446 806 q 415 724 425 751 q 396 671 406 697 l 236 238 q 214 176 225 207 q 192 115 203 146 z "},"Ω":{"ha":1039,"x_min":51,"x_max":988,"o":"m 51 0 l 51 117 l 107 117 q 163 115 131 117 q 233 111 194 113 q 109 263 153 172 q 65 476 65 354 q 187 847 65 725 q 519 969 308 969 q 852 847 731 969 q 974 476 974 725 q 928 263 974 354 q 803 111 883 172 q 865 115 833 113 q 932 117 896 117 l 988 117 l 988 0 l 560 0 l 560 99 q 763 200 689 125 q 838 476 838 275 l 838 469 q 752 770 838 683 q 519 857 667 857 q 287 773 372 857 q 201 483 201 689 l 201 476 q 276 200 201 275 q 478 99 350 125 l 478 0 l 51 0 z "},"μ":{"ha":800,"x_min":107,"x_max":697,"o":"m 107 -240 l 107 731 l 229 731 l 229 240 q 271 116 229 147 q 381 85 313 85 q 517 141 458 85 q 575 299 575 197 l 575 731 l 697 731 l 697 0 l 604 0 l 590 99 l 581 99 q 358 -17 504 -17 q 229 17 283 -17 q 229 -27 229 -6 q 229 -71 229 -49 l 229 -240 l 107 -240 z "},"π":{"ha":958,"x_min":33,"x_max":915,"o":"m 128 0 q 181 188 157 74 q 221 420 206 301 q 239 629 236 539 q 124 625 167 629 q 54 611 81 621 l 33 689 q 123 719 63 708 q 283 731 183 731 l 915 731 l 901 629 l 767 629 l 767 217 q 772 81 767 131 q 789 0 778 31 l 669 0 q 643 204 643 39 l 643 629 l 364 629 q 342 415 358 539 q 301 176 325 292 q 250 0 278 61 l 128 0 z "},"¹":{"ha":463,"x_min":71,"x_max":392,"o":"m 71 456 l 71 533 l 193 533 l 193 846 l 71 846 l 71 901 q 154 919 106 906 q 239 953 203 933 l 281 953 l 281 533 l 392 533 l 392 456 l 71 456 z "},"²":{"ha":463,"x_min":57,"x_max":407,"o":"m 57 465 l 57 499 q 102 607 57 564 q 200 689 147 650 q 251 728 226 708 q 292 768 275 747 q 315 826 315 799 q 301 870 315 847 q 239 893 286 893 q 171 870 190 893 q 151 815 151 847 l 151 781 l 65 781 q 64 792 65 781 q 63 814 63 803 q 116 934 63 897 q 242 971 169 971 q 324 956 288 971 q 383 908 361 940 q 404 825 404 876 q 356 709 404 754 q 253 624 307 664 q 201 583 226 604 q 165 543 175 563 l 407 543 l 407 465 l 57 465 z "},"³":{"ha":463,"x_min":53,"x_max":413,"o":"m 235 456 q 100 497 147 456 q 53 611 53 539 l 53 629 l 140 629 l 140 608 q 229 532 140 532 q 322 608 322 532 q 293 663 322 649 q 226 678 264 678 l 185 678 l 185 756 l 229 756 q 288 772 263 756 q 314 824 314 789 q 290 877 314 861 q 233 893 265 893 q 174 876 197 893 q 150 821 150 858 l 150 801 l 63 801 l 63 828 q 110 931 63 892 q 232 969 158 969 q 355 933 308 969 q 401 828 401 896 q 381 765 401 790 q 331 724 361 740 l 331 721 q 413 603 413 685 q 363 495 413 535 q 235 456 313 456 z "},"⁄":{"ha":232,"x_min":-314,"x_max":544,"o":"m -314 -17 l 444 969 l 544 969 l -214 -17 l -314 -17 z "},"½":{"ha":1158,"x_min":71,"x_max":1083,"o":"m 150 -17 l 908 969 l 1008 969 l 250 -17 l 150 -17 m 71 456 l 71 533 l 193 533 l 193 846 l 71 846 l 71 901 q 154 919 106 906 q 239 953 203 933 l 281 953 l 281 533 l 392 533 l 392 456 l 71 456 m 733 0 l 733 33 q 779 141 733 97 q 876 224 825 185 q 933 267 906 246 q 975 313 960 289 q 992 361 992 336 q 977 405 992 382 q 915 428 963 428 q 847 404 867 428 q 828 350 828 381 l 828 315 l 742 315 q 739 349 739 335 q 792 469 739 432 q 918 506 846 506 q 1001 490 964 506 q 1059 443 1038 475 q 1081 360 1081 411 q 1032 246 1081 294 q 929 158 983 197 q 877 118 903 139 q 842 78 851 97 l 1083 78 l 1083 0 l 733 0 z "},"⅓":{"ha":1158,"x_min":71,"x_max":1100,"o":"m 150 -17 l 908 969 l 1008 969 l 250 -17 l 150 -17 m 71 456 l 71 533 l 193 533 l 193 846 l 71 846 l 71 901 q 154 919 106 906 q 239 953 203 933 l 281 953 l 281 533 l 392 533 l 392 456 l 71 456 m 922 -17 q 788 25 835 -17 q 740 139 740 67 l 740 157 l 828 157 l 828 136 q 917 60 828 60 q 1010 136 1010 60 q 981 191 1010 176 q 914 206 951 206 l 872 206 l 872 283 l 917 283 q 976 300 950 283 q 1001 351 1001 317 q 977 405 1001 389 q 921 421 953 421 q 862 403 886 421 q 838 349 838 386 l 838 329 l 750 329 l 750 356 q 798 458 750 419 q 919 497 846 497 q 1042 460 996 497 q 1089 356 1089 424 q 1068 293 1089 318 q 1017 251 1047 268 l 1017 249 q 1100 131 1100 213 q 1050 23 1100 63 q 922 -17 1000 -17 z "},"⅔":{"ha":1158,"x_min":54,"x_max":1100,"o":"m 150 -17 l 908 969 l 1008 969 l 250 -17 l 150 -17 m 54 464 l 54 497 q 99 605 54 561 q 197 688 144 649 q 242 721 219 704 q 279 756 264 738 q 313 825 313 789 q 298 869 313 846 q 236 892 283 892 q 168 868 188 892 q 149 814 149 844 l 149 779 l 63 779 q 61 790 63 779 q 60 813 60 801 q 113 933 60 896 q 239 969 167 969 q 322 954 285 969 q 380 907 358 939 q 401 824 401 875 q 353 710 401 758 q 250 622 304 661 q 198 582 224 603 q 163 542 172 561 l 404 542 l 404 464 l 54 464 m 922 -17 q 788 25 835 -17 q 740 139 740 67 l 740 157 l 828 157 l 828 136 q 917 60 828 60 q 1010 136 1010 60 q 981 191 1010 176 q 914 206 951 206 l 872 206 l 872 283 l 917 283 q 976 300 950 283 q 1001 351 1001 317 q 977 405 1001 389 q 921 421 953 421 q 862 403 886 421 q 838 349 838 386 l 838 329 l 750 329 l 750 356 q 798 458 750 419 q 919 497 846 497 q 1042 460 996 497 q 1089 356 1089 424 q 1068 293 1089 318 q 1017 251 1047 268 l 1017 249 q 1100 131 1100 213 q 1050 23 1100 63 q 922 -17 1000 -17 z "},"¼":{"ha":1158,"x_min":71,"x_max":1079,"o":"m 150 -17 l 908 969 l 1008 969 l 250 -17 l 150 -17 m 71 456 l 71 533 l 193 533 l 193 846 l 71 846 l 71 901 q 154 919 106 906 q 239 953 203 933 l 281 953 l 281 533 l 392 533 l 392 456 l 71 456 m 929 0 l 929 114 l 710 114 l 710 185 q 780 337 750 258 q 829 506 810 415 l 921 506 q 863 326 901 417 q 797 192 824 236 l 929 192 l 929 325 q 944 374 938 349 q 960 436 951 399 l 1017 436 l 1017 192 l 1079 192 l 1079 114 l 1017 114 l 1017 0 l 929 0 z "},"¾":{"ha":1158,"x_min":61,"x_max":1079,"o":"m 150 -17 l 908 969 l 1008 969 l 250 -17 l 150 -17 m 929 0 l 929 114 l 710 114 l 710 185 q 780 337 750 258 q 829 506 810 415 l 921 506 q 863 326 901 417 q 797 192 824 236 l 929 192 l 929 325 q 944 374 938 349 q 960 436 951 399 l 1017 436 l 1017 192 l 1079 192 l 1079 114 l 1017 114 l 1017 0 l 929 0 m 243 456 q 108 497 156 456 q 61 611 61 539 l 61 629 l 149 629 l 149 608 q 238 532 149 532 q 331 608 331 532 q 301 663 331 649 q 235 678 272 678 l 193 678 l 193 756 l 238 756 q 297 772 271 756 q 322 824 322 789 q 298 877 322 861 q 242 893 274 893 q 182 876 206 893 q 158 821 158 858 l 158 801 l 71 801 l 71 828 q 119 931 71 892 q 240 969 167 969 q 363 933 317 969 q 410 828 410 896 q 390 765 410 790 q 338 724 369 740 l 338 721 q 421 603 421 685 q 371 495 421 535 q 243 456 321 456 z "},"⅛":{"ha":1158,"x_min":71,"x_max":1097,"o":"m 150 -17 l 908 969 l 1008 969 l 250 -17 l 150 -17 m 71 456 l 71 533 l 193 533 l 193 846 l 71 846 l 71 901 q 154 919 106 906 q 239 953 203 933 l 281 953 l 281 533 l 392 533 l 392 456 l 71 456 m 919 60 q 1008 135 1008 60 q 919 207 1008 207 q 831 135 831 207 q 919 60 831 60 m 919 -17 q 784 27 825 -17 q 743 135 743 71 q 817 249 743 214 q 754 353 754 289 q 796 456 754 414 q 919 497 838 497 q 1043 456 1001 497 q 1085 353 1085 414 q 1024 249 1085 290 q 1097 135 1097 210 q 1056 27 1097 71 q 919 -17 1014 -17 m 919 285 q 997 353 997 285 q 919 421 997 421 q 842 353 842 421 q 919 285 842 285 z "},"⅜":{"ha":1158,"x_min":53,"x_max":1097,"o":"m 150 -17 l 908 969 l 1008 969 l 250 -17 l 150 -17 m 919 60 q 1008 135 1008 60 q 919 207 1008 207 q 831 135 831 207 q 919 60 831 60 m 919 -17 q 784 27 825 -17 q 743 135 743 71 q 817 249 743 214 q 754 353 754 289 q 796 456 754 414 q 919 497 838 497 q 1043 456 1001 497 q 1085 353 1085 414 q 1024 249 1085 290 q 1097 135 1097 210 q 1056 27 1097 71 q 919 -17 1014 -17 m 919 285 q 997 353 997 285 q 919 421 997 421 q 842 353 842 421 q 919 285 842 285 m 235 456 q 100 497 147 456 q 53 611 53 539 l 53 629 l 140 629 l 140 608 q 229 532 140 532 q 322 608 322 532 q 293 663 322 649 q 226 678 264 678 l 185 678 l 185 756 l 229 756 q 288 772 263 756 q 314 824 314 789 q 290 877 314 861 q 233 893 265 893 q 174 876 197 893 q 150 821 150 858 l 150 801 l 63 801 l 63 828 q 110 931 63 892 q 232 969 158 969 q 355 933 308 969 q 401 828 401 896 q 381 765 401 790 q 329 724 361 740 l 329 721 q 413 603 413 685 q 363 495 413 535 q 235 456 313 456 z "}}}
